<?xml version="1.0" encoding="utf-8"?>
<!-- Generator: Adobe Illustrator 22.0.1, SVG Export Plug-In . SVG Version: 6.00 Build 0)  -->
<svg version="1.1" id="Layer_1" xmlns="http://www.w3.org/2000/svg" xmlns:xlink="http://www.w3.org/1999/xlink" x="0px" y="0px"
	 viewBox="0 0 144 45.9" style="enable-background:new 0 0 144 45.9;" xml:space="preserve">
<style type="text/css">
	.st0{fill:#F7E60F;}
	.st1{clip-path:url(#SVGID_2_);}
	.st2{fill:#DDDDDD;}
	.st3{fill:#FFFFFF;}
	.st4{fill:#4BBCDB;}
	.st5{fill:#2B8B56;}
	.st6{fill:#93C152;}
	.st7{fill:#D3A08A;}
	.st8{opacity:0.41;}
	.st9{fill:#319960;}
	.st10{opacity:0.45;}
	.st11{fill:#B88C79;}
	.st12{opacity:0.53;}
	.st13{opacity:0.46;}
	.st14{fill:#2E955D;}
	.st15{fill:#BC8E84;}
	.st16{fill:#A0786D;}
	.st17{fill:#8E6A5E;}
	.st18{fill:#66B162;}
	.st19{fill:#236E45;}
	.st20{fill:#1B4C14;}
	.st21{fill:#2C8B57;}
</style>
<rect id="Rectangle_85" x="12.1" y="8.5" class="st0" width="131.9" height="30"/>
<g>
	<g>
		<defs>
			<path id="SVGID_1_" d="M9.4,5.1c0,0-4.2,2.1-5.8,4.7s-1.2,6.4-0.7,8c0.5,1.7-2.1,3-2.4,8.1s2.7,8.7,4.2,10s2.4,2.6,2.5,3.8
				s0.6,3.6,2.4,1.2c0,0,0.5,3.9,2.5,1c0,0-0.1,3.5,2.2,1.3l7.9,5.5l16.6-6.3l-3-26.8l-3.9-14L16.1-1.8L9.4,3V5.1z"/>
		</defs>
		<clipPath id="SVGID_2_">
			<use xlink:href="#SVGID_1_"  style="overflow:visible;"/>
		</clipPath>
		<g class="st1">
			<g>
				<ellipse transform="matrix(0.9841 -0.1778 0.1778 0.9841 -3.3071 5.5121)" class="st2" cx="29.1" cy="21.2" rx="5" ry="7.8"/>
			</g>
			<g>
				<ellipse transform="matrix(0.99 -0.141 0.141 0.99 -2.5603 4.461)" class="st3" cx="30.2" cy="20.3" rx="3.5" ry="4.6"/>
			</g>
			<g>
				<circle class="st4" cx="30" cy="20.2" r="3.2"/>
			</g>
			<g>
				<circle cx="30" cy="20.2" r="2"/>
			</g>
			<g>
				<circle class="st3" cx="31.2" cy="18.7" r="0.7"/>
			</g>
			<g>
				<circle class="st3" cx="31.9" cy="19.9" r="0.4"/>
			</g>
			<g>
				<path class="st5" d="M33.4,18c-0.2-0.2-0.3-0.4-0.5-0.7c-0.2-0.2-0.4-0.4-0.6-0.6c-0.2-0.2-0.4-0.4-0.6-0.5S31.2,16,31,16
					c-0.1,0-0.2,0-0.3,0.1c-0.1,0.1-0.2,0.1-0.2,0.2c-0.1,0.1-0.1,0.2-0.2,0.3c0,0.1-0.1,0.2-0.1,0.4c-0.1,0.5-0.2,1-0.3,1.6
					L29,18.5c0.1-0.6,0.3-1.1,0.5-1.7c0.1-0.1,0.1-0.3,0.2-0.4s0.2-0.3,0.3-0.4c0.1-0.1,0.2-0.2,0.4-0.3c0.2-0.1,0.3-0.1,0.5-0.1
					s0.3,0.1,0.5,0.1c0.1,0.1,0.3,0.2,0.4,0.2c0.2,0.2,0.4,0.4,0.6,0.6s0.3,0.4,0.5,0.7C33.2,17.5,33.3,17.7,33.4,18z"/>
			</g>
			<g>
				<path class="st6" d="M-5.1,45.5c0,0,2.3-3,2-6.3l-1.1-3l4.3,1l4.9-1l6.7,5l6.1,3l6.5,0.4l3.9-1.7l2.2-3l0.8-3.5V33l-0.9-2.9
					h-0.7c0,0,0.7,8.1-4.2,10.6s-13.4,0.2-18-8.5c0,0-2.7-4.6-2.4-6.5c0,0,3.7,3.9,9.2,4.9s14.7,1,19.8-2l0.8-1.4L34.5,26l-0.1-0.4
					c0,0,0.4-0.3,0.4-0.8c-0.1-0.5-0.9,0-0.9,0s-1.5,0.5-2,0.1c-0.5-0.5-2.1-1.7-2.3-5.9c-0.2-4.2,0.6-9,0.6-9l-0.4-2.1l-3.2,0.6
					L22.4,9l-1.8-1l-2.4-5.3l-2.5-1.9l-2.5,1.1l-2.6,3.6L9.9,7l-3,1.1l-3.7,3c0,0-1.9-1.4-2-1.4s-4-1.1-4-1.1l-3.6,0.2l-2.9,1.4
					l-4,6.1l-1.8,10.6l4.6,17.2L-5.1,45.5z"/>
			</g>
			<g>
				<path class="st5" d="M-8.5,25.4c0,0-0.1-5.9,2.1-8.6s-0.9,7,1.4,8.5C-5.1,25.3-7.8,25.6-8.5,25.4z"/>
			</g>
			<g>
				<path class="st5" d="M-2,22.6c0,0-1.5-2.6-0.2-4.8s0.8,3.5,3.1,3.2C0.9,21-1.3,22.3-2,22.6z"/>
			</g>
			<g>
				<path class="st5" d="M-2.6,33.4c0,0,1.1-2,3-2s-2,1.9-0.9,3.3C-0.4,34.7-2.1,33.8-2.6,33.4z"/>
			</g>
			<g>
				<path class="st5" d="M-1.6,8.3c0,0,0.1,5.4-1.8,7.8s0.8-6.3-1.2-7.6C-4.5,8.4-2.2,8.1-1.6,8.3z"/>
			</g>
			<g>
				<g>
					<g>
						<g>
							<g>
								<path class="st5" d="M13.5,31h0.2c0.2,0,0.3,0.1,0.5,0.1s0.5,0.1,0.7,0.1c0.5,0.1,0.9,0.2,1.4,0.2c1,0.1,2,0.2,2.9,0.3
									c0.4,0,0.9,0,1.4,0c0.4,0,0.9,0,1.4,0s1,0,1.4-0.1c0.5,0,0.9-0.1,1.4-0.1s0.9-0.1,1.3-0.1c0.4-0.1,0.8-0.1,1.1-0.2
									c0.8-0.1,1.6-0.3,2.3-0.5l0,0l0,0l0,0v0.2c0,0.2,0,0.3-0.1,0.5c0,0.2-0.1,0.3-0.1,0.5c0,0.1,0,0.2,0,0.3
									c0,0.1,0,0.2-0.1,0.3c-0.1,0.3-0.1,0.6-0.2,0.9c0,0.1-0.1,0.3-0.1,0.4c-0.1,0.4-0.2,0.9-0.3,1.2c-0.1,0.2-0.1,0.4-0.2,0.7
									c-0.1,0.2-0.1,0.4-0.2,0.6c-0.2,0.4-0.4,0.8-0.6,1.2s-0.4,0.7-0.7,1.1c-0.5,0.6-1,1.1-1.5,1.5c-0.2,0.2-0.5,0.3-0.8,0.5
									c-0.2,0.1-0.5,0.3-0.8,0.4c-0.3,0.1-0.7,0.2-1,0.3s-0.7,0.2-1,0.2c-0.7,0.1-1.4,0.1-2.2,0c-0.4-0.1-0.8-0.1-1.3-0.3
									c-0.5-0.1-1-0.3-1.6-0.5c-0.6-0.3-1.2-0.6-1.8-0.9c-0.5-0.3-1.1-0.7-1.7-1.2c-0.4-0.3-0.7-0.6-1.1-0.9
									c-0.4-0.4-0.8-0.7-1.1-1.1c-0.1-0.1-0.2-0.3-0.4-0.4l0.1-0.2c-0.2-0.2-0.4-0.4-0.5-0.6c-0.3-0.4-0.6-0.8-0.9-1.1
									C8,32.6,7,30.9,6.2,29c0-0.1-0.1-0.2-0.1-0.2l0,0l0,0l0,0l0,0l0,0c-0.1-0.3-0.3-0.7-0.4-1S5.5,27.3,5.4,27l0,0v-0.1v-0.1
									l0,0l0,0l0.1,0.1c0.2,0.2,0.3,0.4,0.5,0.5c0.2,0.2,0.6,0.6,1,0.8c0.4,0.3,0.8,0.5,1.2,0.7s0.8,0.4,1.2,0.6s0.9,0.4,1.4,0.6
									s0.9,0.3,1.3,0.5c0.2,0.1,0.3,0.1,0.5,0.2C13,30.8,13.2,30.9,13.5,31L13.5,31L13.5,31z"/>
							</g>
							<g>
								<path class="st7" d="M29.5,30.8c-0.7,0.2-1.5,0.4-2.3,0.5c-0.4,0.1-0.8,0.1-1.1,0.2c-0.4,0.1-0.8,0.1-1.3,0.1
									c-0.4,0-0.9,0.1-1.4,0.1s-1,0.1-1.4,0.1c-0.5,0-1,0-1.4,0c-0.5,0-0.9,0-1.4,0c-0.9,0-1.9-0.1-2.9-0.3
									c-0.5-0.1-1-0.1-1.4-0.2c-0.3,0-0.5-0.1-0.7-0.1s-0.3-0.1-0.5-0.1h-0.2c-0.3-0.1-0.6-0.1-0.8-0.2s-0.4-0.1-0.5-0.2
									c-0.4-0.1-0.9-0.3-1.3-0.5c-0.5-0.2-0.9-0.4-1.4-0.6S8.6,29.2,8.3,29c-0.4-0.2-0.8-0.4-1.2-0.7c-0.4-0.3-0.8-0.6-1.2-0.9
									c-0.2-0.2-0.4-0.4-0.5-0.5l-0.1-0.1L5.4,27l0,0c0.1,0.3,0.2,0.5,0.3,0.8c0.1,0.3,0.3,0.7,0.4,1l0,0c0,0.1,0.1,0.2,0.1,0.3
									C7,31,8,32.8,9.2,34.4c0.3,0.4,0.6,0.8,0.9,1.1c0.2,0.2,0.3,0.4,0.5,0.6l0.1,0.2c0.1,0.1,0.2,0.3,0.4,0.4
									c0.3,0.4,0.7,0.7,1.1,1.1c0.4,0.3,0.7,0.6,1.1,0.9c0.6,0.5,1.1,0.8,1.7,1.2c0.6,0.4,1.2,0.7,1.8,0.9
									c0.5,0.2,1.1,0.4,1.6,0.5c0.4,0.1,0.9,0.2,1.3,0.3c0.8,0.1,1.5,0.1,2.2,0c0.3,0,0.7-0.1,1-0.2c0.3-0.1,0.6-0.2,1-0.3
									c0.3-0.1,0.6-0.2,0.8-0.4c0.3-0.2,0.5-0.3,0.8-0.5c0.6-0.4,1.1-0.9,1.5-1.5c0.3-0.3,0.5-0.7,0.7-1.1
									c0.2-0.4,0.4-0.8,0.6-1.2c0.1-0.2,0.1-0.4,0.2-0.6c0.1-0.3,0.1-0.5,0.2-0.7c0.1-0.4,0.2-0.8,0.3-1.2c0-0.1,0.1-0.3,0.1-0.4
									c0.1-0.3,0.1-0.6,0.2-0.9c0-0.1,0-0.2,0.1-0.3c0-0.1,0-0.2,0-0.3c0-0.2,0.1-0.3,0.1-0.5s0-0.3,0.1-0.5L29.5,30.8L29.5,30.8
									L29.5,30.8L29.5,30.8L29.5,30.8L29.5,30.8z"/>
							</g>
							<g class="st8">
								<path class="st9" d="M29.5,31.9L29.5,31.9L29.5,31.9L29.5,31.9L29.5,31.9L29.5,31.9z"/>
							</g>
							<g class="st10">
								<path class="st11" d="M20.8,31.8c-3.3-0.1-6.4-0.6-9.1-1.5c-0.1,0-0.3-0.1-0.4-0.1C11.1,30.1,11,30,10.8,30l0,0
									c-0.1,0-0.2-0.1-0.3-0.1c0,0-0.1,0-0.1-0.1c-0.1,0-0.1,0-0.2-0.1c-0.1,0-0.2-0.1-0.3-0.1c-0.1-0.1-0.3-0.1-0.4-0.2
									c-0.2-0.1-0.3-0.1-0.5-0.2c-0.1-0.1-0.3-0.1-0.4-0.2c-0.2-0.1-0.4-0.2-0.5-0.3L8,28.6c-0.1-0.1-0.2-0.1-0.3-0.2
									c-0.1-0.1-0.2-0.1-0.3-0.2C7,28.1,6.9,28,6.7,27.9c-0.1-0.1-0.2-0.1-0.3-0.2c-0.3-0.2-0.5-0.3-0.7-0.5c0,0.2,0,0.3,0.1,0.5
									c0.1,0.7,0.4,1.4,0.7,2c0.1,0.3,0.3,0.6,0.4,0.9s0.3,0.5,0.5,0.8c0.5,0.7,1,1.3,1.6,1.9c0.4,0.4,0.8,0.7,1.2,1
									c0.3,0.2,0.5,0.4,0.8,0.6c0.6,0.4,1.1,0.7,1.7,1.1c0.3,0.2,0.6,0.3,0.9,0.5c0.6,0.3,1.2,0.5,1.7,0.7
									c0.9,0.3,1.8,0.5,2.7,0.6c0.7,0.1,1.4,0.1,2.1,0.1c0.9,0,1.8-0.2,2.8-0.4c0.8-0.2,1.7-0.5,2.4-0.9c0.6-0.3,1.2-0.6,1.8-0.9
									c0.7-0.5,1.4-1,2.1-1.6c0,0,0,0,0-0.1c0.1-0.2,0.1-0.5,0.2-0.7v-0.1c0-0.2,0.1-0.3,0.1-0.5c0-0.1,0.1-0.2,0.1-0.4l0,0
									c0-0.2,0-0.4,0.1-0.6c0-0.2,0-0.4,0.1-0.6c0-0.1,0-0.1,0-0.2v-0.1c0,0,0,0,0-0.1C26.9,31.4,24,31.8,20.8,31.8L20.8,31.8
									L20.8,31.8z"/>
							</g>
							<g class="st10">
								<path class="st11" d="M20.8,31.8c-3.3-0.1-6.4-0.6-9.1-1.5c-0.1,0-0.3-0.1-0.4-0.1C11.1,30.1,11,30,10.8,30l0,0
									c-0.1,0-0.2-0.1-0.3-0.1c0,0-0.1,0-0.1-0.1c-0.1,0-0.1,0-0.2-0.1c-0.1,0-0.2-0.1-0.3-0.1c-0.1-0.1-0.3-0.1-0.4-0.2
									c-0.2-0.1-0.3-0.1-0.5-0.2c-0.1-0.1-0.3-0.1-0.4-0.2c-0.2-0.1-0.4-0.2-0.5-0.3L8,28.6c-0.1-0.1-0.2-0.1-0.3-0.2l-0.1-0.1
									c0.1,0.2,0.3,0.5,0.5,0.7c0.2,0.3,0.4,0.6,0.6,0.8c0,0.1,0.1,0.1,0.2,0.2c0.2,0.3,0.4,0.5,0.7,0.8c0.1,0.1,0.2,0.2,0.3,0.3
									c0.1,0.1,0.2,0.2,0.3,0.3c0.6,0.6,1.3,1.1,2,1.6c0.2,0.2,0.5,0.4,0.7,0.5s0.3,0.2,0.5,0.3s0.3,0.2,0.5,0.2
									c0.5,0.2,1,0.4,1.5,0.6c0.2,0.1,0.3,0.1,0.5,0.2c0.1,0,0.1,0,0.2,0.1c0,0,0,0,0.1,0c0.2,0.1,0.4,0.1,0.6,0.1
									c0.7,0.2,1.4,0.3,2.2,0.4c0.7,0.1,1.4,0,2,0c0.9-0.1,1.8-0.2,2.6-0.4c0.3-0.1,0.6-0.2,0.9-0.2c0.2-0.1,0.3-0.1,0.5-0.2
									c0.3-0.1,0.6-0.2,0.9-0.4s0.6-0.3,0.9-0.5c0.4-0.2,0.7-0.5,1.1-0.8c0.5-0.4,0.9-0.8,1.3-1.2c0.2-0.2,0.4-0.4,0.6-0.6V31
									c0-0.1,0-0.1,0-0.2v-0.1c0,0,0,0,0-0.1C26.9,31.4,24,31.8,20.8,31.8L20.8,31.8L20.8,31.8z"/>
							</g>
							<g class="st10">
								<path class="st11" d="M20.8,31.8c-3.3-0.1-6.4-0.6-9.1-1.5c-0.1,0-0.3-0.1-0.4-0.1C11.1,30.1,11,30,10.8,30l0,0
									c-0.1,0-0.2-0.1-0.3-0.1c0,0-0.1,0-0.1-0.1c-0.1,0-0.1,0-0.2-0.1c-0.1,0-0.2-0.1-0.3-0.1c-0.1-0.1-0.3-0.1-0.4-0.2
									c-0.2-0.1-0.3-0.1-0.5-0.2c-0.1-0.1-0.3-0.1-0.4-0.2l0,0c0.1,0.1,0.2,0.1,0.3,0.2c0.3,0.2,0.6,0.5,0.9,0.7
									c0.3,0.2,0.5,0.4,0.8,0.5c0.3,0.2,0.5,0.3,0.8,0.5c0.1,0.1,0.3,0.1,0.4,0.2c0.1,0.1,0.3,0.1,0.4,0.2
									c0.7,0.3,1.4,0.6,2.1,0.9c0.7,0.3,1.3,0.5,2,0.7c0.6,0.2,1.2,0.4,1.9,0.6c0.7,0.2,1.5,0.3,2.2,0.4c0.2,0,0.4,0,0.5,0.1
									c0.2,0,0.4,0,0.6,0c0.3,0,0.7,0,1,0c0.4,0,0.8-0.1,1.2-0.1c0.3,0,0.6-0.1,1-0.2c0.3-0.1,0.7-0.2,1-0.3
									c0.1,0,0.3-0.1,0.4-0.1c0.2-0.1,0.4-0.1,0.6-0.2c1-0.4,2-0.9,2.8-1.7c0-0.1,0-0.2,0-0.3c0-0.1,0-0.1,0-0.2v-0.1
									c0,0,0,0,0-0.1C26.9,31.4,24,31.8,20.8,31.8L20.8,31.8L20.8,31.8z"/>
							</g>
							<g class="st12">
								<path class="st11" d="M20.8,31.8c-3.3-0.1-6.4-0.6-9.1-1.5c-0.1,0-0.3-0.1-0.4-0.1C11.1,30.1,11,30,10.8,30l0,0
									c-0.1,0-0.2-0.1-0.3-0.1c0,0-0.1,0-0.1-0.1c-0.1,0-0.1,0-0.2-0.1c-0.1,0-0.2-0.1-0.3-0.1c-0.1-0.1-0.3-0.1-0.4-0.2
									c-0.2-0.1-0.3-0.1-0.5-0.2H8.9c0.4,0.3,0.7,0.6,1.1,1c0.3,0.3,0.6,0.6,1,0.8c0.2,0.2,0.5,0.4,0.8,0.6
									c0.1,0.1,0.3,0.2,0.4,0.2c0.3,0.1,0.6,0.3,0.9,0.4c0.3,0.1,0.6,0.2,1,0.4c0.3,0.1,0.6,0.2,0.9,0.3c0.1,0,0.1,0,0.2,0
									c0.3,0.1,0.5,0.1,0.8,0.2c0.6,0.1,1.3,0.3,1.9,0.4c0.5,0.1,1,0.1,1.6,0.2c0.3,0,0.6,0,0.9,0.1c0.3,0,0.7,0,1,0
									c0.1,0,0.3,0,0.4,0c0.3,0,0.7-0.1,1-0.1c0.6-0.1,1.3-0.3,1.9-0.6c0.4-0.2,0.9-0.4,1.3-0.6c0.3-0.1,0.5-0.3,0.8-0.4
									c0.3-0.1,0.6-0.3,0.9-0.4s0.6-0.3,0.8-0.4l0,0C26,31.6,23.4,31.8,20.8,31.8L20.8,31.8L20.8,31.8z"/>
							</g>
							<g class="st13">
								<polygon class="st14" points="25.1,20.9 25.1,20.9 25.1,20.9 25.1,20.9 								"/>
							</g>
							<g class="st13">
								<path class="st14" d="M25.1,20.9L25.1,20.9L25.1,20.9L25.1,20.9L25.1,20.9z"/>
							</g>
						</g>
						<g>
							<path class="st15" d="M29.5,30.8c-0.7,0.2-1.5,0.4-2.3,0.5c-0.4,0.1-0.8,0.1-1.1,0.2c-0.4,0.1-0.8,0.1-1.3,0.1
								c-0.4,0-0.9,0.1-1.4,0.1s-1,0.1-1.4,0.1c-0.5,0-1,0-1.4,0c-0.5,0-0.9,0-1.4,0c-0.9,0-1.9-0.1-2.9-0.3c-0.5-0.1-1-0.1-1.4-0.2
								c-0.3,0-0.5-0.1-0.7-0.1s-0.3-0.1-0.5-0.1h-0.2c-0.3-0.1-0.6-0.1-0.8-0.2s-0.4-0.1-0.5-0.2c-0.4-0.1-0.9-0.3-1.3-0.5
								c-0.5-0.2-0.9-0.4-1.4-0.6S8.6,29.2,8.3,29c-0.4-0.2-0.8-0.4-1.2-0.7c-0.4-0.3-0.8-0.6-1.2-0.9c-0.2-0.2-0.4-0.4-0.5-0.5
								l-0.1-0.1L5.4,27l0,0c0.1,0.3,0.2,0.5,0.3,0.8c0.1,0.3,0.3,0.7,0.4,1l0,0c0,0.1,0.1,0.2,0.1,0.3C7,31,8,32.8,9.2,34.4
								c0.3,0.4,0.6,0.8,0.9,1.1c0.2,0.2,0.3,0.4,0.5,0.6l0.1,0.2c0.1,0.1,0.2,0.3,0.4,0.4c0.3,0.4,0.7,0.7,1.1,1.1
								c0.4,0.3,0.7,0.6,1.1,0.9c0.6,0.5,1.1,0.8,1.7,1.2c0.6,0.4,1.2,0.7,1.8,0.9c0.5,0.2,1.1,0.4,1.6,0.5c0.4,0.1,0.9,0.2,1.3,0.3
								c0.8,0.1,1.5,0.1,2.2,0c0.3,0,0.7-0.1,1-0.2c0.3-0.1,0.6-0.2,1-0.3c0.3-0.1,0.7,0.3,1,0.2c0.3-0.2,0.5-0.3,0.8-0.5
								c0.6-0.4,1.1-0.9,1.5-1.5c0.3-0.3,0.5-0.7,0.7-1.1c0.2-0.4,0.4-0.8,0.6-1.2c0.1-0.2,0.1-0.4,0.2-0.6c0.1-0.3,0.1-0.5,0.2-0.7
								c0.1-0.4,0.2-0.8,0.3-1.2c0-0.1,0.1-0.3,0.1-0.4c0.1-0.3,0.1-0.6,0.2-0.9c0-0.1,0-0.2,0.1-0.3c0-0.1,0-0.2,0-0.3
								c0-0.2,0.1-0.3,0.1-0.5s0-0.3,0.1-0.5v-0.2v-0.8L29.5,30.8L29.5,30.8L29.5,30.8L29.5,30.8z"/>
						</g>
						<g class="st8">
							<path class="st9" d="M29.5,31.9L29.5,31.9L29.5,31.9L29.5,31.9L29.5,31.9L29.5,31.9z"/>
						</g>
						<g>
							<path class="st16" d="M20.8,31.8c-3.3-0.1-6.4-0.6-9.1-1.5c-0.1,0-0.3-0.1-0.4-0.1C11.1,30.1,11,30,10.8,30l0,0
								c-0.1,0-0.2-0.1-0.3-0.1c0,0-0.1,0-0.1-0.1c-0.1,0-0.1,0-0.2-0.1c-0.1,0-0.1-0.3-0.2-0.4c-0.1-0.1-0.3-0.1-0.4-0.2
								C9.4,29.1,9.2,29,9,29c-0.1-0.1-0.3-0.1-0.4-0.2c-0.2-0.1-0.4-0.2-0.5-0.3L8,28.4c-0.1-0.1-0.2-0.1-0.3-0.2
								c-0.1-0.1-0.2-0.1-0.3-0.2c-0.2-0.1-0.3-0.2-0.5-0.3c-0.1-0.1-0.2-0.1-0.3-0.2c-0.3-0.2-1.5-1.1-1.8-1.2
								c0,0.2,0.4,1.2,0.4,1.4c0.1,0.7,0.9,1.4,1.2,2.1c0.1,0.3,0.3,0.6,0.4,0.9s0.3,0.5,0.5,0.8c0.5,0.7,1,1.3,1.6,1.9
								c0.4,0.4,0.8,0.7,1.2,1c0.3,0.2,0.5,0.4,0.8,0.6c0.6,0.4,1.1,0.7,1.7,1.1c0.3,0.2,0.6,0.3,0.9,0.5c0.6,0.3,1.2,0.5,1.7,0.7
								c0.9,0.3,1.8,0.5,2.7,0.6C18.6,38,19.3,38,20,38c0.9,0,1.8-0.2,2.8-0.4c0.8-0.2,1.7-0.5,2.4-0.9c0.6-0.3,1.2-0.6,1.8-0.9
								c0.7-0.5,1.7-1.3,2.4-1.9c0,0,0,0,0-0.1c0.1-0.2,0.1-0.5,0.2-0.7V33c0-0.2,0.1-0.3,0.1-0.5c0-0.1,0.1-0.2,0.1-0.4l0,0
								c0-0.2-0.1-0.5-0.1-0.7s0-0.4,0.1-0.6c0-0.1,0-0.1,0-0.2v-0.1c0,0,0,0,0-0.1C27.1,31,24,31.8,20.8,31.8L20.8,31.8L20.8,31.8z
								"/>
						</g>
						<g>
							<path class="st17" d="M20.8,31.8c-3.3-0.1-6.4-0.6-9.1-1.5c-0.1,0-0.3-0.1-0.4-0.1C11.1,30.1,11,30,10.8,30l0,0
								c-0.1,0-0.2-0.1-0.3-0.1c0,0-0.1,0-0.1-0.1c-0.1,0-0.1,0-0.2-0.1c-0.1,0-0.5-0.5-0.6-0.5C9.3,29.1,9.2,29,9.1,29
								c-0.2-0.1-0.3-0.1-0.5-0.2c-0.1-0.1-0.3-0.1-0.4-0.2c-0.2-0.1-0.4-0.2-0.5-0.3l-0.1-0.1c-0.1-0.1-0.2-0.1-0.3-0.2l-0.1-0.1
								c0.1,0.2,0.6,0.9,0.7,1.1c0.2,0.3,0.4,0.6,0.6,0.8c0,0.1,0.1,0.1,0.2,0.2c0.2,0.3,0.4,0.5,0.7,0.8c0.1,0.1,0.2,0.2,0.3,0.3
								c0.1,0.1,0.2,0.2,0.3,0.3c0.6,0.6,1.3,1.1,2,1.6c0.2,0.2,0.5,0.4,0.7,0.5s0.3,0.2,0.5,0.3s0.3,0.2,0.5,0.2
								c0.5,0.2,1,0.4,1.5,0.6c0.2,0.1,0.3,0.1,0.5,0.2c0.1,0,0.1,0,0.2,0.1c0,0,0,0,0.1,0c0.2,0.1,0.4,0.1,0.6,0.1
								c0.7,0.2,1.4,0.3,2.2,0.4c0.7,0.1,1.4,0,2,0c0.9-0.1,1.8-0.2,2.6-0.4c0.3-0.1,0.6-0.2,0.9-0.2c0.2-0.1,0.3-0.1,0.5-0.2
								c0.3-0.1,0.6-0.2,0.9-0.4s0.6-0.3,0.9-0.5c0.4-0.2,0.7-0.5,1.1-0.8c0.5-0.4,0.9-0.8,1.3-1.2c0.2-0.2,0.5-0.7,0.7-0.9
								c0,0,0-0.1,0-0.2s-0.1-0.1-0.1-0.1l0,0c0,0,0,0,0-0.1C27,31.3,24,31.8,20.8,31.8L20.8,31.8L20.8,31.8z"/>
						</g>
						<g class="st13">
							<polygon class="st14" points="25.1,20.9 25.1,20.9 25.1,20.9 25.1,20.9 							"/>
						</g>
						<g class="st13">
							<path class="st14" d="M25.1,20.9L25.1,20.9L25.1,20.9L25.1,20.9L25.1,20.9z"/>
						</g>
					</g>
				</g>
			</g>
			<g>
				<path class="st5" d="M30,13.8c0,0,2.6,1.6,3.3,4c0,0-1.8-3-3.2-1.4l-0.8-0.1L30,13.8z"/>
			</g>
			<g>
				<g>
					<path class="st18" d="M34.7,25l-0.1-0.2l-0.2-0.2L33.6,25l-1.2,0l-1.2-0.7l-1.4-2.6l-0.2-5.9l-0.1-3.7l1-3.7l-5.8,0.4L23.2,9
						l-2.9-0.6c1.1,1.4,2.4,2.3,4,2.1c6.7-0.8,1.5,0,2.3,9.4c0.6,7,3.7,7.2,5.3,6.8c0.6-0.1,1.1,0.4,0.9,1c-0.4,1.2-1.7,1.5-1.7,1.5
						h1.3l2.1-1.1l0.2-1.8l-0.2-0.9L34.7,25z"/>
				</g>
			</g>
			<g>
				<path class="st18" d="M18,3.3c0,0-1.8-3.3-3.3,3.7l-2.6-0.2l-1.8-0.5l0.6-1.8l2.8-3.2L16,0.8l1.4,0.8L18,3.3z"/>
			</g>
			<g>
				<path class="st5" d="M34.5,25.5C34.5,25.5,34.5,25.4,34.5,25.5c0.1-0.2,0.2-0.2,0.3-0.3c0-0.1,0.1-0.2,0.1-0.3
					c0-0.1,0-0.1,0-0.2s-0.1-0.1-0.2-0.1c-0.1,0-0.1,0-0.2,0c-0.1,0-0.1,0-0.2,0l0,0c-0.3,0.1-0.5,0.2-0.8,0.3
					C33.2,25,32.9,25,32.7,25c-0.3,0-0.5-0.1-0.8-0.2c-0.2-0.1-0.4-0.3-0.6-0.5s-0.3-0.4-0.4-0.7c-0.1-0.3-0.2-0.5-0.3-0.8
					c-0.2-0.5-0.3-1.1-0.3-1.7C30,19.7,30,18.6,30,17.4s0.1-2.3,0.2-3.5s0.3-2.3,0.5-3.5v-0.2V10c0-0.2,0.1-0.3,0.1-0.5s0-0.4,0-0.6
					c0-0.2-0.1-0.4-0.2-0.7c-0.1-0.1-0.2-0.2-0.3-0.3c-0.1-0.1-0.2-0.2-0.3-0.2c-0.2-0.1-0.5-0.2-0.7-0.2s-0.4,0-0.6,0
					s-0.3,0-0.5,0.1c-0.3,0.1-0.6,0.1-0.9,0.2S26.7,7.9,26.4,8c-0.4,0-1,0.2-1.5,0.3c-0.3,0.1-0.6,0.1-0.8,0.1c-0.1,0-0.3,0-0.4,0
					s-0.1,0-0.2,0s-0.1,0-0.2,0s-0.2,0-0.4,0c-0.1,0-0.2,0-0.3-0.1C22.4,8.2,22.2,8.2,22,8c-0.4-0.1-0.7-0.5-1-1s-0.5-1-0.7-1.6
					s-0.5-1.1-0.7-1.7c-0.3-0.6-0.6-1.1-1-1.6c-0.2-0.3-0.4-0.5-0.7-0.7c-0.2-0.2-0.5-0.4-0.8-0.6c-0.1-0.1-0.3-0.2-0.5-0.3
					s-0.3-0.1-0.5-0.2c-0.2,0-0.4-0.1-0.5-0.1c-0.2,0-0.4,0-0.6,0c-0.4,0-0.7,0.2-1,0.3c-0.2,0.1-0.3,0.2-0.4,0.3
					c-0.1,0.1-0.3,0.2-0.4,0.3c-0.5,0.4-0.9,0.9-1.3,1.4c-0.4,0.5-0.7,1-1,1.6c-0.3,0.5-0.6,1.1-0.8,1.6c0,0.1,0,0.3-0.1,0.4
					C8.3,6.2,6.2,7,4.1,9.2c0,0,0.7-5.4-3.7-0.2c0,0,1.5-6.5-3.2-1.3c0,0,1.8-5.3-2.2-1.1l-1.9,2C-8.9,8.6-12,9-12,9
					s-0.6,0.7,0.8,1.5s0.2,5.1,0,6c-0.2,0.8-1.8,5.1-1.2,5.3C-11.7,22-8,17-7.7,12.9c0-0.3,0-0.6,0.1-0.8c0.2-1.4,1.2-2.5,2.5-2.8
					c1.5-0.3,3.6-0.2,5.9,2.1c0,0-4,4,0.3,5.9s-4,2.8-4.5,5.8s-3.9,1.2-7.1,2.3s-3.4,4.7,0.2,7.5c1.8,1.4,3.7,3,5.8,3.9
					c0.3,0.4,0.6,0.9,0.9,1.6c0.7,1.8,0.3,3.8-1,5.9l0.7,0.4c1-1.6,2-4,1.1-6.6c-0.1-0.3-0.2-0.5-0.3-0.8c1.7,0.6,3.6,0.7,5.7,0
					c0,0,0.1,4.2,2,1.5c0,0,0.7,4.2,2.7,1.1c0,0,0.3,4.4,2.4,1.2c0,0,0.5,4.3,2.5,1c0,0,0.2,3.9,2.2,1.3c0,0,6.9,4.3,13.3,0.8
					c6.1-3.4,4.1-11.3,3.2-13.8c0.4-0.2,0.9-0.3,1.4-0.5C32,29.8,36.3,28.8,34.5,25.5z M-8.6,33c-3.6-2.7-4.2-4.5-3.6-5.7
					c0.8-1.4,3.6-1.3,5.7-1.3c0.7,0.5,1.2,1.2,1.6,2c0.7-0.5,0.8-1.2,0.5-1.7c1.7,0.3,3.4,0.6,3.7-1.6c0.4-3,2-3.5,2-3.5
					s-1.5,3.6-0.8,7.8H0.4l-0.3,0.1c-0.1,0-0.2,0.1-0.3,0.1s-0.2,0.1-0.3,0.1s-0.1,0-0.2,0.1c0-1-0.6-1.8-1.5-2
					c0.1,0.9-0.1,1.8-0.9,2.4h-0.1c-0.1,0-0.2,0-0.3,0h-0.3c-0.1,0-0.2,0-0.3,0c-0.2,0-0.4,0-0.6,0h-0.1h-0.1H-5h-0.1h-0.1h-0.1
					h-0.1h-0.1c-0.4-0.1-0.7-0.2-1.1-0.4C-6.8,29-7,28.9-7.2,28.8s-0.3-0.2-0.5-0.4c0.1,0.2,0.2,0.4,0.3,0.6
					c0.1,0.2,0.3,0.3,0.4,0.5c0.3,0.3,0.7,0.6,1.1,0.8c0.3,0.2,0.7,0.3,1,0.4v0.1c-0.3,0.1-1,0.1-1.5,0.4C-7.3,31.4-7.6,32.5-8.6,33
					z M-2.2,36.2c-1.2-0.2-2.6-0.7-4.1-1.6c-0.2-0.1-0.3-0.2-0.5-0.3c0.1-0.7,0.6-1.9,2.4-2.6c0.7,1.2,1.8,2.2,2.7,2.8
					C-1.6,35-1.7,35.8-2.2,36.2z M-0.7,36.4c0.1-0.3,0.2-0.7,0.1-1.2c0.8,0.5,1.4,0.7,1.4,0.7C0.7,36.2,0.2,36.4-0.7,36.4z
					 M-4.4,30.7c0.4,0.1,0.7,0.1,1.1,0.1c0.1,0,0.2,0,0.3,0s0.2,0,0.3,0l0.3-0.1c0.1,0,0.2,0,0.3-0.1c0.4-0.1,0.8-0.3,1.2-0.4
					c0.1,0,0.2-0.1,0.3-0.1S-0.4,30-0.3,30c0.2-0.1,0.4-0.2,0.5-0.3c0.1-0.1,0.2-0.1,0.2-0.2c0.4,2.1,1.4,4.4,3.5,6.5
					C4.1,35.8-0.7,36.3-4.4,30.7z M34.1,25.8c0.1,0,0.1-0.1,0.2-0.1c0.2,0.4,0.8,2.2-1.4,2.9c-2.4,0.8-16.2,6.5-27.9-3.3
					c-0.1-0.1-0.3-0.2-0.4-0.2l0,0l0,0c-0.4-0.1-0.9,0.2-1,0.6c-0.2,0.6-0.3,1.5-0.1,2.4c0,0,0.4-2,1.1-2c0,0,0.1,0.1,0.2,0.2l0,0
					c0.1,0.4,0.2,0.9,0.3,1.3c0.3,0.8,0.6,1.7,0.9,2.5c0.7,1.6,1.6,3.2,2.6,4.6c0.3,0.4,0.5,0.7,0.8,1.1c0.3,0.4,0.6,0.7,0.8,1
					c0.6,0.7,1.2,1.3,1.9,1.9c0.7,0.6,1.4,1.1,2.2,1.6s1.6,0.9,2.4,1.2c0.9,0.3,1.8,0.5,2.7,0.7c0.2,0,0.5,0,0.7,0.1
					c0.2,0,0.5,0,0.7,0c0.5,0,0.9,0,1.4-0.1s0.9-0.1,1.4-0.3c0.4-0.1,0.9-0.3,1.3-0.5s0.8-0.4,1.2-0.7c0.4-0.3,0.7-0.6,1-0.9
					c0.3-0.3,0.6-0.7,0.9-1.1c0.3-0.4,0.5-0.8,0.7-1.2c0.4-0.8,0.6-1.7,0.8-2.6c0.2-0.9,0.3-1.8,0.3-2.6c0-0.6,0-1.2,0-1.8
					c0.2,0,0.3-0.1,0.5-0.2c0.3,1.9,1.7,11.1-5.1,13.1c-7.5,2.3-16.9-4.7-19.6-9.1s-3-5.3-3.4-8.5s1.5-6,2.3-7.5s1.2-2.1,0.5-3.7
					c0,0,0,2.2-1.1,2.5c0,0-1.3-10.3,10.8-10.2c0,0-1.5-1-3.7-1.1c0.3-0.5,0.5-1,0.8-1.4c0.3-0.5,0.6-1,1-1.4
					c0.3-0.4,0.7-0.9,1.1-1.2c0.4-0.3,0.9-0.6,1.3-0.6c0.1,0,0.2,0,0.3,0s0.2,0,0.3,0.1c0.1,0,0.2,0.1,0.3,0.1
					c0.1,0.1,0.2,0.1,0.3,0.2c0.2,0.1,0.4,0.3,0.6,0.5c0.2,0.2,0.4,0.4,0.5,0.6c0.3,0.4,0.6,0.9,0.8,1.4c0.2,0.5,0.5,1,0.7,1.6
					s0.4,1.1,0.7,1.7C19.8,7.7,20,8,20.2,8.3c0.2,0.3,0.5,0.5,0.8,0.8c0.3,0.2,0.7,0.4,1,0.5c0.2,0,0.4,0.1,0.5,0.1
					c0.2,0,0.4,0,0.5,0s0.2,0,0.2,0c0.1,0,0.2,0,0.2,0c0.2,0,0.3,0,0.5-0.1c0.3,0,0.6-0.1,0.9-0.2C25.4,9.3,26,9.1,26.6,9
					c0.6-0.1,1.1-0.3,1.7-0.4c0.1,0,0.3,0,0.4-0.1c0.1,0,0.2,0,0.3,0c0.1,0,0.2,0,0.2,0s0,0,0.1,0c0,0,0,0.1,0.1,0.2
					c0,0.1,0,0.2,0,0.3s0,0.2,0,0.4v0.2v0.2c-0.1,0.6-0.2,1.2-0.2,1.8c-0.1,0.6-0.1,1.2-0.2,1.8c0,1.6,0,2.8,0,4
					c0,1.2,0.1,2.4,0.3,3.6c0.1,0.6,0.3,1.2,0.5,1.8c0.1,0.3,0.2,0.6,0.4,0.9c0.2,0.3,0.3,0.5,0.6,0.8c0.2,0.2,0.5,0.4,0.8,0.6
					c0.3,0.1,0.6,0.2,1,0.2c0.3,0,0.6-0.1,0.9-0.1c0.3-0.1,0.6-0.2,0.8-0.4c0.1,0,0.2,0,0.2,0h0.1v0.1c0,0.2-0.1,0.4-0.2,0.5
					C34.4,25.5,34.2,25.6,34.1,25.8c-0.2,0.1-0.3,0.2-0.5,0.3C33.8,26,34,25.9,34.1,25.8z M29.6,30.6c0,0.2,0,0.3,0,0.5
					c0,0.4-0.1,0.9-0.1,1.3c-0.1,0.9-0.3,1.7-0.5,2.5s-0.6,1.6-1,2.4c-0.2,0.4-0.4,0.7-0.7,1.1c-0.2,0.3-0.5,0.6-0.8,0.9
					c-0.6,0.6-1.3,1-2,1.3c-0.8,0.3-1.6,0.5-2.4,0.6c-0.2,0-0.4,0-0.6,0s-0.4,0-0.6,0s-0.4,0-0.6,0s-0.4,0-0.6-0.1
					c-0.8-0.1-1.6-0.3-2.4-0.6s-1.5-0.7-2.3-1.1c-0.7-0.4-1.4-0.9-2.1-1.5c-1.3-1.1-2.5-2.4-3.5-3.7c-1-1.4-2-2.8-2.8-4.4
					c-0.4-0.8-0.8-1.5-1.1-2.3c-0.1-0.3-0.3-0.6-0.4-1C7.1,28.3,15.9,34.8,29.6,30.6z"/>
			</g>
			<g>
				<g>
					<circle class="st18" cx="14.9" cy="20.2" r="9.3"/>
				</g>
				<g>
					<path class="st5" d="M9,13c-0.5,0.4-0.9,0.8-1.3,1.3c-0.4,0.5-0.7,1-1,1.5c-0.6,1.1-0.9,2.3-1,3.4c-0.1,1.2,0,2.4,0.4,3.5
						s1,2.2,1.7,3.1c0.8,0.9,1.7,1.6,2.7,2.2c1,0.5,2.2,0.8,3.3,0.9s2.3,0,3.4-0.4c0.5-0.2,1.1-0.4,1.6-0.7c0.5-0.3,1-0.6,1.4-0.9
						c0.9-0.7,1.6-1.6,2.2-2.6c0.3-0.5,0.5-1,0.7-1.6c0.2-0.5,0.3-1.1,0.4-1.7s0.1-1.2,0.1-1.7c0-0.6-0.1-1.2-0.3-1.7
						c-0.3-1.1-0.8-2.2-1.5-3.1c-0.7-0.9-1.6-1.7-2.6-2.3s-2.2-1-3.4-1.1s-2.4-0.1-3.6,0.3c-0.6,0.2-1.1,0.4-1.7,0.7
						C10,12.3,9.5,12.6,9,13z M9,13c0.5-0.4,1-0.7,1.5-1s1.1-0.5,1.7-0.7c1.2-0.4,2.4-0.5,3.6-0.4c0.6,0.1,1.2,0.2,1.8,0.3
						c0.6,0.2,1.2,0.4,1.7,0.7c1.1,0.6,2.1,1.3,2.9,2.3c0.8,0.9,1.4,2.1,1.8,3.3c0.4,1.2,0.5,2.5,0.4,3.8s-0.5,2.5-1.1,3.6
						c-0.3,0.6-0.7,1.1-1.1,1.6s-0.9,0.9-1.4,1.4c-0.5,0.4-1,0.8-1.6,1.1c-0.6,0.3-1.2,0.5-1.8,0.7c-1.2,0.4-2.5,0.5-3.8,0.3
						s-2.5-0.6-3.6-1.2s-2-1.5-2.8-2.5S5.9,24.2,5.6,23c-0.2-0.6-0.3-1.2-0.3-1.8c0-0.6,0-1.2,0.1-1.8c0.2-1.2,0.5-2.4,1.1-3.5
						c0.3-0.5,0.6-1,1-1.5C8.1,13.8,8.6,13.4,9,13z"/>
				</g>
			</g>
			<circle class="st2" cx="14.8" cy="20.9" r="8.1"/>
			<g>
				<circle class="st3" cx="14.5" cy="21.7" r="6.1"/>
			</g>
			<g>
				<circle class="st4" cx="14.5" cy="21.7" r="4.5"/>
			</g>
			<g>
				<circle cx="14.5" cy="21.7" r="2.7"/>
			</g>
			<g>
				<circle class="st3" cx="16" cy="19.7" r="1.2"/>
			</g>
			<g>
				<circle class="st3" cx="17.1" cy="21.7" r="0.7"/>
			</g>
			<g>
				<path class="st5" d="M22.7,20c0,0-1.7-5.4-11.5-6.2c0,0,1.8-1.5,5.3-0.8s6,4.3,6.2,6.2V20z"/>
			</g>
			<g>
				<path class="st19" d="M14.8,29.2c-4.6,0-8.4-3.8-8.4-8.4s3.8-8.4,8.4-8.4s8.4,3.8,8.4,8.4C23.2,25.5,19.5,29.2,14.8,29.2z
					 M14.8,13.1c-4.3,0-7.8,3.5-7.8,7.8s3.5,7.8,7.8,7.8s7.8-3.5,7.8-7.8S19.1,13.1,14.8,13.1z"/>
			</g>
			<g>
				<path class="st20" d="M9.6,11.3c-0.1,0-0.2-0.1-0.1-0.2c0.1-0.1,0.3-0.2,0.4-0.3c0.3-0.2,0.6-0.4,0.9-0.6c0.6-0.4,1.3-0.7,2-0.9
					c1.4-0.5,2.9-0.7,4.4-0.5c0.1,0,0.2,0,0.3,0c0.1,0,0.3,0,0.4,0.1c0.1,0,0.1,0,0.2,0L18.4,9c0.3,0,0.6,0.1,1,0.2
					c0.4,0.1,0.7,0.3,1,0.4c0.3,0.2,0.7,0.4,1,0.6c0.3,0.2,0.6,0.4,0.9,0.7l0.1,0.1l0.1,0.1c0.1,0.1,0.1,0.1,0.2,0.2l0.2,0.2
					c0.1,0.1,0.1,0.1,0.2,0.2c0.1,0.1,0.2,0.3,0.4,0.4c0.1,0.1,0.1,0.1,0.2,0.2c0.1,0.1,0.1,0.1,0.2,0.2c0.1,0.1,0.2,0.3,0.3,0.4
					l0,0c0.1,0.1-0.1,0.3-0.2,0.2l0,0L23.8,13l-0.1-0.1l-0.1-0.1c-0.1,0-0.1-0.1-0.2-0.1s-0.1-0.1-0.2-0.1s-0.1-0.1-0.2-0.1
					l-0.2-0.1c-0.1-0.1-0.3-0.2-0.4-0.2C22.3,12.1,22.1,12,22,12l-0.2-0.1l-0.2-0.1c-0.1,0-0.1-0.1-0.2-0.1l-0.2-0.1
					c-1.2-0.5-2.4-0.8-3.7-1c-1.3-0.1-2.6-0.1-3.9,0.1c-0.7,0.1-1.3,0.2-2,0.4C10.7,11,10.2,11.1,9.6,11.3z"/>
			</g>
			<g>
				<path class="st18" d="M30.8,26.4c-0.1-0.7-0.6-1.3-1.1-1.5c-0.1,0-0.2-0.1-0.3,0c-0.3,0-0.5,0.2-0.7,0.5
					c-0.1,0.3-0.2,0.7-0.1,1.1c0.1,0.7,0.6,1.3,1.1,1.5c0.1,0,0.2,0.1,0.3,0C30.6,28,31,27.3,30.8,26.4z"/>
			</g>
			<g>
				<path class="st21" d="M23.1,13.2c-0.4,0.2-0.3,1,0.2,1.7s1.1,1.1,1.5,0.9c0.4-0.2,0.3-1-0.2-1.7C24.2,13.4,23.5,13,23.1,13.2
					L23.1,13.2L23.1,13.2z"/>
			</g>
			<g>
				<path class="st21" d="M25,16.6c-0.3,0.1-0.5,0.7-0.3,1.3c0.1,0.7,0.5,1.1,0.9,1.1c0.3-0.1,0.5-0.7,0.3-1.3
					C25.7,17,25.3,16.5,25,16.6L25,16.6L25,16.6z"/>
			</g>
			<g>
				<path class="st21" d="M25.5,19.9c-0.3,0-0.5,0.5-0.5,1.2c0,0.6,0.3,1.1,0.6,1.1c0.3,0,0.5-0.5,0.5-1.2S25.8,19.8,25.5,19.9
					L25.5,19.9L25.5,19.9z"/>
			</g>
			<g>
				<path class="st21" d="M28.1,13.3c0.4,0,0.6,0.6,0.6,1.4c0,0.7-0.4,1.3-0.8,1.3s-0.6-0.6-0.6-1.4S27.8,13.2,28.1,13.3L28.1,13.3
					L28.1,13.3z"/>
			</g>
			<g>
				<path class="st21" d="M28,16.6c0.3,0,0.6,0.5,0.6,1.1s-0.2,1.1-0.5,1.1s-0.6-0.5-0.6-1.1S27.7,16.6,28,16.6L28,16.6L28,16.6z"/>
			</g>
			<g>
				<path class="st21" d="M28.3,19.8c0.3,0,0.5,0.3,0.6,0.8s-0.1,0.9-0.3,1c-0.3,0-0.5-0.3-0.6-0.8S28.1,19.8,28.3,19.8L28.3,19.8
					L28.3,19.8z"/>
			</g>
			<g>
				<path class="st18" d="M26,27.5c-0.1-0.9-0.7-1.7-1.3-2c-0.1,0-0.3-0.1-0.4-0.1c-0.3,0-0.6,0.3-0.8,0.7c-0.2,0.4-0.2,1-0.1,1.5
					c0.1,0.9,0.7,1.7,1.3,2c0.1,0,0.3,0.1,0.4,0.1C25.7,29.6,26.2,28.6,26,27.5z"/>
			</g>
			<g>
				<path class="st20" d="M32.7,15.2L32.7,15.2c0-0.2-0.1-0.3-0.1-0.5c0-0.1,0-0.1-0.1-0.2c0-0.1,0-0.1-0.1-0.2
					c0-0.1-0.1-0.3-0.1-0.4c0-0.1,0-0.1-0.1-0.2l-0.1-0.2c0-0.1-0.1-0.1-0.1-0.2v-0.1v-0.1c-0.1-0.2-0.2-0.5-0.3-0.7
					c-0.1-0.2-0.2-0.4-0.4-0.6c-0.1-0.2-0.3-0.4-0.4-0.5s-0.2-0.1-0.3-0.2c-0.1,0.4-0.2,1-0.2,1.7c0.3,0.2,0.7,0.4,1,0.8l0.1,0.1
					l0.1,0.1l0.1,0.1l0.1,0.1c0.1,0.1,0.1,0.2,0.2,0.2c0.1,0.1,0.1,0.2,0.2,0.2l0.1,0.1l0.1,0.1l0.1,0.1l0.1,0.1v0.1V15L32.7,15.2
					L32.7,15.2C32.6,15.4,32.7,15.3,32.7,15.2z"/>
			</g>
			<g>
				<path class="st19" d="M29.8,25.2c-0.2,0-0.3,0.2-0.4,0.5s0,0.6,0,0.9c0.1,0.6,0.5,1,0.8,1.1c0.1,0,0.1,0,0.2,0
					c0.4-0.1,0.5-0.7,0.3-1.4c-0.1-0.6-0.5-1-0.8-1.1C29.9,25.1,29.8,25.1,29.8,25.2L29.8,25.2L29.8,25.2z"/>
			</g>
			<g>
				<path class="st19" d="M25.9,27.1c-0.2-0.8-0.6-1.4-1-1.5c-0.1,0-0.2,0-0.3,0c-0.2,0.1-0.4,0.3-0.5,0.7c-0.1,0.4-0.1,0.8,0.1,1.3
					c0.2,0.8,0.6,1.4,1,1.5c0.1,0,0.2,0,0.3,0C25.9,28.9,26.1,28.1,25.9,27.1z"/>
			</g>
		</g>
	</g>
</g>
</svg>
