<svg xmlns="http://www.w3.org/2000/svg" xmlns:xlink="http://www.w3.org/1999/xlink" viewBox="0 0 30 30">
  <defs>
    <style>
      .cls-1 {
        fill: #f7e60f;
      }

      .cls-2 {
        fill: url(#linear-gradient);
      }
    </style>
    <linearGradient id="linear-gradient" x1="0.755" y1="0.361" x2="0.229" y2="0.381" gradientUnits="objectBoundingBox">
      <stop offset="0" stop-color="#2b8b56"/>
      <stop offset="1" stop-color="#234491"/>
    </linearGradient>
  </defs>
  <g id="replied" transform="translate(-1242 -520)">
    <circle id="Ellipse_6" data-name="Ellipse 6" class="cls-1" cx="15" cy="15" r="15" transform="translate(1272 550) rotate(180)"/>
    <path id="Path_42" data-name="Path 42" class="cls-2" d="M.2,5.531,5.535.2a.652.652,0,0,1,.934,0,.64.64,0,0,1,.2.467V3.331H9q7.427,0,9.114,4.2A9.4,9.4,0,0,1,18.67,11a12.511,12.511,0,0,1-1.324,4.7c-.022.047-.058.131-.109.248s-.1.223-.142.314a1.124,1.124,0,0,1-.135.23.36.36,0,0,1-.292.179.3.3,0,0,1-.244-.106.391.391,0,0,1-.088-.259,2.014,2.014,0,0,1,.026-.277,1.928,1.928,0,0,0,.026-.244c.036-.471.051-.9.051-1.281a8.966,8.966,0,0,0-.182-1.886,5.6,5.6,0,0,0-.5-1.441,3.655,3.655,0,0,0-.832-1.051,4.841,4.841,0,0,0-1.1-.722,5.957,5.957,0,0,0-1.386-.441,12.581,12.581,0,0,0-1.605-.223C10.289,8.7,9.68,8.676,9,8.676H6.666v2.667A.673.673,0,0,1,6,12.008a.654.654,0,0,1-.471-.2L.2,6.476A.64.64,0,0,1,0,6.009.665.665,0,0,1,.2,5.531Z" transform="translate(1247.215 526.816)"/>
  </g>
</svg>
