<svg xmlns="http://www.w3.org/2000/svg" viewBox="0 0 66.3 86">
  <defs>
    <style>
      .cls-1 {
        opacity: 0.37;
      }

      .cls-2 {
        fill: #234491;
      }

      .cls-3 {
        fill: #4080ff;
      }

      .cls-4 {
        fill: #93c152;
      }

      .cls-5 {
        fill: #2b8b56;
      }

      .cls-6 {
        fill: #f7e60f;
      }
    </style>
  </defs>
  <g id="Group_184" data-name="Group 184" class="cls-1">
    <path id="Path_476" data-name="Path 476" class="cls-2" d="M55.3,38.3l11-6.4V79.6L55.2,86Z"/>
    <path id="Path_477" data-name="Path 477" class="cls-3" d="M0,6.4,10.9,0,66.3,31.9l-11,6.4Z"/>
    <path id="Path_478" data-name="Path 478" class="cls-2" d="M55.3,38.3,55.2,86,0,54.1V6.4Z"/>
    <path id="Path_479" data-name="Path 479" class="cls-3" d="M11.3,26.9,5.4,23.5a1.05,1.05,0,0,1-.5-.9v-4a.449.449,0,0,1,.7-.4l5.9,3.4a1.05,1.05,0,0,1,.5.9v4C12,26.8,11.6,27,11.3,26.9Z"/>
    <path id="Path_480" data-name="Path 480" class="cls-4" d="M51.9,48.4,38.8,40.8V35h0l13,7.5c.1,0,.1.1.1.2v5.7Z"/>
    <path id="Path_481" data-name="Path 481" class="cls-5" d="M61.9,29.7A3.392,3.392,0,0,0,60,26.9a9.966,9.966,0,0,0-9.2,0,3.139,3.139,0,0,0-1.9,2.7h0V32a3.258,3.258,0,0,0,1.9,2.7,9.966,9.966,0,0,0,9.2,0A3.139,3.139,0,0,0,61.9,32,17.652,17.652,0,0,1,61.9,29.7Z"/>
    <path id="Path_482" data-name="Path 482" class="cls-4" d="M59.9,26.9c2.6,1.5,2.6,3.9,0,5.3a9.967,9.967,0,0,1-9.2,0c-2.6-1.5-2.6-3.9,0-5.3A10.6,10.6,0,0,1,59.9,26.9Z"/>
    <path id="Path_483" data-name="Path 483" class="cls-5" d="M49.4,24.6a2.129,2.129,0,0,0-1.2-1.7,6.354,6.354,0,0,0-5.7,0,2.129,2.129,0,0,0-1.2,1.7h0v1.5a2.129,2.129,0,0,0,1.2,1.7,6.354,6.354,0,0,0,5.7,0c.8-.5,1.2-1,1.2-1.6Z"/>
    <path id="Path_484" data-name="Path 484" class="cls-4" d="M48.2,22.9c1.6.9,1.6,2.4,0,3.3a6.354,6.354,0,0,1-5.7,0c-1.6-.9-1.6-2.4,0-3.3A6.354,6.354,0,0,1,48.2,22.9Z"/>
    <path id="Path_485" data-name="Path 485" class="cls-3" d="M14.9,29.1c2.7-1.6,6.4-1.3,10.6,1,8.2,4.7,14.8,16.2,14.8,25.7,0,4.7-1.7,8-4.3,9.5l-7.5,4.4c2.7-1.6,4.3-4.8,4.3-9.5,0-9.4-6.6-20.9-14.8-25.7-4.1-2.4-7.9-2.6-10.6-1Z"/>
    <path id="Path_486" data-name="Path 486" class="cls-5" d="M18,34.5C9.8,29.8,3.1,33.6,3.1,43,3,52.5,9.7,64,17.9,68.7s14.9.9,14.9-8.5S26.2,39.3,18,34.5Z"/>
    <path id="Path_487" data-name="Path 487" class="cls-6" d="M18,39c-6.1-3.5-11-.7-11,6.3s4.9,15.5,11,19S29,65,29,58C28.9,51,24,42.5,18,39Z"/>
    <path id="Path_488" data-name="Path 488" class="cls-2" d="M17.9,48.4c-1.5-.9-2.8-.2-2.8,1.6a5.952,5.952,0,0,0,2.8,4.8c1.5.9,2.8.2,2.8-1.6A6.1,6.1,0,0,0,17.9,48.4Z"/>
    <path id="Path_489" data-name="Path 489" class="cls-5" d="M50.6,32.2,55,30.3a.381.381,0,0,0-.3-.7l-4.6,2a.1.1,0,0,0-.1.1A2.651,2.651,0,0,0,50.6,32.2Z"/>
  </g>
</svg>
