<svg xmlns="http://www.w3.org/2000/svg" viewBox="0 0 84.5 86.084">
  <defs>
    <style>
      .cls-1 {
        fill: #77767e;
      }

      .cls-2 {
        fill: #4080ff;
      }

      .cls-3 {
        fill: #57565c;
      }

      .cls-4 {
        fill: #234491;
      }

      .cls-5 {
        fill: #f7e60f;
      }

      .cls-6 {
        fill: #93c152;
      }
    </style>
  </defs>
  <g id="Group_183" data-name="Group 183" transform="translate(0 0.009)">
    <path id="Path_413" data-name="Path 413" class="cls-1" d="M83,28.9,33.4.2A1.11,1.11,0,0,0,32.3.1l-.7.4h0a1.053,1.053,0,0,0-.4,1L31.1,35a3.531,3.531,0,0,0,1.5,2.6,3.5,3.5,0,0,0-3,0L.6,54.4a1.209,1.209,0,0,0-.6.9H0v.8a1.209,1.209,0,0,0,.6.9L50.3,85.7a3.188,3.188,0,0,0,3,0l29-16.8a1.069,1.069,0,0,0,.6-.9v-.8h0a1.209,1.209,0,0,0-.6-.9,1.228,1.228,0,0,0,1,.1h0L84,66a1.053,1.053,0,0,0,.4-1l.1-33.5A3.11,3.11,0,0,0,83,28.9Z"/>
    <g id="Group_180" data-name="Group 180">
      <path id="Path_414" data-name="Path 414" class="cls-2" d="M31.6.5l.7-.4a1.11,1.11,0,0,1,1.1.1l-.7.4C32.2.4,31.9.3,31.6.5Z"/>
      <path id="Path_415" data-name="Path 415" class="cls-3" d="M84,65.9l-.7.4a1.053,1.053,0,0,0,.4-1l.7-.4C84.4,65.5,84.3,65.8,84,65.9Z"/>
      <path id="Path_416" data-name="Path 416" class="cls-2" d="M83.8,31.9l.7-.4L84.4,65l-.7.4Z"/>
      <path id="Path_417" data-name="Path 417" class="cls-2" d="M32.7.6l.7-.4L83,28.9l-.7.4Z"/>
      <path id="Path_418" data-name="Path 418" class="cls-2" d="M82.3,29.3l.7-.4a3.362,3.362,0,0,1,1.5,2.6l-.7.4A3.11,3.11,0,0,0,82.3,29.3Z"/>
      <path id="Path_419" data-name="Path 419" class="cls-4" d="M82.3,29.3a3.362,3.362,0,0,1,1.5,2.6l-.1,33.5c0,1-.7,1.3-1.5.9L32.6,37.6A3.362,3.362,0,0,1,31.1,35l.1-33.5c0-1,.7-1.3,1.5-.9Z"/>
    </g>
    <g id="Group_181" data-name="Group 181">
      <path id="Path_420" data-name="Path 420" class="cls-4" d="M0,56.1v-.8a1.209,1.209,0,0,0,.6.9V57A1.209,1.209,0,0,1,0,56.1Z"/>
      <path id="Path_421" data-name="Path 421" class="cls-4" d="M82.9,67.1v.8a1.209,1.209,0,0,1-.6.9V68A1.069,1.069,0,0,0,82.9,67.1Z"/>
      <path id="Path_422" data-name="Path 422" class="cls-4" d="M82.3,68v.8l-29,16.8v-.8Z"/>
      <path id="Path_423" data-name="Path 423" class="cls-4" d="M50.3,84.8v.8L.6,57v-.8Z"/>
      <path id="Path_424" data-name="Path 424" class="cls-4" d="M53.3,84.8v.8a3.188,3.188,0,0,1-3,0v-.8A3.188,3.188,0,0,0,53.3,84.8Z"/>
      <path id="Path_425" data-name="Path 425" class="cls-2" d="M82.3,66.3c.8.5.8,1.3,0,1.7l-29,16.8a3.188,3.188,0,0,1-3,0L.6,56.2c-.8-.5-.8-1.3,0-1.7l29-16.8a3.187,3.187,0,0,1,3,0Z"/>
    </g>
    <g id="Group_182" data-name="Group 182">
      <path id="Path_426" data-name="Path 426" class="cls-5" d="M80.8,32.5,34.1,5.6V34.3L80.7,61.2l.1-28.7"/>
      <path id="Path_427" data-name="Path 427" class="cls-6" d="M46.3,69.1l-9-5.2-3.2,1.8,9,5.2,3.2-1.8"/>
      <path id="Path_428" data-name="Path 428" class="cls-6" d="M33.5,43.7l-4.2-2.4-3.2,1.8,4.2,2.4,3.2-1.8"/>
      <path id="Path_429" data-name="Path 429" class="cls-6" d="M38.2,46.4,34,44l-3.2,1.8,4.3,2.5,3.1-1.9"/>
      <path id="Path_430" data-name="Path 430" class="cls-6" d="M42.9,49.2l-4.2-2.5-3.2,1.8L39.8,51l3.1-1.8"/>
      <path id="Path_431" data-name="Path 431" class="cls-6" d="M47.6,51.9l-4.2-2.5-3.2,1.9,4.3,2.4,3.1-1.8"/>
      <path id="Path_432" data-name="Path 432" class="cls-6" d="M52.3,54.6l-4.2-2.4L45,54l4.2,2.4,3.1-1.8"/>
      <path id="Path_433" data-name="Path 433" class="cls-6" d="M57.1,57.3l-4.3-2.4-3.1,1.8,4.2,2.5,3.2-1.9"/>
      <path id="Path_434" data-name="Path 434" class="cls-6" d="M61.8,60l-4.3-2.4-3.1,1.8,4.2,2.5L61.8,60"/>
      <path id="Path_435" data-name="Path 435" class="cls-6" d="M66.5,62.8l-4.3-2.5-3.1,1.8,4.2,2.5,3.2-1.8"/>
      <path id="Path_436" data-name="Path 436" class="cls-6" d="M71.2,65.5,67,63l-3.2,1.9L68,67.3l3.2-1.8"/>
      <path id="Path_437" data-name="Path 437" class="cls-6" d="M75.9,68.2l-4.2-2.4-3.2,1.8L72.8,70l3.1-1.8"/>
      <path id="Path_438" data-name="Path 438" class="cls-6" d="M28.8,46.4,24.6,44l-3.2,1.8,4.3,2.5,3.1-1.9"/>
      <path id="Path_439" data-name="Path 439" class="cls-6" d="M33.5,49.2l-4.2-2.5-3.2,1.8L30.4,51l3.1-1.8"/>
      <path id="Path_440" data-name="Path 440" class="cls-6" d="M38.3,51.9,34,49.4l-3.1,1.9,4.2,2.4,3.2-1.8"/>
      <path id="Path_441" data-name="Path 441" class="cls-6" d="M43,54.6l-4.3-2.5L35.6,54l4.2,2.4L43,54.6"/>
      <path id="Path_442" data-name="Path 442" class="cls-6" d="M47.7,57.3l-4.3-2.4-3.1,1.8,4.2,2.4,3.2-1.8"/>
      <path id="Path_443" data-name="Path 443" class="cls-6" d="M52.4,60l-4.3-2.4L45,59.4l4.2,2.5L52.4,60"/>
      <path id="Path_444" data-name="Path 444" class="cls-6" d="M57.1,62.8l-4.2-2.5-3.2,1.8,4.2,2.5,3.2-1.8"/>
      <path id="Path_445" data-name="Path 445" class="cls-6" d="M61.8,65.5,57.6,63l-3.2,1.9,4.3,2.4,3.1-1.8"/>
      <path id="Path_446" data-name="Path 446" class="cls-6" d="M66.5,68.2l-4.2-2.5-3.2,1.9L63.4,70l3.1-1.8"/>
      <path id="Path_447" data-name="Path 447" class="cls-6" d="M71.2,70.9,67,68.5l-3.2,1.8,4.3,2.5,3.1-1.9"/>
      <path id="Path_448" data-name="Path 448" class="cls-6" d="M25.2,48.5,21,46.1l-3.2,1.8,4.3,2.5,3.1-1.9"/>
      <path id="Path_449" data-name="Path 449" class="cls-6" d="M29.9,51.3l-4.2-2.5-3.2,1.8,4.3,2.5,3.1-1.8"/>
      <path id="Path_450" data-name="Path 450" class="cls-6" d="M34.6,54l-4.2-2.5-3.2,1.9,4.3,2.4L34.6,54"/>
      <path id="Path_451" data-name="Path 451" class="cls-6" d="M39.3,56.7l-4.2-2.5L32,56.1l4.2,2.4,3.1-1.8"/>
      <path id="Path_452" data-name="Path 452" class="cls-6" d="M44.1,59.4,39.8,57l-3.1,1.8,4.2,2.4,3.2-1.8"/>
      <path id="Path_453" data-name="Path 453" class="cls-6" d="M48.8,62.1l-4.3-2.4-3.1,1.8L45.6,64l3.2-1.9"/>
      <path id="Path_454" data-name="Path 454" class="cls-6" d="M58.2,67.6,54,65.1,50.8,67,55,69.4l3.2-1.8"/>
      <path id="Path_455" data-name="Path 455" class="cls-6" d="M62.9,70.3l-4.2-2.4-3.2,1.8,4.3,2.4,3.1-1.8"/>
      <path id="Path_456" data-name="Path 456" class="cls-6" d="M67.6,73l-4.2-2.4-3.2,1.8,4.3,2.5L67.6,73"/>
      <path id="Path_457" data-name="Path 457" class="cls-6" d="M21.6,50.6l-4.3-2.4L14.2,50l4.2,2.5,3.2-1.9"/>
      <path id="Path_458" data-name="Path 458" class="cls-6" d="M26.3,53.4l-4.2-2.5-3.2,1.8,4.3,2.5,3.1-1.8"/>
      <path id="Path_459" data-name="Path 459" class="cls-6" d="M31,56.1l-4.2-2.5-3.2,1.9,4.3,2.4L31,56.1"/>
      <path id="Path_460" data-name="Path 460" class="cls-6" d="M35.7,58.8l-4.2-2.5-3.2,1.9,4.3,2.4,3.1-1.8"/>
      <path id="Path_461" data-name="Path 461" class="cls-6" d="M40.4,61.5l-4.2-2.4L33,60.9l4.3,2.5,3.1-1.9"/>
      <path id="Path_462" data-name="Path 462" class="cls-6" d="M45.2,64.2l-4.3-2.4-3.1,1.8L42,66.1l3.2-1.9"/>
      <path id="Path_463" data-name="Path 463" class="cls-6" d="M27.4,58.2l-4.2-2.5L20,57.6,24.3,60l3.1-1.8"/>
      <path id="Path_464" data-name="Path 464" class="cls-6" d="M32.1,60.9l-4.2-2.5-3.2,1.9L29,62.7l3.1-1.8"/>
      <path id="Path_465" data-name="Path 465" class="cls-6" d="M36.8,63.6l-4.2-2.4L29.4,63l4.3,2.5,3.1-1.9"/>
      <path id="Path_466" data-name="Path 466" class="cls-6" d="M55.7,74.5l-4.3-2.4-3.1,1.8,4.2,2.4,3.2-1.8"/>
      <path id="Path_467" data-name="Path 467" class="cls-6" d="M14.4,54.8l-4.3-2.4L7,54.2l4.2,2.5,3.2-1.9"/>
      <path id="Path_468" data-name="Path 468" class="cls-6" d="M19.1,57.6l-4.3-2.5-3.1,1.8,4.2,2.5,3.2-1.8"/>
      <path id="Path_469" data-name="Path 469" class="cls-6" d="M42.6,71.2l-4.2-2.5-3.2,1.8L39.5,73l3.1-1.8"/>
      <path id="Path_470" data-name="Path 470" class="cls-6" d="M37.9,68.4,19.5,57.8l-3.1,1.9L34.8,70.3l3.1-1.9"/>
      <path id="Path_471" data-name="Path 471" class="cls-6" d="M47.3,73.9l-4.2-2.5L40,73.3l4.2,2.4,3.1-1.8"/>
      <path id="Path_472" data-name="Path 472" class="cls-6" d="M52.1,76.6l-4.3-2.4L44.7,76l4.2,2.4,3.2-1.8"/>
      <path id="Path_473" data-name="Path 473" class="cls-6" d="M56.8,79.3l-4.3-2.4-3.1,1.8,4.2,2.5,3.2-1.9"/>
      <path id="Path_474" data-name="Path 474" class="cls-6" d="M53.5,64.9l-4.3-2.5-6.7,3.9,4.2,2.5,6.8-3.9"/>
      <path id="Path_475" data-name="Path 475" class="cls-6" d="M22.7,55.5l-9-5.2-3.1,1.8,8.9,5.2,3.2-1.8"/>
    </g>
  </g>
</svg>
