<?xml version="1.0" encoding="utf-8"?>
<!-- Generator: Adobe Illustrator 22.0.1, SVG Export Plug-In . SVG Version: 6.00 Build 0)  -->
<svg version="1.1" id="Layer_1" xmlns="http://www.w3.org/2000/svg" xmlns:xlink="http://www.w3.org/1999/xlink" x="0px" y="0px"
	 viewBox="0 0 50.5 50.5" style="enable-background:new 0 0 50.5 50.5;" xml:space="preserve">
<style type="text/css">
	.st0{fill:#F7E60F;}
	.st1{fill:#BAAD05;}
</style>
<g>
	<path class="st0" d="M25.2,49.7c-3.3,0-6.5-0.6-9.5-1.9c-2.9-1.2-5.5-3-7.8-5.2c-2.2-2.2-4-4.9-5.2-7.8c-1.3-3-1.9-6.2-1.9-9.5
		s0.6-6.5,1.9-9.5c1.2-2.9,3-5.5,5.2-7.8s4.9-4,7.8-5.2c3-1.3,6.2-1.9,9.5-1.9s6.5,0.6,9.5,1.9c2.9,1.2,5.5,3,7.8,5.2
		c2.2,2.2,4,4.9,5.2,7.8c1.3,3,1.9,6.2,1.9,9.5s-0.6,6.5-1.9,9.5c-1.2,2.9-3,5.5-5.2,7.8c-2.2,2.2-4.9,4-7.8,5.2
		C31.8,49,28.5,49.7,25.2,49.7z"/>
	<path class="st1" d="M25.2,50.2c-3.5,0-6.7-0.7-9.7-1.9c-2.8-1.2-5.5-2.9-7.9-5.3c-2.3-2.3-4.1-5-5.3-8c-1.3-3-1.9-6.2-1.9-9.7
		s0.7-6.7,1.9-9.7c1.2-2.8,2.9-5.5,5.3-7.9c2.1-2.2,4.8-4,8-5.3c3-1.3,6.2-1.9,9.7-1.9S32,1,34.9,2.3c2.8,1.2,5.5,2.9,7.9,5.3
		c2.3,2.3,4.1,5,5.3,8c1.3,3,1.9,6.2,1.9,9.7s-0.7,6.7-1.9,9.7c-1.2,2.8-2.9,5.5-5.3,7.9c-2.3,2.3-5,4.1-8,5.3
		C31.7,49.5,28.5,50.2,25.2,50.2z M25.2,1.4c-3.3,0-6.5,0.6-9.3,1.9c-3,1.3-5.6,3-7.6,5.1c-2.3,2.4-4,4.9-5.1,7.6
		c-1.2,2.9-1.9,6-1.9,9.3s0.6,6.5,1.9,9.3c1.2,2.8,2.9,5.5,5.1,7.6c2.4,2.3,4.9,4,7.6,5.1c5.5,2.4,12.2,2.6,18.6,0
		c2.8-1.2,5.5-2.9,7.6-5.1c2.3-2.4,4-4.9,5.1-7.6c1.2-2.9,1.9-6,1.9-9.3c0-3.3-0.6-6.5-1.9-9.3c-1.2-2.8-2.9-5.5-5.1-7.6
		c-2.4-2.3-4.9-4-7.6-5.1C31.7,2,28.6,1.4,25.2,1.4z"/>
</g>
<g>
	<path class="st1" d="M10.7,33.5c-0.3-0.5-0.5-0.7-0.7-0.6c-0.3,0.1,0,0.8,0.3,1.5l0.1,0.2c0.5,1.6,0.2,2.6-0.7,3.1
		c-1.6,0.9-3-0.1-3.8-1.6c-0.7-1.2-1-2.5-0.9-3.5h2c0,0.7,0,1.5,0.6,2.6c0.2,0.4,0.4,0.6,0.7,0.5s0.1-0.5-0.2-1.4l-0.2-0.1
		c-0.6-1.6-0.2-2.7,0.8-3.3c1.2-0.7,2.7-0.2,3.7,1.5c0.5,0.8,0.8,1.8,0.9,3.2l-2,0.1C11.2,35,10.9,34.2,10.7,33.5z"/>
</g>
<g>
	<path class="st1" d="M19.5,43.4c-1.1,1.9-3.3,2.5-5.3,1.3c-2-1.1-2.7-3.3-1.6-5.2s3.3-2.5,5.3-1.3C19.9,39.2,20.5,41.5,19.5,43.4z
		 M14.7,40.5c-0.5,0.8-0.2,1.7,0.6,2.2c0.8,0.5,1.7,0.2,2.2-0.6s0.2-1.7-0.6-2.2C16,39.5,15.2,39.8,14.7,40.5z M18.5,36.4
		c-0.4,0.7-1.2,0.9-1.9,0.5c-0.7-0.4-0.9-1.2-0.5-1.9s1.2-0.9,1.9-0.5S18.9,35.7,18.5,36.4z M21.4,38c-0.4,0.7-1.2,0.9-1.9,0.5
		c-0.7-0.4-0.9-1.2-0.5-1.9s1.2-0.9,1.9-0.5C21.5,36.5,21.8,37.2,21.4,38z"/>
</g>
<g>
	<path class="st1" d="M40.2,21.8l4.6-1.3l-0.7-2.2l-4.6,1.3C39.8,20.2,40,21,40.2,21.8z"/>
</g>
<g>
	<path class="st1" d="M35.9,14.1l2.4-2.1l-0.8,3.9c0.5,0.7,1,1.4,1.4,2.2l5.5-4.8l-1.5-1.7l-2.7,2.4l0.9-4.5l-1.5-1.6l-5.5,4.8
		C34.8,13.1,35.3,13.6,35.9,14.1z"/>
</g>
<g>
	<path class="st1" d="M32.9,11.8l1.9-4.1l-2.1-1l-1.9,4.1C31.5,11.1,32.2,11.6,32.9,11.8z"/>
</g>
<g>
	<path class="st1" d="M25.2,9.8c0.1,0,0.2,0,0.2,0l0.1-2h0.1l1.2,2.1c1,0.1,2,0.3,2.9,0.6l-1.7-2.6c1.2-0.2,1.8-1,1.9-2
		c0.1-1.5-0.8-2.6-2.8-2.7L23.8,3l-0.6,7C23.8,9.8,24.5,9.8,25.2,9.8z M25.8,4.9L26.8,5c0.4,0,0.8,0.2,0.7,0.6
		c0,0.4-0.4,0.5-0.8,0.5L25.6,6L25.8,4.9z"/>
</g>
<g>
	<path class="st1" d="M17.8,11.6l-0.9-2l0.5-0.2l2.4,1.4c0.8-0.3,1.7-0.6,2.6-0.8l0.3-0.1l-4.1-2.2l0.8-4.3l-2.6,1.1l-0.4,3.1
		l-0.5,0.2l-1.1-2.4l-2.1,1l3,6.5C16.5,12.4,17.2,12.1,17.8,11.6z"/>
</g>
<g>
	<path class="st1" d="M10.8,10.2l-1-0.9l-1.6,1.6l1,0.9C9.6,11.2,10.2,10.8,10.8,10.2z"/>
</g>
<g>
	<path class="st1" d="M10.8,20.1l-1.9-0.8l1.2-3.1l-1.9-0.7l-1.2,3.1l-0.7-0.3l1.3-3.4l-1.9-0.7l-2.2,5.5l6.6,2.6
		C10.2,21.5,10.4,20.8,10.8,20.1z"/>
</g>
<g>
	<path class="st1" d="M29.7,40c-0.8,0.3-1.7,0.4-2.6,0.5l-1,2.2l-1.2-2.1c-0.9,0-1.8-0.1-2.7-0.3h-0.1l3,4.6l0.1,2.6l2.3-0.1
		l-0.1-2.7l2.5-4.7H29.7z"/>
</g>
<g>
	<path class="st1" d="M35.3,42.7l-2.5-4.1c-0.7,0.4-1.4,0.7-2.1,1l3.6,6l4.9-3l-1.1-1.8L35.3,42.7z"/>
</g>
<g>
	<path class="st1" d="M44.2,33.2l-1.9,3.1l-0.7-0.4l1.8-2.9l-1.6-1l-1.8,3l-0.7-0.4l1.9-3.2l-1.5-0.9c-0.7,1.9-1.8,3.7-3.1,5.1
		l6.1,3.7l3.1-5.1L44.2,33.2z"/>
</g>
<g>
	<path class="st1" d="M45.4,20.2l1.3-0.4l-0.7-2.2L44.8,18C45,18.7,45.2,19.4,45.4,20.2z"/>
</g>
<g>
	<path class="st1" d="M35.2,7l0.7-1.4l-2.1-1L33.1,6C33.8,6.3,34.5,6.8,35.2,7z"/>
</g>
<g>
	<path class="st1" d="M14.8,13.9l-3.5-3.2l-1.6,1.7l3.5,3.2C13.7,15.1,14.2,14.4,14.8,13.9z"/>
</g>
<path class="st1" d="M31.1,32.3c2-1.7,3.3-4.2,3.3-7.1c0-5.1-4.1-9.2-9.2-9.2S16,20.2,16,25.2s4.1,9.2,9.2,9.2
	c1.1,0,2.1-0.2,3.1-0.6l4.3,3.4L31.1,32.3z"/>
</svg>
