<svg xmlns="http://www.w3.org/2000/svg" viewBox="1210.013 613.837 29.974 29.973">
  <defs>
    <style>
      .cls-1 {
        fill: #f7e60f;
      }
    </style>
  </defs>
  <g id="Group_4" data-name="Group 4" transform="translate(1210.013 613.812)">
    <path id="Path_1" data-name="Path 1" class="cls-1" d="M.486,8.828l14.109,7.025a.868.868,0,0,0,.784,0L29.488,8.828a.876.876,0,0,0,0-1.569L15.379.117a.88.88,0,0,0-.784,0L.486,7.26a.876.876,0,0,0,0,1.569Z" transform="translate(0)"/>
    <path id="Path_2" data-name="Path 2" class="cls-1" d="M29.488,335.545,25.941,333.8l-9.777,4.888a2.654,2.654,0,0,1-2.353,0L3.975,333.8.486,335.545a.876.876,0,0,0,0,1.569l14.109,7.025a.868.868,0,0,0,.784,0l14.109-7.025a.876.876,0,0,0,0-1.569Z" transform="translate(0 -314.235)"/>
    <path id="Path_3" data-name="Path 3" class="cls-1" d="M29.488,215.545,25.941,213.8l-9.777,4.888a2.654,2.654,0,0,1-2.353,0L3.975,213.8.486,215.545a.876.876,0,0,0,0,1.569l14.109,7.025a.868.868,0,0,0,.784,0l14.109-7.025a.876.876,0,0,0,0-1.569Z" transform="translate(0 -201.26)"/>
  </g>
</svg>
