<svg xmlns="http://www.w3.org/2000/svg" viewBox="0 0 4941.61 2898"><title>location_iconÇalışma Yüzeyi 1</title><g id="Layer_3" data-name="Layer 3"><path d="M4805.26,1225.34a1113.19,1113.19,0,0,0,23.29-227.61c0-497.81-323.86-901.36-723.36-901.36-189.85,0-362.59,91.19-491.63,240.27a871.12,871.12,0,0,0-220.36-28.18c-167.67,0-323.8,47.32-454.73,128.76H518.88A329.5,329.5,0,0,0,197,696.39L5.09,1574.79c-26.21,119.94,65.14,233.4,187.92,233.4h0L23.12,2585.83c-35.15,160.89,87.39,313.08,252.07,313.08H3490.46a327.34,327.34,0,0,0,319.79-257.47l79-349.76a732.19,732.19,0,0,0,295.43,61.87c405.77,0,734.72-329,734.72-734.72A731.22,731.22,0,0,0,4805.26,1225.34Z" style="fill:#ad9b15"/><path d="M4828,1126.88a1114,1114,0,0,0,23.28-227.62c0-497.8-323.86-901.35-723.36-901.35-189.85,0-362.58,91.18-491.63,240.26A871.57,871.57,0,0,0,3415.92,210c-133.69,0-260,30.09-372.13,83.56-61.25,29.22-127.95,45.21-195.81,45.21H541.6A329.48,329.48,0,0,0,219.71,597.92l-191.9,878.4c-26.2,120,65.15,233.4,187.92,233.4h0L45.85,2487.36c-35.15,160.89,87.38,313.08,252.06,313.08H3513.18A327.34,327.34,0,0,0,3833,2543l79-349.76c144.86,63.7,314.14,82.11,490,36.83,250.53-64.5,448.13-260.3,513.95-510.49C4973.57,1500.63,4932.62,1291.54,4828,1126.88Z" style="fill:#f7e60f"/><path d="M3814.43,2118c-63.12-60-40-104.81-40-104.81-41.35,43.74-58.61,84.06-69.89,118.44-12.88,39.21,2.18,83.06,37.64,104.17a76.45,76.45,0,0,0,16.85,7.58A69,69,0,0,0,3814.43,2118Z" style="fill:#ad9b15"/><path d="M3885.66,2030c-56.84,14.6-74.18-14.62-74.18-14.62,9.81,37.76,22.33,58.27,39.22,75.2,12.2,12.24,27.33,21.54,44.26,25,16,3.27,30.44,1.1,42-8.7,17.92-15.18,21.61-42.55,8.26-61.87A46.5,46.5,0,0,0,3885.66,2030Z" style="fill:#ad9b15"/></g><g id="figure_bg"><path d="M3693.57,485.91s-121-109-368-67-545,210-614,561,259,594,581,585c0,0,279,23,290-235,0,0-1-91-60-122,0,0,149,63,331-43,74.64-43.47,76-574,76-574Z" style="fill:#93c152"/><path d="M3077.57,805.91s36-1,37,5-4-43,26-44,38,26,38,26,27-55,65-14l28-18,19,10,12,8,26-8,24,15v7l30-7,24,18,10,20,27-4,13,12-5,33,20,13v19l-89,9-17-19h-33l-20-33-27,3-19-8-9,21h-25l-15-16-14,11h-33l-6,31-24,15-19-9-16-19,3-26h-31Z" style="fill:#b3dd00"/><path d="M3852.29,1220.32c-.6-1.41-1.2-2.81-1.79-4.22l-2.52-6-1.86,2.41-.39-.77c-.27-.53-.54-1-.81-1.54l-.36-.66,3.39.51-2.48-6.15c-1.45-3.62-2.87-7.25-4.31-11l-.76-1.94-2-.4a64.26,64.26,0,0,1-23.26-9.85c-14-9.25-26.41-24.1-36.9-44.11a4.53,4.53,0,0,0-5.9-2,4.42,4.42,0,0,0-2.38,5.7c7.3,18.58,19.21,36.09,32.87,48.66l-11-.28c-52-1.28-101.08-2.49-148.27-28.53-52.06-28.73-95.43-69.19-132.44-123.58,23.06-.18,44.33-2.39,51.79-3.17l.52-.06c5.92-.61,11.87-1.07,18.16-1.57,3.44-.27,7-.54,10.5-.85a8.47,8.47,0,0,0,1.76,1.43c25.55,15.78,46.13,18.79,62.93,9.21,17.62-10.06,41.78-27.2,56.85-51.72,6.5-10.57,10.13-23.33,12.21-36.6,13.7,27.67,39.41,51.8,59.12,26.82,14.57-18.46,9.08-34,4.49-57.5l.94-.12-3.25-25.84L3780.32,836l-3.72-79.38-.84-67,7.42-71.67,16.26-78.69,7.81-33.47-36.47,5.69-26.93-4.24c.35-2.15.7-4.3,1.07-6.45l.53-3.09-2.93-1.1c-5.14-1.93-10.5-4.22-15.94-6.83-1.52-13.6-6.38-36-21.93-48.07a16.9,16.9,0,0,0-16-3c-6.82,2.11-12.8,7.92-16.8,14.31,1.78-13.62,2.26-31.92-5.46-42.16a18.87,18.87,0,0,0-13.76-7.67c-14.42-1.4-30,11.42-39.09,23.41-1.25-16.64-7.36-33.73-21.48-38-14.75-4.41-28.62,5.86-38.28,19a40.84,40.84,0,0,0-4-13.71c-6-12.73-12.64-18.79-20.21-18.58-15.36.45-28,14.91-34.94,28.3-6.49-13.88-14.88-22.21-25-24.8-6.89-1.76-19.29-1.09-26.8,22.1l-3.88-.12c-5.87-11.09-13.07-17.18-21.95-18.61-7.25-1.17-17.87,1.17-27.74,18.6l-1.78.05c-4-7.49-12.28-13.42-20.34-14.24-8.71-.91-16.29,4.89-21.53,16.37-83.86,6.49-162,28.43-232.16,65.22-36.88,19.33-74.35,43.74-114.55,74.63-38.25,29.39-73.62,60.49-103.29,87.18a9.25,9.25,0,0,0-4.78,1.89c-45.65,35.11-86.92,84.62-119.36,143.2a610.57,610.57,0,0,0-64,175.35c-12.54,63.58-16.14,123.26-10.69,177.37,6.6,65.64,26.56,121.7,59.33,166.63l3.06-2.23,48.26,80.89h0l-3,2.32c32.62,42.28,78.62,72.43,119.31,96.35,46.42,27.27,97.53,50.94,151.93,70.36,61.16,21.81,126.17,34.48,188,36.62q9.69.35,19.18.34c62.59,0,119.31-10.92,168.83-32.54,75.55-33,126.42-99,136.08-176.66,7.35-59.15-9.53-115.37-45.5-154.11,16.12,5.81,31.22,10.56,45.75,14.44a36.6,36.6,0,0,0,4.73.91l67.1,8.26a30.69,30.69,0,0,0,11.76-.86c4.3-1.15,9.78-2.39,15.57-3.69,27.65-6.22,49.21-11.78,54.43-21.83a10.36,10.36,0,0,0,1.12-3.54,13.57,13.57,0,0,0,3.64,6,10.38,10.38,0,0,0,8.92,2.47c5.38-.81,9.8-5,12.7-9.75,4.5,10.33,11.42,10.68,15.54,9.76,4.45-1,7.46-4.47,9.58-7.38a30.92,30.92,0,0,0,3.63-6.39h.2c3.8,16,11.48,18.33,17.43,17.38,4.06-.66,7.75-3.19,11-7.53a48.28,48.28,0,0,0,4.2-6.63c2,4.35,3.77,8.1,5.6,11.61,1.52,2.93,3.82,7.37,8.56,8.8a8.55,8.55,0,0,0,7.87-1.66l2.4-1.78ZM3676.4,761.16l1.36-.24.89-.14h0c22.91-3,30.78,15.34,33.38,31,2.79,51.53,4.24,106.3-3.33,158.73-3.19,22.13-11.36,37.92-27.31,52.81a203.6,203.6,0,0,1-19.06,15.08c-2.44,1.78-5,3.61-7.42,5.47-9.75,7.36-20.9,8.52-34.52,3.46,13.23-2.46,28-6.79,41.29-15.58,14.47-9.6,24.54-25.51,28.34-44.8,4-20.32.17-41.64-10.31-57.09a4,4,0,0,0-6.75,4.17,63,63,0,0,1,1.89,56.46,69.06,69.06,0,0,1-47.1,38.86c-13.06,3-27.24,3.75-40.94,4.48-8,.42-16.23.86-24.2,1.73-2.33.26-5.22.63-8.56,1-24.28,3.07-81.13,10.26-99.51-6.2a16.78,16.78,0,0,1-5.73-13.49,6.16,6.16,0,0,0-4.8-6,5.89,5.89,0,0,0-6.79,3.07c-4.49,9-4.79,16.81-.87,23.34,7,11.72,26.87,18,60.62,19.1a181.94,181.94,0,0,0,9.28,19.43c-21.76,16.92-43.4,8.35-65.14,21.25-16.81,12.48-17.86,42.3-47.82,55.16-29.89-14.13-60-30.5-84.56-54.12-38.42-37-41.74-87.11-25.36-115.52,17.14-29.72,61.11-38.3,87.38-43.43,24.35-4.76,49.7-7.12,74.22-9.42,7.32-.68,14.88-1.39,22.3-2.15,9.33-1,19.16-1.56,28.66-2.15,28.25-1.75,57.46-3.56,83.64-14.52,12.88-5.39,25.71-12.77,32.33-30.12.2-.54.41-1.1.6-1.67h0C3620.28,840.79,3638.84,768.79,3676.4,761.16Zm-272.73,521.62c-30-16.13-72.05-13.43-97.16,5.74-25.49-18.12-29.34-44.65-56.54-58.73,36.47-43.1,97.13-49.85,150-49C3380.66,1217,3416.63,1250.19,3403.67,1282.78ZM3377.23,1354c17.09-3.61,21.82-30.37,22.14-50.3a77.16,77.16,0,0,1,29.14,38.29c7.64,22.8,1.65,44.55-16.41,59.66-10.67,8.92-24.38,15.36-40.36,19.09-10.3-12.49-13.23-29.45-15.91-40.06a46.58,46.58,0,0,0,13.31-10.61C3374.47,1364,3376.69,1358.55,3377.23,1354Zm-10.49-191.88c-56.14,3.05-99.2,20.38-128.1,51.56-5.42-11.39-15.81-18.87-29.3-20.84a49,49,0,0,0-7.05-.51c-13.7,0-27.21,5.65-36.05,15.06a153.83,153.83,0,0,0-13.17-26.45c16.78-1.08,34.63-8.07,50-19.74,8.2-6.21,13.41-15.73,18.45-24.94,6.26-11.43,12.18-22.24,22.79-24.29,3.72.24,6.72.47,9.38.7a6.16,6.16,0,0,0,1.92-.09c2.37.75,6,3.59,9.56,6.34,6.65,5.17,14.19,11,21.37,9.85,4-.66,5.57-1.92,7.87-3.83l.83-.68c2.38-1.93,4.16-1.16,9.48,2.73,1.11.82,2.27,1.66,3.47,2.43,15.26,9.79,33.09,19,52.63,5.15,17.89,9.58,36,17.85,53.48,25.87l3.39,1.55A436.07,436.07,0,0,0,3366.74,1162.12Zm-193.13,65.74c6.11-7.69,11.57-14.3,21.48-18.1,6.93-2.67,13.5-2.32,19,1,6.87,4.17,11.64,12.64,12.77,22.67,1.54,13.66-4.41,28.81-16.76,42.67a97.09,97.09,0,0,1-32.19,23.67C3185,1282.32,3183.55,1258.64,3173.61,1227.86Zm-35.68-114.55-.52-2.41a4.94,4.94,0,0,0-5.7-3.81,4.86,4.86,0,0,0-4.2,5.28,216.57,216.57,0,0,1,1,28.21,79.46,79.46,0,0,1-1.35,11.17l-.13-.12c-11.15-10.7-21.7-20.82-28.63-34.67,4.19-28.2-2.05-58-8.08-86.92-1.73-8.29-3.36-16.12-4.74-23.84-.89-5-1.8-10.22-2.78-16,14,10.23,28.2,13.88,43.13,11.15a4.55,4.55,0,0,0-1-9h-.72c-18.31,0-34-14.61-45.74-27.74l-.32-1.88c-1.86-11.17-3.78-22.71-5.76-34.07a356.72,356.72,0,0,0,10.71-64.38,37.27,37.27,0,0,0,22.25,2.75,45.48,45.48,0,0,0,20.13,46.51,25.82,25.82,0,0,0,20.83,3.29c12.06-3.18,21.38-13.71,26.08-22.5a53.67,53.67,0,0,0,6.14-23.82c13,6.19,29.26,3.62,38.85-6.76,5.51,7.13,14.28,11,25.28,11h.27c13-.07,23.82-8.1,29.35-21.1a26.63,26.63,0,0,0,4.89,4.83c10.12,7.67,22.12,7,31.75,2.35a45.85,45.85,0,0,0,.31,9.88,28.14,28.14,0,0,0,14.39,20.7,39.72,39.72,0,0,0,33.69,2.15,31.88,31.88,0,0,0,5.57-3,23.07,23.07,0,0,0,2.36,4.51,27.82,27.82,0,0,0,5.42,6c-31.88,6.09-56.32,15.27-74.51,27.94-26.86,18.72-39.59,45.12-37.82,78.47,3.13,58.91,47.06,94.31,83.8,116.46-6.35.45-12.67-.87-20.62-5.3a48.4,48.4,0,0,1-5.71-4.28c-1.13-.92-2.31-1.88-3.51-2.82-18.94-18.63-39.82-37.33-60.39-54.1-14.34-11.69-32.46-17.37-50-22.86-6.05-1.9-11.76-3.69-17.29-5.71a4.26,4.26,0,0,0-3.31,7.84c5.3,2.48,10.71,4.85,15.95,7.15,18.39,8.05,35.76,15.65,50.56,28.6,6.48,5.67,12.61,12,18.53,18.08,6.15,6.33,12.46,12.83,19.3,18.76-1.65,1.07-1.92,1.14-2.46,1-1.53-.3-4.32-2.15-8.3-5.51-9.11-7.7-20.15-9.69-28.75-10.57a25.28,25.28,0,0,0-11.11,1.29c-5.2-.69-10.46-1.18-15.56-1.66a249,249,0,0,1-25.21-3.23c-18.19-3.63-34.86-12.78-51-21.62-2.82-1.54-5.63-3.09-8.45-4.6a4.36,4.36,0,0,0-4.47,7.47l5.84,3.94c14.55,9.84,29.6,20,46.67,26.77,11.06,4.39,23.46,6.35,34.91,7.47a102.19,102.19,0,0,0-7.57,13.2c-13,26.16-37.82,44-65.23,46.81-1.24-1.46-2.54-2.93-3.93-4.44C3145.7,1149.3,3141.23,1128.6,3137.93,1113.31Zm-198-255,.95-4.68,0,0a278.82,278.82,0,0,1,13-45c11.84-30.16,25.93-50.52,43.08-62.23,7.79-5.33,16.13-6.71,24.78-4.09,16.18,4.9,29.71,22.39,35.43,36.58,12.81,31.71,11.85,69.5,7.1,107.18-1.83-8.88-3.69-17.27-5.59-25.31a4.07,4.07,0,0,0-8,1.1c.62,16.64,2.05,33.32,4,49.93-32.32,6.62-48.17,41.53-85.88,45.13-.63-12-1.62-23.93-2.6-35.74-2.85-34.28-5.79-69.74.63-104.07a4.3,4.3,0,0,0-3.2-5,4.21,4.21,0,0,0-5.06,2.89c-8.12,26.35-10.18,53.08-10.17,80.24l-.16,3h0a62.94,62.94,0,0,1-8.15-39.94ZM2962,1042.26c.53-2.24,1.07-4.5,1.6-6.78,4.86-20.78,6.09-41.82,5.7-62.76,30.78,15.82,65.55.89,96.46,15.68.13.82.27,1.65.4,2.47l.44,2.73c4.05,25,7.58,50.3,10.92,75.17-44.67-21.63-82.53,25.17-116-24.3C2961.69,1043.74,2961.87,1043,2962,1042.26Zm119.62-231c1.13,0,2.24-.09,3.34-.16,1.27-.08,2.43-.17,3.66-.16h0a29.23,29.23,0,0,1,14.22,3.89c6,3.38,10.21,10,11.61,18.11a18.43,18.43,0,0,1-5.7,17c-5.61,4.88-14.34,2.19-22-.18-1-.3-1.92-.59-2.83-.85l-.16,0A246.67,246.67,0,0,0,3081.66,811.21Zm368.77,39.31c-4.12,9.88-14.9,14.8-24.08,11s-13.29-14.94-9.17-24.82,14.89-14.81,24.07-11S3454.54,840.63,3450.43,850.52Zm17.08,40.24-6.64.47c-13.45.95-27.3,1.93-41,3.2,4.36-8.35,11.31-17.27,22.07-21.24a18.17,18.17,0,0,1,6.23-1.21C3455.7,872,3461.78,878,3467.51,890.76Zm-60.56.62c-10.26,7.17-24,5.25-30.62-4.28s-3.73-23.06,6.53-30.22,24-5.24,30.62,4.29S3417.2,884.22,3407,891.38Zm-3.59-60.18c-7,9.78-21.94,11.09-33.31,2.92s-14.88-22.72-7.85-32.5,21.94-11.09,33.31-2.92S3410.39,821.42,3403.36,831.2Zm-37.94,28.92c-2.35,14.75-14.25,25.12-26.6,23.16s-20.45-15.51-18.11-30.26,14.25-25.12,26.6-23.16S3367.76,845.37,3365.42,860.12Zm-14.54-51.23c-4.17,10-17.4,14-29.55,9s-18.62-17.28-14.45-27.3,17.4-14,29.55-9S3355.05,798.87,3350.88,808.89Zm-34.22,28.47c-1.7,10.72-12.44,17.92-24,16.09s-19.52-12-17.82-22.73,12.44-17.92,24-16.09S3318.36,826.64,3316.66,837.36Zm-26.21-45.19c-2,12.33-11.91,21-22.24,19.36s-17.1-13-15.14-25.3,11.91-21,22.24-19.37S3292.41,779.83,3290.45,792.17Zm-24,49c-2.35,14.75-14.25,25.12-26.6,23.16s-20.45-15.51-18.11-30.26,14.25-25.12,26.6-23.16S3268.76,826.37,3266.42,841.12Zm-43.86-31.5c-13.89,5.61-28.76,1.22-33.22-9.81s3.19-24.52,17.08-30.13,28.76-1.22,33.22,9.81S3236.45,804,3222.56,809.62Zm-13.46,19.81c6.73,11.65,3.94,25.86-6.23,31.73s-23.88,1.19-30.61-10.47-3.93-25.86,6.24-31.73S3202.38,817.77,3209.1,829.43Zm-49.28-7.55c-11.48,6.63-26.94,1.34-34.53-11.81s-4.45-29.18,7-35.81,26.94-1.34,34.53,11.81S3171.3,815.25,3159.82,821.88Zm-19.25,15c13.26,0,24,14.55,24,32.5s-10.74,32.5-24,32.5-24-14.55-24-32.5S3127.32,836.91,3140.57,836.91ZM2879.89,667.25q11.09-11.44,22.84-22.57a8.86,8.86,0,0,0,2.51-4.06c19.88-14.9,39.64-30.5,58.76-45.59l11.27-8.9,24.63-10.41s10.69,50.35,50.73,58.7S3070,716.78,3080,718.87s63.39-28.57,67.56-48.58,3.55-67.14-51.49-78.62c-42.75-8.9-2.1-74.27,18.21-103q7.26-4.08,14.63-8c38.71-20.29,80.64-35.47,126.43-45.74-3,6.26-7.19,23.44,27.14,38.95,42.95,19.39,15.84,149.5,10.63,174.52s21.89,20.23,41.9,24.4,55.26-14.59,54.23-134.9c-.71-82.49,28.11-109.87,46.3-118.94a666.66,666.66,0,0,1,90.6,8.11c45.69,7.49,86.61,20.24,121.7,37.88-28.86,26.39-76.53,101.62-58.59,137.94,18.57,47.12,108,28.75,74.7,108.53-19,46.93-94.24,37.15-122.74,93.44-8.88,21.88-5.56,56.09-9,79.65-17.16,2.44-34.45,4-49.63,5.14-4.25-15.53-14.17-26.62-26.6-30.06a37.34,37.34,0,0,0,5.69-15.64c1.2-12-4.29-26.71-17.08-32.12a29.32,29.32,0,0,0-4.81-1.89,29.65,29.65,0,0,0-22.44,2.46c.45-12.73-9.77-25.38-25.14-29.87-13.18-3.86-26.41-.62-34,7.3-2.33-11.68-13.56-21.71-28.38-24.06-11-1.74-21.37,1.13-28.4,7-4-13.52-18.88-21.75-34.35-18.57a31.28,31.28,0,0,0-20.3,13.8c-.2.24-.41.47-.61.72a31,31,0,0,0-20.12-12.32c-15.87-2.78-36.47,6.85-46.86,21-.13-.19-.27-.36-.39-.55-7.17-12.84-23.18-20-39.72-16.62-19.81,4.09-32.92,21.84-29.52,39.8-8.22-4.42-21.13-8.41-30.91-5.28a168.17,168.17,0,0,0-7.94-25.74,74.77,74.77,0,0,0-45.6-42.68c-18-5.87-38.22,2.84-56.93,24.52-36.74,42.53-44.44,99-51.89,153.52-1.94,14.18-3.77,27.58-6.1,40.78-.88,5-1.93,10-3.11,14.91-11.44-3.13-30.87-10.3-34.37-17.38-23.37-28.34,4.89-37.6-4.37-65.86-4.63-14.14-37.43-37.81-37.39-47.22C2831.21,788.76,2962.38,726.84,2879.89,667.25Zm65.83,731.87c-8.2,12.16-33.54,22-49.4,33.58q-9.08-6-18-12.32a363.17,363.17,0,0,1-55.7-47.86l27.25-8.23c24-7.27,47.63-14.87,67.58-21.35,17-5.51,34.41-10.68,51.59-15.68C2964.1,1345.7,2956.82,1384.47,2945.72,1399.12Zm21.67-173.59c-12.56,3.66-24.42,7.12-37.61,7.6l-3.65.12c-1.72,0-3.49.1-5.25.18a61.65,61.65,0,0,1-8.48-8.29c-4.88-6-9.41-12-13.46-17.82a4.26,4.26,0,0,0-7.4,4.17c.59,1.32,1.19,2.68,1.81,4.09,2.92,6.68,6.16,14.07,10.68,20.37a35.57,35.57,0,0,0-11.82,6.26,50.54,50.54,0,0,1-12.12,7.19c-25.1-36.91-24.5-81.56-23.92-124.76,0-3,.08-6.08.12-9.14a4.17,4.17,0,0,0-8.32-.31c-.34,4.34-.72,8.78-1.11,13.28-3.63,42.17-7.73,89.73,17.62,125.56-2.28.49-4.59.94-7,1.4-3.28.64-6.65,1.29-10.05,2.07-21.57-31.9-29-73-22.18-122.21a4.07,4.07,0,0,0-8-1.38c-10.45,49.79-5,92.72,16.17,127.7-2.83,1-5.82,2.08-9.16,3.36-1-2.56-2-5.09-3-7.56-1.62-4-3.3-8.05-4.56-12.1a128.29,128.29,0,0,1-6.15-36.12,4.22,4.22,0,0,0-4-4.18,4.31,4.31,0,0,0-4.48,3.82c-2.53,22.72.42,45.44,7.91,61.83-8.38,3.39-17,6.85-25.69,9.66-5,1.62-10.34,3.32-16.55,5.28-21.78-39.81-38.91-87-49.61-136.59a291.09,291.09,0,0,1-6.58-53.16c21.6-7.36,38.41-38.25,38.56-69.22,49.75,4.77,68.7,74.67,129,30-.62,2.87-1.2,5.76-1.72,8.65-6.2,34.63-1.95,70.23,2.15,104.66.37,3.14.75,6.26,1.11,9.36a5.43,5.43,0,0,0,6,4.8,5,5,0,0,0,4.61-5.48c-2.29-31.95-4-60.78-1.51-90.26,2.08-24.79,9.45-47.4,17.46-71.13a25,25,0,0,0,18.82-3.22c24-14.67,15.21-44.73-.24-64.47,2.61-14.26,4.61-28.58,6.58-42.65q.67-4.83,1.36-9.68A116.43,116.43,0,0,0,2949.92,949c1.11,31.31,1.46,64.52-6.45,96.63-6.5,26.44-13.87,56.42-.83,86.48,4.58,10.54,11.29,20.2,17.78,29.55,3.43,4.94,7,10,10.07,15.11,3.52,5.76,5.58,12.18,7.75,19,2.66,8.29,5.4,16.84,11,24.06C2981.73,1221.34,2974.46,1223.46,2967.39,1225.53Zm34.94-8.94c0-.24-.08-.47-.13-.7-5.38-22.14-13.3-40.9-26.45-62.27,35,24.08,81.58,5.65,112.14-21.82,5.18,14.13,16.85,24.87,28.21,35.32,2.88,2.65,5.86,5.39,8.66,8.13a5.93,5.93,0,0,0,1.72,2.8,5.86,5.86,0,0,0,2.31,1.29,73.65,73.65,0,0,1,8.93,11.21,170.39,170.39,0,0,1,18.18,39.62,6.33,6.33,0,0,0,1.32,4.41,159,159,0,0,1,6.27,39.18c.33,11.42-2,26.76-15.22,34.91-21.12,13.09-38.95-3.56-55.41-21.73a283.86,283.86,0,0,0-47.48-41.4,128.36,128.36,0,0,0-15.56-8.71C3018.83,1231.3,3007.48,1225.58,3002.33,1216.59Zm197.52,336.21c-51.29-7.18-103.49-21.27-155.56-42q-15.54-6.19-30.93-13.14c18.92-30.19,73.41-28.84,77.91-50.75,9.64-47-20.09-44.11-41.79-108.36-3.79-11.26-11.19-21.08-18.79-29.39,15-4.62,30-9.47,44.63-14.75,3.06,3.11,6.1,6.34,9,9.61,13.84,15.32,27.34,27.86,52.67,26a46,46,0,0,0,30.68-14.45,54.77,54.77,0,0,0,19.62-3.23c-3.29,20.58-.75,39.94,7.59,57.66s22.53,33.42,41.17,45.71a160.92,160.92,0,0,0,32.27,16.24C3255.37,1475.33,3212.68,1505.7,3199.85,1552.8Zm116.7-129.38a209.44,209.44,0,0,1-41.19-8.51c-52.35-16.56-80.89-58.19-74.84-108.89,13.59-8.31,25.07-21,32.65-35.21,15.61,21.38,34.5,35.74,59.17,33.45-7.12,12.17-10.93,30.77,2.8,56.19a47.73,47.73,0,0,0,30.38,24C3320.52,1397.59,3319.19,1410.3,3316.55,1423.42Zm12.56-56.37c-11.4-4.26-19.65-17-23.58-27.52-4.12-11-3.28-20.66,2.5-28.55,9-12.24,28.56-18.82,46.29-19.94.51,13.88,17.85,28.15,10.9,41.91-7.59-4.69-17.51-7.21-26.15-7.63a7.51,7.51,0,0,0-6.93,3.48,8.72,8.72,0,0,0-.29,8.62,7.84,7.84,0,0,0,6.87,4.21c5.64.17,17.37.54,21.29,5.27.75.9,1.69,2.47,1.19,5.64-.65,4.14-4.94,8.39-12.74,12.65C3341.9,1368.76,3335.39,1369.39,3329.11,1367.05Zm71.28,178.11c-8.73,2.3-17.54,4.23-26.34,5.87-4.92-23.81,12.77-44.69-1.37-72.77-8.3-16.47-21.73-27.84-32.19-34.76,30.89-1.08,59.23-9.94,80.72-25.37a71.68,71.68,0,0,0,13.25-12.28c47,4.6,51.74,70.3,101.31,49.86C3507.42,1498.91,3461.91,1529,3400.39,1545.16Zm170.33-206.81c-22.31,37.31-88.27,4.14-121,13.59a92.3,92.3,0,0,0-22.67-50.47c30.26-23.5,11.12-80.22,58.53-103.61a150,150,0,0,1,46,33.72C3559.06,1261.41,3570.66,1299.66,3570.72,1338.35Zm22.22-125.23c-18.52-5-36.35-11.93-50.73-17.51l-5-1.95c-24.89-9.61-49.84-19.78-75.33-30.71,10.61-33.49,32.59-62.45,62.36-79.81q32.21,41.86,90.37,79.23C3613.52,1181.37,3606.29,1200,3592.94,1213.12Zm42.71,6.76a65.68,65.68,0,0,0,8.53-40.32,219.62,219.62,0,0,0,42.77,15.71C3676.91,1212,3660,1220.11,3635.65,1219.88Z" style="fill:#2b8b56"/></g><g id="dal"><path d="M3165.08,1214.94c16.1-24.62,62.34-27.4,72.16,5.67a2.76,2.76,0,0,1,.08.27c32.09-38,80.79-52.33,129.63-55,24-1.29,48.85-1.38,73,2.21-2.39-1.12-4.78-2.22-7.15-3.34-22.26-10.4-47.81-21.43-72.26-34.68-17.59,13.78-33.66,6.8-50.27-3.86-5.79-3.71-11.22-9.92-17.38-4.9-2.8,2.28-3.51,3.15-6.93,3.71-9.35,1.53-22.06-14.4-29.77-16.24l-.68-.15a2.45,2.45,0,0,1-1.39.26c-3.25-.29-6.59-.53-10-.75-21.89,3.72-25.37,36.44-43.3,50-15.18,11.52-35.43,19.9-54.94,19.07,8.23,10.79,14.06,24,18.82,36.62C3164.82,1214.23,3165,1214.58,3165.08,1214.94Z" style="fill:#1b4c14"/><path d="M2991.75,1221.17l-530.21,166.64,56.59,132.38a6.17,6.17,0,0,0,8.14,3.23l555.49-242.6" style="fill:#1b4c14"/></g><g id="benim_firsatim"><path d="M799.94,759.61,768.52,890.74q-16.39,66.94-38.24,90.16-27.36,30.06-92.9,32.78c0-1.81-.46.48-1.36,6.83q82,9.57,82,82,0,21.86-13.66,83.32l-24.59,110.64Q647,1441.25,618.26,1478.12q-34.15,45.08-132.5,45.08H344.68c-56.41,0-98.17-52.47-85.49-107.44L457.07,557.44H615.53q92.88,0,133.87,16.39Q815,601.17,812.23,679,810.85,711.79,799.94,759.61ZM565,1260.93,578.65,1194a236.29,236.29,0,0,0,12.29-75.13q0-50.53-53.27-50.55h-72.4L387.41,1407.1q97,0,118.15-10.93T539,1357.92Q551.33,1330.61,565,1260.93Zm-6.84-591.48L489.86,965.88q101.07,1.36,126.35-19.14t49.86-127l15-65.56q8.2-34.14,5.47-49.19-4.09-23.21-27.32-29.36T558.15,669.45Z" style="fill:#2b8b56"/><path d="M1141.44,1082H976.15L901,1405.73h209L1082.7,1523.2H810a51.47,51.47,0,0,1-50.16-63L968,558.8H1278l-26,113.38H1070.4l-68.29,295.06h166.65Z" style="fill:#2b8b56"/><path d="M1693.29,558.8H1809.4l-229.49,964.4h0a133.15,133.15,0,0,1-133.13-131.12l-8.93-588.76L1294.41,1523.2h0c-62.16,0-108.12-57.87-94.06-118.41l196.52-846h129.77L1540.3,1276Z" style="fill:#2b8b56"/><path d="M1937.81,558.8h125.67l-222.67,964.4h0c-64.28,0-111.85-59.8-97.39-122.44Z" style="fill:#2b8b56"/><path d="M653.78,2146.84H465.27l-103.82,448H318.72a68.17,68.17,0,0,1-66.43-83.48L455.7,1629.12H791.75l-27.32,116.11H556.79L491.22,2032.1H679.73Z" style="fill:#2b8b56"/><path d="M884.62,1630.49h125.67l-222.66,964.4h-10.5c-58.91,0-102.51-54.81-89.26-112.22Z" style="fill:#2b8b56"/><path d="M1380.48,2279.34l-21.86,90.16q-28.69,121.59-27.32,225.39h-45.7c-47.5,0-84.94-41-80-88.27,0-.17,0-.35,0-.52a981.16,981.16,0,0,1,20.5-128.4l16.39-71q12.29-54.61,12.3-82,0-49.18-32.79-64.2-19.14-9.54-75.13-9.56l-102.45,443.95H1028c-56.6,0-98.49-52.65-85.77-107.8l197.8-858h199.43q53.28,0,88.79,16.39,62.82,28.7,62.84,105.19,0,34.15-9.56,75.13l-28.68,124.3q-20.49,88.81-49.18,120.21t-90.16,30a28.9,28.9,0,0,1-.68,4.78,9.54,9.54,0,0,1-2,4.79q77.87,21.86,77.86,105.18Q1388.67,2245.2,1380.48,2279.34ZM1334,1936.47l20.49-82q0,1.38,4.78-25.27t4.78-40.29q-1.38-31.41-25.95-39.62-19.16-5.43-98.35-5.46l-68.31,300.52q88.8,0,113.39-13.66Q1314.88,2011.61,1334,1936.47Z" style="fill:#2b8b56"/><path d="M1947.36,1819l-30,133.87H1803.93L1834,1823.1q9.54-41,9.56-54.65,0-50.52-49.18-50.54-43.72,0-61.47,60.11-27.35,94.24-27.32,135.23a126.11,126.11,0,0,0,10.93,51.91q8.21,17.77,56,103.81,38.22,69.68,47.81,90.16,20.49,49.17,20.48,98.36,0,107.93-42.34,218.56-50.55,131.13-189.88,131.14-161.19,0-161.19-142.07,0-30,13.66-91.53l6.41-28.65A127.56,127.56,0,0,1,1592,2245.19h12.54L1571.72,2390q-9.59,42.38-9.57,58.74,0,28.7,13.66,43.72t42.35,15q49.17,0,69.66-79.22,25.93-99.7,26-157.09a129.93,129.93,0,0,0-10.93-53.28q-9.57-20.49-57.37-102.45-64.23-107.89-64.21-170.75,0-34.12,12.3-99.72,16.4-92.86,43.71-138,51.9-88.77,169.38-88.79,151.64,0,151.63,127Q1958.29,1769.83,1947.36,1819Z" style="fill:#2b8b56"/><path d="M2170,2413.21H2017l-71,181.68h0c-58.87,0-99.1-59.47-77.2-114.11l340.84-850.29h157.09l-98.35,964.4h-16.72a92.82,92.82,0,0,1-92-105.27Zm-110.64-110.64H2185l61.47-502.7Z" style="fill:#2b8b56"/><path d="M2618.36,2182.52l-94.81,412.37h-8c-63,0-109.64-58.58-95.52-120l167.76-729.69H2443l26.57-116.11h416.63l-9.85,43a94.06,94.06,0,0,1-91.69,73.08h-65.73l-100.53,437.29" style="fill:#2b8b56"/><path d="M2959.29,1630.49H3085l-222.67,964.4h0c-64.28,0-111.86-59.81-97.39-122.44Z" style="fill:#2b8b56"/><path d="M2736.91,558.8l-215.83,964.4h0c-60.13,0-104.65-55.89-91.2-114.5l154-670.95L2295.69,1523.2h0a92,92,0,0,1-91.64-100.64l64.32-684.81L2086.69,1523.2h0c-59.85,0-103.91-56-89.82-114.17L2202.8,558.8H2364l-56,700.76L2570.26,558.8Z" style="fill:#2b8b56"/><path d="M3758.4,1630.49l-215.83,964.4h0c-60.12,0-104.64-55.9-91.19-114.5l154-671-288.23,785.46h0a92,92,0,0,1-91.63-100.64l64.31-684.82-181.68,785.46h0c-59.84,0-103.91-56-89.82-114.18l205.93-850.22h161.2l-56,700.76,262.27-700.76Z" style="fill:#2b8b56"/><path d="M2082,475.53l8.44-36.56a38.52,38.52,0,0,0-37.54-47.19h-46.58a38.54,38.54,0,0,0-37.55,29.86l-8.44,36.55a38.54,38.54,0,0,0,37.55,47.2h46.58A38.52,38.52,0,0,0,2082,475.53Z" style="fill:#2b8b56"/><path d="M2736.91,558.8l-215.83,964.4h0c-60.13,0-104.65-55.89-91.2-114.5l154-670.95L2295.69,1523.2h0a92,92,0,0,1-91.64-100.64l64.32-684.81L2086.69,1523.2h0c-59.85,0-103.91-56-89.82-114.17L2202.8,558.8H2364l-56,700.76L2570.26,558.8Z" style="fill:#2b8b56"/></g><g id="kafa"><path d="M4103.88,922.94l0,0,0,0Z" style="fill:#319960;opacity:0.409999996423721"/><path d="M4103.7,923h0l.06,0Z" style="fill:#319960;opacity:0.409999996423721"/><path d="M4102.11,927.42h0a3.51,3.51,0,0,1-.13.49l1.66-1.29-1.51.8Z" style="fill:#319960;opacity:0.409999996423721"/><path d="M4159.7,939.59a.64.64,0,0,1-.08.14l.17-.13a.14.14,0,0,1-.09,0Z" style="fill:#319960;opacity:0.409999996423721"/><path d="M4148.19,947.77a.39.39,0,0,0,.08.1l1.24-.88c0-.12,0-.24,0-.36l-1.28,1.14Z" style="fill:#319960;opacity:0.409999996423721"/><path d="M4089,956.45h.06l.15-.17-.21.17Z" style="fill:#319960;opacity:0.409999996423721"/><path d="M3876.15,618.58l-.19.9c.42-.94.83-1.87,1.26-2.8a3.08,3.08,0,0,1-.6-.14c-.16.68-.31,1.36-.47,2Z" style="fill:#319960;opacity:0.409999996423721"/><ellipse cx="4484.2" cy="713.95" rx="145.85" ry="225.63" transform="translate(-46.92 1008.41) rotate(-12.76)" style="fill:#ddd"/><ellipse cx="4513.26" cy="686.5" rx="101.59" ry="133.61" transform="translate(-49.19 844.19) rotate(-10.63)" style="fill:#fff"/><circle cx="4506.92" cy="682.49" r="93.63" style="fill:#4bbcdb"/><circle cx="4506.92" cy="682.49" r="56.81"/><circle cx="4539.71" cy="638.35" r="21.21" style="fill:#fff"/><circle cx="4561.61" cy="673.28" r="11.9" style="fill:#fff"/><path d="M4655.28,883.27,4645,845.72l-4-11.92s11.69-9.16,9.35-22.87-25.86,1.14-25.86,1.14-42.42,17.41-58.55,4.3-62.48-45.62-73.05-167.82,5.69-262.85,5.69-262.85l-13.08-61.62-92.35,21.35-119.87,24.28-54.74-26.95-77.46-150.35-74.85-52-71.06,34.23L3924,283.18l-17.07,43.94L3822,362,3735.78,438c-21.2,78-34.05,169.7-11.4,246.65,0,0-97.66,200.38,53.32,503.07l23.45-6,201.23,136.26,181.48,80.11,188.41,2.06,109.87-54.94,59.93-90.76,19.65-102.79-4.25-96.56-29.3-82.54c39.58-13,75.82-29,106.44-48.71ZM4058.23,488c129.52-5.7,239.14,94.66,244.84,224.18s-94.65,239.13-224.17,244.84-239.13-94.66-244.84-224.17S3928.72,493.74,4058.23,488ZM4400,1285c-139.92,78.73-389.46,22.35-533.33-223.55,0,0-85.17-129.27-79-184.83,0,0,113.65,109,273.58,131.34,120.78,16.85,303.71,13.22,448.28-29.51C4513.21,1014.83,4526.9,1213.58,4400,1285Z" style="fill:#93c152"/><path d="M3787.76,891.84s293.43,252.3,721.14,86.77c0,0,52.29,320.19-255,344.78S3787.76,891.84,3787.76,891.84Z" style="fill:#a0786d"/><path d="M4650.59,816.1l-2-6.82-7.2-6.6-23.6,13.14-34.34,5-37.12-19.1-42.93-72.4L4489,558.89l-8.16-106.75L4503.67,344l-166.8,17.72-39.51,5.2-86.15-13.48c32.49,39.86,71.34,63.12,117.36,55.29,192.06-32.65,44.83-2,79.33,271.2C4433.46,882.29,4525,883.62,4570.81,870.7c16.51-4.66,32.14,10.43,27.43,26.93-9.77,34.17-48.2,46.6-48.2,46.6l38.78-1,59-33.69,2.82-53.69-6.32-25.63Z" style="fill:#66b162"/><path d="M4136.68,209.88S4079,117.4,4044.9,322.77l-74.37-1.91-52.41-13.24,15.63-52.52L4010,158.45,4076.58,140,4119,162.28Z" style="fill:#66b162"/><circle cx="4068.57" cy="722.54" r="234.73" style="fill:#ddd"/><circle cx="4059.29" cy="747.14" r="176.05" style="fill:#fff"/><circle cx="4059.29" cy="747.14" r="129.45" style="fill:#4bbcdb"/><circle cx="4059.29" cy="747.14" r="78.53"/><circle cx="4100.71" cy="687.43" r="35.38" style="fill:#fff"/><circle cx="4134.25" cy="742.97" r="19.85" style="fill:#fff"/><path d="M4298.51,695.53s-33.36-89.07-165.6-140.41c-47-18.23-106.4-31.71-181.23-34.75,0,0,51.55-45.46,154.12-31s179.63,116.48,189,171.35Z" style="fill:#2b8b56"/><path d="M4068.31,962.78a240.61,240.61,0,1,1,10.83-.24Q4073.71,962.78,4068.31,962.78Zm.5-469.48c-3.44,0-6.88.08-10.34.23a229.24,229.24,0,0,0,9.86,458.25q5.15,0,10.33-.23a229.24,229.24,0,0,0-9.85-458.25Z" style="fill:#2b8b56"/><path d="M3905.44,450.93a3.85,3.85,0,0,1-3.86-6.44c3.81-3.59,7.78-7,11.82-10.32a277.5,277.5,0,0,1,25.3-18.38,312.06,312.06,0,0,1,56-28.57c39.33-15.38,82.59-23.07,126-20.67,2.68.11,5.35.36,8,.58,2.85.24,7.51.72,10.35,1.06,2,.24,4,.48,5.93.78l8.05,1.27a286.09,286.09,0,0,1,31.71,7.56,277.48,277.48,0,0,1,30.46,11.37,274.65,274.65,0,0,1,28.62,15,255.61,255.61,0,0,1,26.3,18.28l3.13,2.45,3,2.58c2,1.72,4,3.42,6,5.18l5.78,5.41c1.92,1.81,3.86,3.57,5.66,5.51,3.64,3.81,7.31,7.53,10.69,11.54,1.7,2,3.44,3.93,5.08,6s3.25,4.1,4.84,6.16c3.27,4,6.13,8.44,9.11,12.67l.1.16a3.85,3.85,0,0,1-5.2,5.4l-.14-.08-6.57-3.88-3.25-1.95-3.29-1.87c-2.19-1.24-4.38-2.47-6.51-3.76s-4.38-2.41-6.55-3.62-4.28-2.47-6.49-3.59l-6.55-3.44c-4.31-2.34-8.72-4.46-13-6.65-4.44-2-8.71-4.24-13.14-6.14l-6.56-3-6.62-2.75c-2.17-1-4.38-1.84-6.61-2.68l-6.61-2.58a363.49,363.49,0,0,0-108.55-23c-36.93-2.11-74.45,1.3-112.22,8.4q-28.34,5.37-57,13.19C3934.39,442,3920,446.27,3905.44,450.93Z" style="fill:#1b4c14"/><path d="M4538.35,863.28c-5.07-20.19-18.76-37.34-33.28-41.7a23.46,23.46,0,0,0-9.12-1c-8.25.81-14.83,6.34-18.49,15.56s-4,21-.93,33.21c5.07,20.2,18.76,37.35,33.29,41.71a23.39,23.39,0,0,0,9.11,1C4536,910.37,4544.69,888.49,4538.35,863.28Z" style="fill:#66b162"/><path d="M4299.86,490.81c-10.38,7.12-7.4,29.53,6.64,50s33.89,31.34,44.27,24.22,7.4-29.53-6.64-50-33.89-31.34-44.27-24.22Z" style="fill:#2c8b57"/><path d="M4357.53,586c-9.71,2.62-13.39,20.29-8.23,39.45s17.24,32.58,26.94,30,13.4-20.29,8.23-39.45-17.23-32.58-26.94-30Z" style="fill:#2c8b57"/><path d="M4376.93,680c-9.11,1-14.89,16.43-12.9,34.42s11,31.77,20.13,30.76,14.9-16.43,12.9-34.42-11-31.77-20.13-30.76Z" style="fill:#2c8b57"/><path d="M4444.52,484.92c10.81.23,19.22,17.74,18.77,39.07s-9.59,38.48-20.4,38.25-19.22-17.74-18.78-39.07,9.6-38.47,20.41-38.25Z" style="fill:#2c8b57"/><path d="M4446.22,582.52c8.77-.52,16.72,13.11,17.74,30.42s-5.26,31.78-14,32.29-16.72-13.11-17.75-30.41,5.27-31.78,14-32.3Z" style="fill:#2c8b57"/><path d="M4458.47,673.62c7.34-1.56,15.79,8.93,18.87,23.41s-.39,27.5-7.73,29.06-15.79-8.93-18.86-23.41.39-27.51,7.72-29.06Z" style="fill:#2c8b57"/><path d="M4400.5,899.71c-5.51-26.92-21.62-49.87-39.16-55.82a26.24,26.24,0,0,0-11.07-1.37c-10.08,1-18.27,8.28-23,20.5s-5.56,27.9-2.23,44.16c5.52,26.92,21.62,49.88,39.17,55.83a26.19,26.19,0,0,0,11.06,1.37C4396.06,962.31,4407.39,933.3,4400.5,899.71Z" style="fill:#66b162"/><path d="M4578.6,534.46l-.05-.16c-1.27-4.31-2.52-8.78-3.91-12.9-.68-2.1-1.36-4.21-2.06-6.28s-1.43-4.05-2.15-6.09c-1.44-4.1-3-7.91-4.51-11.82-.76-2-1.57-3.78-2.37-5.64l-2.41-5.57c-.82-1.81-1.66-3.56-2.5-5.33l-1.26-2.66-1.29-2.53a208.69,208.69,0,0,0-10.81-19,156.93,156.93,0,0,0-11.63-15.73c-4-4.6-8.38-11.18-12.54-14.62a78.31,78.31,0,0,0-7.81-5.81c-1.33,11.86-3.15,29.75-4.56,49.2q15.45,6.66,30.66,21.81l2.66,2.76c.9.89,1.79,1.83,2.67,2.85l2.67,2.93,2.65,3.12c1.79,2,3.52,4.36,5.32,6.48,1.76,2.3,3.55,4.54,5.3,7l2.66,3.61c.9,1.18,1.75,2.55,2.64,3.76s1.79,2.48,2.67,3.8,1.76,2.62,2.66,3.92l1.34,2,1.32,2,2.69,4,.05.08C4578.13,541.85,4579.57,537.91,4578.6,534.46Z" style="fill:#1b4c14"/><path d="M4506.79,828.15c-4.92,1.5-8.39,6.71-9.76,14.65s-.49,17.64,2.48,27.34c4.93,16.05,14.79,28.73,24,30.82a10.7,10.7,0,0,0,5.6-.14c10.15-3.12,13.42-22,7.27-42-4.93-16.05-14.78-28.73-24-30.82a10.69,10.69,0,0,0-5.6.14Z" style="fill:#236e45"/><path d="M4397.36,890.44c-6.65-21.67-20-38.78-32.35-41.61a14.54,14.54,0,0,0-7.57.19c-6.64,2-11.32,9.06-13.17,19.77s-.66,23.82,3.36,36.9c6.64,21.67,19.95,38.79,32.35,41.62a14.61,14.61,0,0,0,7.56-.19C4401.25,942.9,4405.66,917.48,4397.36,890.44Z" style="fill:#236e45"/><path d="M4645,831.41c.72-.8,1.44-1.6,2.12-2.45a34,34,0,0,0,4.73-7.81,21.19,21.19,0,0,0,1.74-9.39,11.08,11.08,0,0,0-1.44-5.3,8.71,8.71,0,0,0-4.85-3.75,14.15,14.15,0,0,0-5.44-.51,20.83,20.83,0,0,0-5,1.07l-.28.13a137.23,137.23,0,0,1-23.7,8.62,80.52,80.52,0,0,1-24.19,2.59,56.17,56.17,0,0,1-22.4-6,61.53,61.53,0,0,1-18.07-14.36,100.06,100.06,0,0,1-13.39-19.78,161.47,161.47,0,0,1-9.65-22.56,299.15,299.15,0,0,1-12.09-48.59c-5.65-33-7.75-66.76-8.5-100.55.82-4.33,1.78-8.6,3-12.78a87.54,87.54,0,0,1,3.73-10.76,51.79,51.79,0,0,1,5.23-9.7,28.71,28.71,0,0,1,7.25-7.4,17.37,17.37,0,0,1,1.84-1.12c8.92-2.9,18.19-1.17,27.07,3.05l1.44.78A110.53,110.53,0,0,1,4572.94,579a210.15,210.15,0,0,1,16.68,17.2c5.26,6.06,10.29,12.34,15,18.89-1-1.62-2-3.23-3-4.82-19.28-56.36-76.29-96.25-94.76-108,.06-.95.11-1.9.17-2.85,2-34.12,5.21-68.33,9.76-101.92l.89-6.25,1-6.43A138.93,138.93,0,0,0,4520,370a84.73,84.73,0,0,0-.86-16.53,51,51,0,0,0-6.81-19.1,41.14,41.14,0,0,0-7.74-9.15,41.75,41.75,0,0,0-10-6.44,53.47,53.47,0,0,0-19.38-4.55,95.11,95.11,0,0,0-16.26.57c-5.05.58-9.83,1.4-14.46,2.34-9.26,1.89-18,4.21-26.55,6.59s-16.91,4.87-25.18,7.29c-16.54,4.87-32.75,9.63-49,13.41-8.09,1.9-16.17,3.57-24.22,4.93-4,.69-8,1.28-12.05,1.8-2,.25-4,.49-6,.7s-4.1.42-5.79.51a89.72,89.72,0,0,1-10.46.17,71.35,71.35,0,0,1-9.79-1.23,50.58,50.58,0,0,1-17.19-7.07c-10.57-6.72-19.58-18.43-27.45-32.09s-14.87-29.07-22.06-44.81-14.54-32-23.42-47.93A270.52,270.52,0,0,0,4154,173.49a202.18,202.18,0,0,0-20.12-20.23,169.86,169.86,0,0,0-23.48-17.11,116.85,116.85,0,0,0-13.61-7,101.66,101.66,0,0,0-15-5,86.94,86.94,0,0,0-16.09-2.33,85.42,85.42,0,0,0-16.38.94,89,89,0,0,0-29.75,10.88A107.92,107.92,0,0,0,4007,142a129.66,129.66,0,0,0-11.11,9.5c-14,13.24-24.92,28.15-34.6,43.4a464.85,464.85,0,0,0-25.68,46.89c-7.66,15.87-14.63,32-21.61,47.61q-2.09,4.71-4.21,9.28c-33.4,4.42-70.69,17-109.1,43.89h0q-11.49,8-23.1,17.85c-35.51,31-98.55,101.76-89.49,208.26,12.51,147.13,30.68,65-14.73,193.53-9.68,33.93-28.65,119-9,213l2.37,10.6a350.62,350.62,0,0,0,60.92,130.23c-5.57,15.61-7.36,33.24-7.19,50.1l-.52-.09a279.38,279.38,0,0,0,5.62,51l.46-.17c2.42,12.15,4.7,19.89,4.71,19.92.5,3,1.08,6.19,1.77,9.41q2.73,9.89,6.21,20.58h0c8.49,19.81,23.59,29.45,50.11-10.27,0,0,26,119.79,79,27.62,0,0,14.25,127.22,70.49,31.44,0,0,19.27,123.55,73.64,24.4,0,0,10.11,111.85,65.47,35.12,0,0,207.29,117,387.24,5.4,172.08-106.72,105.07-332.45,73.94-403.75,12.83-5,25.78-10.21,38.87-15.86C4577.51,961,4701,926.41,4645,831.41Zm-856.85,31a25.57,25.57,0,0,0-12.53-5.15v0a25.69,25.69,0,0,0-28,19c-5,18.9-7.72,43.94,0,71.2,0,0,9.56-57.43,28.53-58.27,0,0,2.12,1.92,6.25,5.32,0,.15.07.3.11.45,3.4,12.35,7.42,24.53,11.75,36.59a706.41,706.41,0,0,0,30.31,70.68,815.74,815.74,0,0,0,80.91,131.3q11.73,15.42,24.23,30.3t26,29a588.43,588.43,0,0,0,57.34,53,487.67,487.67,0,0,0,65,44.31,400.4,400.4,0,0,0,72.6,31.95,348.41,348.41,0,0,0,78.21,15.6c6.64.51,13.31.83,20,1s13.24.12,19.88-.12a309.12,309.12,0,0,0,39.82-3.69,274.46,274.46,0,0,0,39.27-9.11,233,233,0,0,0,37.54-15.47,213.79,213.79,0,0,0,34.17-22.1,218.75,218.75,0,0,0,29.22-28.09,231.14,231.14,0,0,0,23.43-32.63,261.28,261.28,0,0,0,17.71-35.57,343.86,343.86,0,0,0,20.76-75.4,453.54,453.54,0,0,0,5.57-77,492.66,492.66,0,0,0-3.35-53q6.9-2.46,13.85-5.07c12.26,53.52,62.54,319.22-130,386.65-214.37,75.1-495.7-114.64-580.72-240.46S3723,976.19,3706.89,885.33,3744,709.2,3762.83,665.18s31.76-63.59,10.81-107.59c0,0,2.81,63.8-27.84,73.79,0,0-51.16-298.36,299.1-308.61,0,0-44.16-26.7-108.16-26,7.48-14.54,14.73-28.85,22.47-42.79a474,474,0,0,1,26.37-42.91c9.52-13.49,19.94-26.16,31.54-36.32s24.48-17.35,37.15-18.85a51.16,51.16,0,0,1,9.5-.22,52.81,52.81,0,0,1,9.51,1.71,66.57,66.57,0,0,1,9.48,3.53,81.08,81.08,0,0,1,9.31,5.18,136,136,0,0,1,18,14,170.81,170.81,0,0,1,16.06,17,233.11,233.11,0,0,1,26.16,40.27c7.63,14.53,14.5,29.86,21.42,45.7s14,32.17,23.2,48.6a171.46,171.46,0,0,0,16.43,24.24,105.43,105.43,0,0,0,23.49,21.4A90.24,90.24,0,0,0,4267.28,390a108.85,108.85,0,0,0,15.94,2.1,120.58,120.58,0,0,0,15.47-.18c2.63-.17,4.8-.41,7.14-.66s4.6-.53,6.88-.84q6.87-.91,13.62-2.09c9-1.56,17.88-3.45,26.63-5.54,17.49-4.21,34.51-9.2,51.11-14.31s32.93-10.34,48.34-13.74c3.83-.83,7.58-1.52,11.12-2a57,57,0,0,1,9.65-.54,18.81,18.81,0,0,1,5.83,1,2.92,2.92,0,0,1,1.59,1.17,13.77,13.77,0,0,1,1.82,5.21,47.94,47.94,0,0,1,.65,9.34,102.23,102.23,0,0,1-.81,11l-.82,6.43-.79,6.62c-2,17.58-3.39,35.06-4.52,52.55s-1.93,35-2.35,52.49c-.77,35-.44,70.08,2,105.15s6.58,70.14,14.65,104.78c4.16,17.29,9.28,34.48,16.4,51.14a181.19,181.19,0,0,0,12.62,24.28,114,114,0,0,0,17.39,21.87,76.47,76.47,0,0,0,23.78,15.83,66.46,66.46,0,0,0,28,4.91,91.08,91.08,0,0,0,26.9-5.43,145.45,145.45,0,0,0,24-11.35,12.44,12.44,0,0,1,6.37-1.12,3.36,3.36,0,0,1,2.06,1.16,6.23,6.23,0,0,1,1.08,2.9c.74,5-1.33,10.3-4.4,14.91a73.56,73.56,0,0,1-11.24,12.76c-4.19,3.95-8.64,7.64-13.13,11.28,4.82-3.19,9.62-6.43,14.22-10q2.15-1.7,4.22-3.5c5,10.61,25.37,61.66-36.85,86C4533.83,950.23,4140.49,1132.63,3788.16,862.44Zm721.63,125.13c0,4.55-.1,9.1-.25,13.65-.35,12.66-1.08,25.29-2.28,37.86a515.61,515.61,0,0,1-12.22,74.25,351.76,351.76,0,0,1-24.63,69.86,265.72,265.72,0,0,1-18.15,31.64,220.14,220.14,0,0,1-22.51,28.12,193.26,193.26,0,0,1-57.22,41.63,230,230,0,0,1-68.45,19.67q-8.92,1.2-18,1.8c-6,.46-12.07.71-18.14.81s-12.16,0-18.24-.16-12.07-.61-18.08-1.17a325.22,325.22,0,0,1-70.93-14.63,375.49,375.49,0,0,1-66.87-29.1,471.76,471.76,0,0,1-61.52-40.47c-39.18-30.08-74.45-65.63-106.6-103.91a958.78,958.78,0,0,1-86.91-122.91q-19.42-32.44-36.12-66.51c-4.37-9-8.52-18-12.38-27.19C3852.71,949.2,4117.75,1126,4509.79,987.57Z" style="fill:#2b8b56"/><path d="M4270,524.25c-98.54-111.26-268.62-121.58-379.88-23s-121.57,268.62-23,379.89,268.62,121.57,379.88,23S4368.55,635.51,4270,524.25ZM4078.9,957.05c-129.51,5.71-239.13-94.66-244.84-224.17S3928.72,493.74,4058.23,488s239.14,94.66,244.84,224.18S4208.42,951.34,4078.9,957.05Z" style="fill:#66b162"/><path d="M3890.13,501.21a272.6,272.6,0,0,0-35.82,38.73,264.24,264.24,0,0,0,16.15,338.18,264.77,264.77,0,0,0,83,60.86A262.42,262.42,0,0,0,4002,956.13a269.08,269.08,0,0,0,50.78,7.4,265.41,265.41,0,0,0,100.74-14.65,264.74,264.74,0,0,0,149.19-132.17A265.72,265.72,0,0,0,4320.76,769a266,266,0,0,0,7.38-101.75A261.55,261.55,0,0,0,4317,617,264.39,264.39,0,0,0,3932.9,470.34,271.91,271.91,0,0,0,3890.13,501.21Zm0,0a273.13,273.13,0,0,1,194.79-68.4,278.62,278.62,0,0,1,52.52,7.69,274,274,0,0,1,96.09,45,273.38,273.38,0,0,1,84.83,338.87A272.46,272.46,0,0,1,4290,870.88a274.86,274.86,0,0,1-81.22,71.92,273.52,273.52,0,0,1-397.2-151.49A270.91,270.91,0,0,1,3800,739.37a278.47,278.47,0,0,1-1.29-53.06,273,273,0,0,1,91.42-185.1Z" style="fill:#2b8b56"/><path d="M4548.55,1139.06h0v0h0v0Z" style="fill:#319960;opacity:0.409999996423721"/><path d="M4548.55,1139.08v0Z" style="fill:#319960;opacity:0.409999996423721"/><polygon points="4548.54 1139.11 4548.54 1139.11 4548.54 1139.11 4548.54 1139.11 4548.54 1139.11 4548.54 1139.11" style="fill:#319960;opacity:0.409999996423721"/><path d="M4548.54,1139.13v0Z" style="fill:#319960;opacity:0.409999996423721"/><path d="M4043.26,1579.79c9.71,10.92,18.18,20.82,26,30.5,15.76,19.24,28.73,37.46,41.9,54.13,12.6,17,25.22,32.37,37.21,46.46,24.16,28.19,47.1,49.43,67.5,63.65a209.47,209.47,0,0,0,30.75,18,163.69,163.69,0,0,0,16.88,6.86c6.15,1.88,11.85,4.22,19.89,4.94,30.16,4.38,60.16,3,89.92-5.91s59-25.14,85.2-48,49.38-51.39,68.54-83.17c38-63.53,61-140.47,59-212.72-1-35.91-8.63-70.29-23.85-98.22s-37.6-49.75-68.31-63.24c-15.23-6.84-32.3-11.59-50.47-14.45-4.54-.72-9.09-1.5-13.82-1.81l-15-1.42c-11.61-1-23.24-2.16-34.86-3.47-46.49-5.49-93.26-13.7-139.39-28.84-23-7.74-45.78-17.49-67.49-30.37s-42.35-29.56-58.17-51.11a130,130,0,0,1-25.48-74,141.21,141.21,0,0,1,4.2-37.41,153.48,153.48,0,0,1,6-18.41v0h0L4124,1034c186.14,14.5,280-12.45,280-12.45-70.54,129.52-6.79,149.75,25.92,152.25l3.53-.08c4.28-.17,8.61-.09,13,0l.13,0-.07,0c2.16.07,4.31.13,6.48.22a305.23,305.23,0,0,1,79.66,13.72,260.34,260.34,0,0,1,76.11,38.54,269.49,269.49,0,0,1,60.17,62.22c32.71,47.45,49.3,101.45,56.23,154,6.71,52.8,3.59,105-5.85,155.62a568.38,568.38,0,0,1-49.08,146.3c-23.08,46.57-52.9,90.77-90.44,130.25s-82.83,74.54-135.94,98.81A399.29,399.29,0,0,1,4272.17,2010c-14.21-.1-30.68-.27-46.43-2.41a300.74,300.74,0,0,1-135.85-51.58c-26.44-18.07-48.67-39.71-67.28-62-8.08-9.74-15.37-19.66-22.2-29.64-38.19,66.65-97.47,106.12-155.68,95.61-83.6-15.1-133.28-127.52-111-251.11S3842,1497.4,3925.56,1512.49c0,0,62,8.42,118,67.42" style="fill:#ba93b1"/><path d="M4022.61,1894.07c46.14,44.31,101.65,76.44,161,88.32a297.23,297.23,0,0,0,44.68,5.9c14.64.93,29.41.42,45.33-.39a398.16,398.16,0,0,0,88.39-14.33c115.23-31.63,208.34-118.12,266-222.16a553.67,553.67,0,0,0,37.08-81.62,540.4,540.4,0,0,0,23.75-86.47c11.33-59,13.25-119.49,1.79-177.67s-36.73-113.34-79.6-155a244,244,0,0,0-74.51-50.25c-27.94-12.81-58.55-20.54-90.1-24.78l-15.22-2,14.88-1.7h.07l.59,3.72h-.38c-5.43-.51-10.9-1.38-16.43-1.84,5.46-.78,11-1.35,16.55-1.9h-.26l.14,0,.6,3.72-.07,0-.35-3.74a290.91,290.91,0,0,1,97.13,8.13c31.86,8.66,63.15,23.16,90.31,43.77a282.32,282.32,0,0,1,37.79,34.43,297.68,297.68,0,0,1,31.07,41,351.24,351.24,0,0,1,40.82,93.7c18.55,65.74,19.38,135.15,9.35,201.37a579.87,579.87,0,0,1-24.32,98,592,592,0,0,1-41.18,92.22c-32.94,59-76.71,112.32-130,154.68-53.07,42.57-116.66,73.28-183.39,86.09a405.08,405.08,0,0,1-100.83,6.9c-15.87-1-33-1.88-49.91-5.19a302,302,0,0,1-48.8-12.85C4111,1991.57,4057.24,1947.88,4022.61,1894.07Z" style="fill:#e2c0dc"/><path d="M3838.81,994.51q-7.59-12.68-14.77-25.6h-14.88q7.32,16.83,15.42,33.32a816.34,816.34,0,0,0,79.7,129.68h33.88q-6.28-7.19-12.44-14.49A958.78,958.78,0,0,1,3838.81,994.51Z" style="fill:#2b8b56"/><path d="M4290.76,1209.81c-68.17-37.87,136.34-37.87,136.34-37.87-95.28-13.61-31.56-131.19-17.65-154.9-117.63,27.54-221.69,27-309.73,12.84l1.68,89c22.73,151.49,446.89,196.93,446.89,196.93C4457.4,1217.39,4358.93,1247.69,4290.76,1209.81Z" style="fill:#9b7c95"/><path d="M4595.8,1419.59c-4.69-34.1-16.45-69-39.58-97.23a153.09,153.09,0,0,0-41.3-35.3,191.42,191.42,0,0,0-49.7-20c-16.83-4.43-35.52-6.42-51.07-8.09-16.17-1.92-32.4-3.48-48.38-5.94-32.08-4.74-63.7-11-94.35-19.86s-59.88-20.39-86.3-36.29c-25.92-15.56-48.69-36.44-61.51-60.82-12.92-24.7-15.52-53.2-8.13-80.34l6.65-22.62q-23.48-3.06-45.53-7.37l-5.24,19.09a161.18,161.18,0,0,0-3.2,57.05,152.33,152.33,0,0,0,18,54.44c19.17,33.66,48.22,57.45,79,74.93,30.63,17.29,63.67,29.13,96.56,37.54s66.35,14.09,99.61,18c16.67,2.08,33.31,3.21,49.92,4.69,17.24,1.37,31.49,2.49,46.72,5.94,29.87,6.51,57.23,20.47,76.53,43.12,19.58,22.47,30.94,52,36.07,82.82s4.44,63.15-.27,94.72a410.45,410.45,0,0,1-72.19,177c-19,25.93-41.37,49.68-67.62,68s-56.25,31.5-88,36.11a204.91,204.91,0,0,1-48.07,1.4l-12.17-1.28A60.44,60.44,0,0,1,4271,1797l-5.88-1.79-5.57-2.16-11.18-4.36c-29.37-13.44-55-34.54-78-57.77a450.44,450.44,0,0,1-32.69-36.79c-10.41-12.74-21.05-25.28-31.3-38.21l-30.84-38.67c-10.19-13-21.59-25-32.31-37.44,10.38,12.83,21.39,25.09,31.21,38.33l29.69,39.52c9.85,13.19,20.19,26.1,30.26,39.17a452.32,452.32,0,0,0,31.89,38c22.59,24.15,48,46.53,78.41,61.53,7.78,3.12,15.62,7.09,23.49,9.41a69.66,69.66,0,0,0,12.82,3.16l12.37,1.66a215.55,215.55,0,0,0,50.58,0c33.78-3.92,66.14-17.06,94.42-35.61,28.45-18.67,52.59-42.94,73.27-69.52a429.86,429.86,0,0,0,81-183.62C4598.62,1488.41,4600.39,1454,4595.8,1419.59Z" style="fill:#774f69"/><path d="M4273.39,1155.16l-1.53-1.76c-.5-.59-.94-1.24-1.41-1.85l-2.76-3.73c-1.62-2.64-3.36-5.15-4.7-7.92a86.12,86.12,0,0,1-3.86-8.27c-1-2.87-2.09-5.68-2.82-8.62a90.89,90.89,0,0,1-3.07-17.74,125.71,125.71,0,0,1,2.69-35.72,157.74,157.74,0,0,1,4.74-17.29c.95-2.82,2-5.62,3.06-8.36.56-1.36,1.12-2.72,1.7-4l.8-1.76q-11.71.69-23.18,1-.93,4.15-1.68,8.33a174.74,174.74,0,0,0-2.33,19.87,139.74,139.74,0,0,0,3,39.71,101.93,101.93,0,0,0,6.28,18.87c1.28,3,2.91,5.94,4.45,8.83a97.17,97.17,0,0,0,5.45,8.2,95.66,95.66,0,0,0,6.18,7.54l3.44,3.43c.57.56,1.12,1.15,1.73,1.69l1.84,1.56a99,99,0,0,0,15.6,11A97.29,97.29,0,0,1,4273.39,1155.16Z" style="fill:#774f69"/><path d="M4048.38,1747.6s117.83,328.21,392.19,194.4l-66.49,70.7L4154.42,1990s-136.34-83.32-143.91-113.62Z" style="fill:#e2c0dc"/><path d="M4368.46,2023.26l-8.47,1.4-4.22.7-4.25.56L4343,2027l-8.5.81c-1.42.13-2.83.29-4.25.4l-4.25.26c-2.84.15-5.67.38-8.5.48-5.67.14-11.33.36-17,.22-5.66,0-11.3-.33-16.93-.57-5.62-.46-11.23-.83-16.81-1.57a289.52,289.52,0,0,1-33.1-5.78,292.5,292.5,0,0,1-62.68-22.45,314.71,314.71,0,0,1-55.92-35.45q-13-10.26-24.94-21.74t-22.72-24c-7.18-8.34-14-17-20.33-25.85-3.16-4.45-6.21-9-9.1-13.49-1.43-2.28-2.86-4.55-4.19-6.82-.67-1.13-1.33-2.27-1.95-3.37l-.91-1.65-.41-.77-.18-.35-.09-.17s0,0,0,0a25,25,0,0,0-1.87-3.78c-.38-.62-.79-1.21-1.21-1.77.63-1.32,1.28-2.64,1.89-4,4.47-9.7,8.37-19.61,11.85-29.63s6.38-20.22,8.82-30.49a345.31,345.31,0,0,0,8.88-62.42,319.57,319.57,0,0,0-3.1-62.82,279.23,279.23,0,0,0-6.5-30.81,245.09,245.09,0,0,0-10-29.85l-.54-1.34-.09-.15-.33-.6-.27-.47-.53-.89-1.07-1.71c-.72-1.11-1.46-2.2-2.22-3.28-1.53-2.15-3.16-4.25-4.95-6.31a50.89,50.89,0,0,0-13.53-11.41,29.6,29.6,0,0,0-10.4-3.49,24.37,24.37,0,0,0-12,1.47,27.88,27.88,0,0,0-9,5.78,40.85,40.85,0,0,0-5.81,6.85A73.82,73.82,0,0,0,3971,1608a133,133,0,0,0-4.61,13.85,267.61,267.61,0,0,0-5.88,27.52,550,550,0,0,0-5.56,54.87q-1.51,27.39-1.29,54.74c2.87-18,5.75-36,9.11-53.8,1.65-8.91,3.48-17.78,5.4-26.59s4.06-17.55,6.47-26.14a247.43,247.43,0,0,1,8.21-25.11,126.28,126.28,0,0,1,5.23-11.57,54.22,54.22,0,0,1,6.25-9.72,20.19,20.19,0,0,1,3.33-3.22,6.4,6.4,0,0,1,2.58-1.28,2.55,2.55,0,0,1,1.41.18A9.76,9.76,0,0,1,4004,1603a30.33,30.33,0,0,1,6.5,6.86c1.07,1.48,2.1,3.07,3.07,4.71.48.83.94,1.66,1.39,2.5l.57,1.12a262.46,262.46,0,0,1,9.09,55.46c.57,9.42.78,18.86.41,28.29,0,2.36-.23,4.72-.34,7.07l-.19,3.53-.3,3.53c-.21,2.35-.35,4.7-.6,7l-.78,7c-4.64,37.41-15.26,74.07-32,107.05a261.13,261.13,0,0,1-13.7,23.95,232.11,232.11,0,0,1-16,22.07c-2.84,3.52-5.81,6.89-8.85,10.17s-6.19,6.44-9.43,9.44a159.11,159.11,0,0,1-20.41,16.37c-14.24,9.64-29.8,16.36-45.53,18.85a87.67,87.67,0,0,1-23.54.52,85.71,85.71,0,0,1-33.44-11.2,97.33,97.33,0,0,1-10.14-6.73,120.87,120.87,0,0,1-18.22-17.27c-2.78-3.25-5.44-6.67-8-10.22s-4.94-7.22-7.19-11a192.29,192.29,0,0,1-12-24,246.36,246.36,0,0,1-15-53c-.78-4.59-1.43-9.22-2-13.87s-1-9.32-1.33-14q-1.07-14.07-.81-28.31.14-7.1.58-14.22c.29-4.74.63-9.49,1.12-14.24,1-9.49,2.35-19,4.1-28.37s3.86-18.79,6.44-28,5.49-18.45,8.9-27.48,7.19-18,11.48-26.66a266.33,266.33,0,0,1,14.21-25.5c2.59-4.15,5.33-8.19,8.16-12.2s5.84-7.9,9-11.71a218.13,218.13,0,0,1,20.34-21.75,173.12,173.12,0,0,0-24.55,17.61,211.2,211.2,0,0,0-21.72,21.43,243.69,243.69,0,0,0-18.81,24.27,269.2,269.2,0,0,0-16,26.39,308.26,308.26,0,0,0-13.11,28c-3.87,9.58-7.33,19.35-10.31,29.28s-5.42,20-7.47,30.23c-1,5.1-1.94,10.23-2.74,15.39s-1.41,10.34-1.94,15.54q-1.59,15.62-1.73,31.42a307.87,307.87,0,0,0,1.52,31.65,265.73,265.73,0,0,0,13.89,62.66c1.85,5.11,3.84,10.19,6.05,15.21s4.65,10,7.26,14.83a185.71,185.71,0,0,0,18.45,28.07,156.15,156.15,0,0,0,24.34,24.5,133.45,133.45,0,0,0,30.35,18.46,126.42,126.42,0,0,0,34.75,9.63,128.46,128.46,0,0,0,36-.45,142.38,142.38,0,0,0,34-9.69,168.92,168.92,0,0,0,30.11-16.55,203.6,203.6,0,0,0,25.92-21.26q6-5.77,11.44-11.92c3.65-4.1,7.18-8.28,10.52-12.57,2-2.56,3.92-5.17,5.81-7.79l.38.51c3.76,5,7.63,9.76,11.59,14.47q11.91,14.07,25,26.91t27.24,24.39q14.17,11.55,29.39,21.68a345.85,345.85,0,0,0,64.45,33.82,318.29,318.29,0,0,0,69.88,18.77,308.56,308.56,0,0,0,35.84,3.29c6,.29,12,.21,17.92.2,6-.23,11.92-.33,17.85-.85,5.94-.35,11.84-1,17.74-1.69,3-.34,5.87-.82,8.81-1.22l4.39-.64c1.46-.23,2.92-.51,4.37-.76l8.73-1.57,8.66-1.86,4.32-.93,4.29-1.07,8.56-2.15c45.47-12.33,88.24-31.92,128.1-55.62C4457.39,1999.12,4413.49,2014.93,4368.46,2023.26Zm-352.52-404.18,0,.1.05.12,0,0Z" style="fill:#774f69"/></g></svg>