<svg xmlns="http://www.w3.org/2000/svg" viewBox="906 13 39 32.657">
  <defs>
    <style>
      .cls-1 {
        fill: #f7e60f;
      }
    </style>
  </defs>
  <path id="Menu" class="cls-1" d="M-887.031,32.657A2.969,2.969,0,0,1-890,29.688a2.969,2.969,0,0,1,2.969-2.968h33.062A2.968,2.968,0,0,1-851,29.688a2.968,2.968,0,0,1-2.968,2.969Zm0-13.36A2.969,2.969,0,0,1-890,16.329a2.969,2.969,0,0,1,2.969-2.969h33.062A2.968,2.968,0,0,1-851,16.329a2.968,2.968,0,0,1-2.968,2.969Zm0-13.36A2.968,2.968,0,0,1-890,2.969,2.969,2.969,0,0,1-887.031,0h33.062A2.968,2.968,0,0,1-851,2.969a2.968,2.968,0,0,1-2.968,2.968Z" transform="translate(1796 13)"/>
</svg>
