<svg xmlns="http://www.w3.org/2000/svg" viewBox="929.839 612.738 17.176 32.581">
  <defs>
    <style>
      .cls-1 {
        fill: #f7e60f;
      }
    </style>
  </defs>
  <path id="Path_5" data-name="Path 5" class="cls-1" d="M4.9.364.024,16.242A.507.507,0,0,0,.1,16.7a.589.589,0,0,0,.436.218H7.345L3.612,31.926a.513.513,0,0,0,.315.606.708.708,0,0,0,.218.048.542.542,0,0,0,.436-.242L17.09,12.751a.527.527,0,0,0,.024-.533.52.52,0,0,0-.461-.267H9.988L14.375.727a.494.494,0,0,0-.048-.485A.542.542,0,0,0,13.89,0H5.406A.524.524,0,0,0,4.9.364Z" transform="translate(929.839 612.738)"/>
</svg>
