<svg xmlns="http://www.w3.org/2000/svg" xmlns:xlink="http://www.w3.org/1999/xlink" viewBox="446 373.473 61.918 61.918">
  <defs>
    <style>
      .cls-1 {
        fill: #f7e60f;
      }

      .cls-2 {
        fill: url(#linear-gradient);
      }
    </style>
    <linearGradient id="linear-gradient" x1="0.111" y1="0.171" x2="0.65" y2="0.116" gradientUnits="objectBoundingBox">
      <stop offset="0" stop-color="#234491"/>
      <stop offset="1" stop-color="#2b8b56"/>
    </linearGradient>
  </defs>
  <g id="Group_12" data-name="Group 12" transform="translate(446 373.473)">
    <circle id="Ellipse_5" data-name="Ellipse 5" class="cls-1" cx="30.959" cy="30.959" r="30.959" transform="translate(0)"/>
    <path id="Path_8" data-name="Path 8" class="cls-2" d="M11.1,31.375a3.149,3.149,0,0,0,4.459,0L30.834,16.1a4.3,4.3,0,0,0,.991-1.518,16.336,16.336,0,0,0,4.343.654c3.257-.021,4.332-1.444,4.691-2.3s.611-2.614-1.676-4.944l-.074-.074A18.337,18.337,0,0,0,33.3,4.232c-.432-.179-.864-.337-1.286-.485V3.726a3.444,3.444,0,0,0-3.4-3.4L19.46.194a4.4,4.4,0,0,0-3.226,1.318L.95,16.775a3.149,3.149,0,0,0,0,4.459ZM22.875,5.655A2.61,2.61,0,0,1,27.3,7.879a18.176,18.176,0,0,0,3.479,1.9c.453.19.9.358,1.318.5l-.053-3.679.221.095a15.8,15.8,0,0,1,4.954,3.12l.053.053c1.1,1.117,1.212,1.834,1.117,2.056-.285.685-3.363,1.286-8.032-.654A18.324,18.324,0,0,1,26.67,9.217c-.032.042-.074.084-.105.126a2.609,2.609,0,1,1-3.689-3.689Zm0,0" transform="translate(10.946 15.362)"/>
  </g>
</svg>
