<?xml version="1.0" encoding="utf-8"?>
<!-- Generator: Adobe Illustrator 22.0.1, SVG Export Plug-In . SVG Version: 6.00 Build 0)  -->
<svg version="1.1" id="Layer_1" xmlns="http://www.w3.org/2000/svg" xmlns:xlink="http://www.w3.org/1999/xlink" x="0px" y="0px"
	 viewBox="0 0 431 18" style="enable-background:new 0 0 431 18;" xml:space="preserve">
<style type="text/css">
	.st0{enable-background:new    ;}
	.st1{fill:#234491;}
	.st2{fill:none;stroke:#234491;stroke-width:2;}
</style>
<g id="problemli_line" transform="translate(1999 2)">
	<g class="st0">
		<path class="st1" d="M-1995.9,8.4V12h-2V2.2h4c2.3,0,3.6,1.2,3.6,3.1c0,1.9-1.2,3.1-3.6,3.1H-1995.9z M-1995.9,4v2.6h2
			c1.1,0,1.6-0.4,1.6-1.3c0-0.9-0.6-1.3-1.6-1.3H-1995.9z"/>
		<path class="st1" d="M-1983.8,2.2c2.3,0,3.6,1.1,3.6,3c0,1.6-1.1,2.7-3,2.9l3,3.9h-2.4l-2.9-3.9h-0.6V12h-2V2.2H-1983.8z M-1986,4
			v2.4h2.2c1.1,0,1.6-0.4,1.6-1.2c0-0.8-0.6-1.2-1.6-1.2H-1986z"/>
		<path class="st1" d="M-1968,7.1c0,2.9-2.1,5.1-5.2,5.1s-5.1-2.2-5.1-5.1s2.1-5.1,5.1-5.1S-1968,4.2-1968,7.1z M-1976.3,7.1
			c0,1.9,1.3,3.2,3.1,3.2c1.8,0,3.1-1.3,3.1-3.2c0-1.9-1.3-3.2-3.1-3.2C-1974.9,3.9-1976.3,5.2-1976.3,7.1z"/>
		<path class="st1" d="M-1961.6,2.2c2.3,0,3.7,0.8,3.7,2.7c0,1-0.6,1.8-1.4,2.1c0.9,0.3,1.6,1.1,1.6,2.2c0,1.9-1.3,2.8-3.7,2.8h-4.2
			V2.2H-1961.6z M-1963.6,3.9v2.3h2c1,0,1.7-0.2,1.7-1.2c0-0.9-0.8-1.1-1.7-1.1H-1963.6z M-1963.6,7.9v2.4l2.2,0
			c1.1,0,1.8-0.3,1.8-1.2c0-0.9-0.7-1.2-1.8-1.2H-1963.6z"/>
		<path class="st1" d="M-1948.1,12h-7.1V2.2h2v8h5.2V12z"/>
		<path class="st1" d="M-1938.8,12h-7.3V2.2h7.3V4h-5.3v2.2h5.1V8h-5.1v2.3h5.4V12z"/>
		<path class="st1" d="M-1925.3,12h-2V4.6l-2.4,6.5h-2.1l-2.4-6.4V12h-2V2.2h2.9l2.5,6.6l2.5-6.6h2.9V12z"/>
		<path class="st1" d="M-1915.3,12h-7.1V2.2h2v8h5.2V12z"/>
		<path class="st1" d="M-1911.3,0.3c0,0.7-0.5,1.2-1.2,1.2s-1.2-0.5-1.2-1.2c0-0.7,0.5-1.2,1.2-1.2S-1911.3-0.4-1911.3,0.3z
			 M-1911.3,12h-2V2.2h2V12z"/>
		<path class="st1" d="M-1900.3,2.2c2.3,0,3.7,0.8,3.7,2.7c0,1-0.6,1.8-1.4,2.1c0.9,0.3,1.6,1.1,1.6,2.2c0,1.9-1.3,2.8-3.7,2.8h-4.2
			V2.2H-1900.3z M-1902.4,3.9v2.3h2c1,0,1.7-0.2,1.7-1.2c0-0.9-0.8-1.1-1.7-1.1H-1902.4z M-1902.4,7.9v2.4l2.2,0
			c1.1,0,1.8-0.3,1.8-1.2c0-0.9-0.7-1.2-1.8-1.2H-1902.4z"/>
		<path class="st1" d="M-1891.9,0.3c0,0.7-0.5,1.2-1.2,1.2s-1.2-0.5-1.2-1.2c0-0.7,0.5-1.2,1.2-1.2S-1891.9-0.4-1891.9,0.3z
			 M-1892,12h-2V2.2h2V12z"/>
		<path class="st1" d="M-1885,2.2c2.3,0,3.6,1.1,3.6,3c0,1.6-1.1,2.7-3,2.9l3,3.9h-2.4l-2.9-3.9h-0.6V12h-2V2.2H-1885z M-1887.2,4
			v2.4h2.2c1.1,0,1.6-0.4,1.6-1.2c0-0.8-0.6-1.2-1.6-1.2H-1887.2z"/>
		<path class="st1" d="M-1868,8h-4.9v4h-2V2.2h7.2V4h-5.2v2.2h4.9V8z"/>
		<path class="st1" d="M-1863.3,12h-2V2.2h2V12z"/>
		<path class="st1" d="M-1856.2,2.2c2.3,0,3.6,1.1,3.6,3c0,1.6-1.1,2.7-3,2.9l3,3.9h-2.4l-2.9-3.9h-0.6V12h-2V2.2H-1856.2z
			 M-1858.4,4v2.4h2.2c1.1,0,1.6-0.4,1.6-1.2c0-0.8-0.6-1.2-1.6-1.2H-1858.4z"/>
		<path class="st1" d="M-1843.6,4.7c-0.8-0.5-1.7-0.8-2.8-0.8c-1.1,0-1.9,0.4-1.9,1.2c0,0.7,0.8,0.9,2,1.1l0.6,0.1
			c1.8,0.3,3.1,1,3.1,2.7c0,2.2-1.9,3.2-4,3.2c-1.5,0-3.1-0.4-4.1-1.3l1-1.6c0.7,0.6,1.9,1.1,3.1,1.1c1.1,0,1.9-0.4,1.9-1.2
			c0-0.7-0.7-0.9-2.1-1.1l-0.6-0.1c-1.7-0.3-3-1-3-2.8c0-2,1.8-3.1,3.9-3.1c1.4,0,2.5,0.3,3.7,1L-1843.6,4.7z"/>
		<path class="st1" d="M-1831.3,12h-2.1l-0.9-2.3h-4.2l-0.9,2.3h-2l3.8-9.8h2.4L-1831.3,12z M-1837.8,7.9h2.8l-1.4-3.8L-1837.8,7.9z
			"/>
		<path class="st1" d="M-1823.1,4h-3v8h-2V4h-3V2.2h8V4z"/>
		<path class="st1" d="M-1806.4,12h-2V4.6l-2.4,6.5h-2.1l-2.4-6.4V12h-2V2.2h2.9l2.5,6.6l2.5-6.6h2.9V12z"/>
		<path class="st1" d="M-1801.5,12h-2V2.2h2V12z"/>
		<path class="st1" d="M-1794.4,8.7V6.3h0.7c1.4,0,2.1-0.4,2.1-1.2c0-0.8-0.7-1.2-2.1-1.2c-0.4,0-0.8,0-1.1,0.1l-0.1-1.8
			c0.4-0.1,0.9-0.1,1.4-0.1c2.4,0,3.9,1.1,3.9,2.9c0,1.6-1.1,2.7-3,3l-0.1,0.8H-1794.4z M-1792.3,10.8c0,0.7-0.6,1.3-1.3,1.3
			c-0.7,0-1.3-0.6-1.3-1.3c0-0.7,0.6-1.3,1.3-1.3C-1792.9,9.5-1792.3,10.1-1792.3,10.8z"/>
	</g>
	<line id="Line_34" class="st2" x1="-1783" y1="6.5" x2="-1568" y2="6.5"/>
</g>
</svg>
