<svg xmlns="http://www.w3.org/2000/svg" viewBox="1353.031 -634.325 35.375 35.446">
  <defs>
    <style>
      .cls-1 {
        fill: #f7e60f;
      }
    </style>
  </defs>
  <path id="Subtraction_12" data-name="Subtraction 12" class="cls-1" d="M3.753,35.446a2.518,2.518,0,0,1-1.788-.751L.748,33.478a2.5,2.5,0,0,1,0-3.577l6.367-6.3A2.4,2.4,0,0,1,8.9,22.818a2.427,2.427,0,0,1,1.147.288l1.216-1.216a13.962,13.962,0,0,1-2.137-3.863,13.248,13.248,0,0,1-.8-4.507,13.52,13.52,0,1,1,27.04,0,13.417,13.417,0,0,1-2.3,7.532A13.7,13.7,0,0,1,29.43,24.71a13.866,13.866,0,0,1-7.579,2.4,13.248,13.248,0,0,1-4.507-.8,13.962,13.962,0,0,1-3.863-2.137L12.265,25.4a2.505,2.505,0,0,1,.268,1.52,2.454,2.454,0,0,1-.7,1.413l-6.3,6.367A2.518,2.518,0,0,1,3.753,35.446ZM21.746,4.6a8.964,8.964,0,1,0,3.5.707A8.936,8.936,0,0,0,21.746,4.6Z" transform="translate(1353.035 -634.325)"/>
</svg>
