<svg xmlns="http://www.w3.org/2000/svg" xmlns:xlink="http://www.w3.org/1999/xlink" viewBox="3221 615.473 40 40">
  <defs>
    <style>
      .cls-1 {
        fill: #f7e60f;
      }

      .cls-2 {
        fill: url(#linear-gradient);
      }
    </style>
    <linearGradient id="linear-gradient" x1="0.5" x2="0.5" y2="1" gradientUnits="objectBoundingBox">
      <stop offset="0" stop-color="#234491"/>
      <stop offset="1" stop-color="#2b8b56"/>
    </linearGradient>
  </defs>
  <g id="sikayet_et_icon" transform="translate(3221 615.473)">
    <circle id="Ellipse_5" data-name="Ellipse 5" class="cls-1" cx="20" cy="20" r="20"/>
    <path id="Union_3" data-name="Union 3" class="cls-2" d="M.81,23.472A3.237,3.237,0,1,1,4.047,26.71,3.238,3.238,0,0,1,.81,23.472Zm2.183-4.856A2,2,0,0,1,1.2,16.468L0,2.148A2,2,0,0,1,1.8,0H6.584A2,2,0,0,1,8.379,2.148l-1.2,14.32a2,2,0,0,1-1.8,2.148Z" transform="translate(16.021 6.538)"/>
  </g>
</svg>
