<svg xmlns="http://www.w3.org/2000/svg" xmlns:xlink="http://www.w3.org/1999/xlink" viewBox="2909.551 615.473 40 40">
  <defs>
    <style>
      .cls-1 {
        fill: #f7e60f;
      }

      .cls-2 {
        fill: url(#linear-gradient);
      }
    </style>
    <linearGradient id="linear-gradient" x1="0.5" y1="0.5" x2="0.798" y2="0.813" gradientUnits="objectBoundingBox">
      <stop offset="0" stop-color="#234491"/>
      <stop offset="1" stop-color="#2b8b56"/>
    </linearGradient>
  </defs>
  <g id="suresi_dolmus_icon" transform="translate(2916.842 621.579)">
    <circle id="Ellipse_5" data-name="Ellipse 5" class="cls-1" cx="20" cy="20" r="20" transform="translate(-7.292 -6.107)"/>
    <path id="suresi_dolmus_icon-2" data-name="suresi_dolmus_icon" class="cls-2" d="M22.2,25.43H7.061a3.165,3.165,0,0,1-1.216-.207,1.473,1.473,0,0,1-.9-.892,1.787,1.787,0,0,1,.021-1.117,4.479,4.479,0,0,1,.508-1.029q1.169-1.949,2.337-3.9,1.51-2.527,3.02-5.052,1.224-2.042,2.447-4.09a3.022,3.022,0,0,1,.82-.942,1.678,1.678,0,0,1,2.04.01,3.252,3.252,0,0,1,.854.994q1.762,2.915,3.527,5.829,1.384,2.285,2.766,4.574.91,1.5,1.816,3.006a2.288,2.288,0,0,1,.347,1.063,1.463,1.463,0,0,1-.76,1.4,2.5,2.5,0,0,1-1.2.338c-.353.014-.707.015-1.062.015Zm-8.307-4.751a1.333,1.333,0,0,0-.192,1.355,1.454,1.454,0,0,0,1.209.932,1.544,1.544,0,0,0,1.418-.48,1.321,1.321,0,0,0,.363-1.2,1.557,1.557,0,0,0-1.7-1.231h-.011A1.369,1.369,0,0,0,13.891,20.679Zm.757-8.251a1.7,1.7,0,0,0-.8.669,1.34,1.34,0,0,0-.237.964c.041.254.075.51.116.763l.634,3.908h1.461l.656-3.894c.049-.293.11-.583.133-.876a1.452,1.452,0,0,0-.534-1.294,1.369,1.369,0,0,0-.891-.352A1.463,1.463,0,0,0,14.648,12.428Zm-8,3.133a7.681,7.681,0,0,1-2.646-.916A7.832,7.832,0,0,1,.735,11.122,7.536,7.536,0,0,1,.047,8.663C.03,8.5.015,8.331,0,8.165V7.473c0-.033.011-.063.015-.095.043-.347.067-.7.134-1.037A7.665,7.665,0,0,1,2.04,2.576,7.753,7.753,0,0,1,4.7.659,7.513,7.513,0,0,1,6.982.048C7.145.03,7.307.015,7.47,0h.71l.471.045A7.515,7.515,0,0,1,10.9.637a7.761,7.761,0,0,1,3.748,3.415,7.666,7.666,0,0,1,.9,2.76.327.327,0,0,1,0,.039,2.78,2.78,0,0,0-1.848.473,5.922,5.922,0,0,0-3.161-4.688,5.567,5.567,0,0,0-4.213-.482A5.857,5.857,0,0,0,2.056,8.893a5.7,5.7,0,0,0,2.788,3.978,5.727,5.727,0,0,0,4.846.512l-.3.5c-.347.57-.695,1.142-1.044,1.711a.119.119,0,0,1-.084.054l-.269,0A8.609,8.609,0,0,1,6.652,15.56ZM5.59,10.416a.67.67,0,0,1-.4-.478.381.381,0,0,1,.09-.338c.454-.542.906-1.084,1.362-1.626a.148.148,0,0,0,.03-.121,1.191,1.191,0,0,1,.034-.34,1.054,1.054,0,0,1,.418-.6.133.133,0,0,0,.058-.112q.061-1.494.127-2.988c.006-.159.013-.316.022-.476a.384.384,0,0,1,.421-.4h.058a.46.46,0,0,1,.495.348c.017.138.024.277.034.417.037.478.073.953.107,1.431.041.534.08,1.067.119,1.6a1.82,1.82,0,0,0,.017.2.191.191,0,0,0,.053.084A1.13,1.13,0,0,1,8.686,8.6a1.06,1.06,0,0,1-1.007.359.115.115,0,0,0-.076.026c-.456.4-.91.8-1.366,1.207-.052.048-.106.091-.157.14a.415.415,0,0,1-.291.128A.462.462,0,0,1,5.59,10.416Z" transform="translate(0.012 0.01)"/>
  </g>
</svg>
