<svg xmlns="http://www.w3.org/2000/svg" viewBox="4116.615 1039.62 283.791 22.68">
  <defs>
    <style>
      .cls-1 {
        fill: #f7e60f;
      }
    </style>
  </defs>
  <path id="Union_11" data-name="Union 11" class="cls-1" d="M-4107.012-1017.086l-.549-.137c-.206-.069-.343-.137-.412-.343a.664.664,0,0,1-.068-.618c0-.136.068-.206.068-.274l7.2-15.3a1.066,1.066,0,0,1,.549-.549,1.355,1.355,0,0,1,.754-.137h2.263l.138,16.05a.335.335,0,0,1-.069.206,1.8,1.8,0,0,1-.342.618,1.418,1.418,0,0,1-.618.343l-.618.137a.748.748,0,0,1-.754-.137.668.668,0,0,1-.274-.618l-.069-4.183h-3.909l-1.921,4.252a1.609,1.609,0,0,1-.548.617,1.327,1.327,0,0,1-.5.114A1.3,1.3,0,0,1-4107.012-1017.086Zm7-13.375c-.136.48-.343,1.029-.549,1.578a8.823,8.823,0,0,1-.617,1.371l-1.44,3.155h2.88v-3.155a9.748,9.748,0,0,1,.068-1.371c.068-.549.068-1.029.138-1.578s.137-1.166.206-1.783h-.068C-4099.606-1031.627-4099.812-1031.009-4100.017-1030.461Zm177.3,13.238a.669.669,0,0,1-.274-.618l-.069-4.183h-3.909l-1.989,4.183a1.623,1.623,0,0,1-.549.618,1.475,1.475,0,0,1-.754.137l-.549-.137c-.207-.069-.343-.137-.412-.343a.671.671,0,0,1-.068-.618c0-.136.068-.206.068-.274l7.2-15.364a1.06,1.06,0,0,1,.549-.549,1.354,1.354,0,0,1,.754-.137h2.264l.137,16.05a.412.412,0,0,1-.068.274,1.825,1.825,0,0,1-.343.618,1.416,1.416,0,0,1-.618.343l-.617.137a1.247,1.247,0,0,1-.3.041A.62.62,0,0,1-3922.717-1017.223Zm-.549-13.238c-.137.48-.343,1.029-.549,1.578a8.823,8.823,0,0,1-.617,1.371l-1.44,3.155h2.88v-3.155a9.713,9.713,0,0,1,.068-1.371c.069-.549.069-1.029.137-1.578s.137-1.166.206-1.783h-.068C-3922.853-1031.627-3923.06-1031.009-3923.265-1030.461Zm-128.74,13.238a.67.67,0,0,1-.275-.618l-.068-4.183h-3.909l-1.99,4.183a1.6,1.6,0,0,1-.549.618,1.471,1.471,0,0,1-.754.137l-.549-.137c-.206-.069-.343-.137-.411-.343a.668.668,0,0,1-.069-.618c0-.136.069-.206.069-.274l7.133-15.3a1.065,1.065,0,0,1,.549-.549,1.355,1.355,0,0,1,.754-.137h2.264l.137,16.05v.206a1.783,1.783,0,0,1-.343.618,1.406,1.406,0,0,1-.618.343l-.617.137a1.25,1.25,0,0,1-.3.041A.618.618,0,0,1-4052.005-1017.223Zm-.618-13.238c-.137.48-.343,1.029-.549,1.578a8.8,8.8,0,0,1-.617,1.371l-1.44,3.155h2.88v-3.155a9.679,9.679,0,0,1,.068-1.371c.069-.549.069-1.029.137-1.578s.137-1.166.206-1.783h-.068C-4052.211-1031.627-4052.417-1031.009-4052.623-1030.461Zm105.764,13.306a.946.946,0,0,1-.48-.549l-1.51-6.927h-1.851l-1.51,6.447a1.306,1.306,0,0,1-.479.755,1.2,1.2,0,0,1-.823.274h-.549a.88.88,0,0,1-.686-.274.9.9,0,0,1-.137-.755l3.566-15.294a1.172,1.172,0,0,1,.412-.686,1.031,1.031,0,0,1,.754-.275h.823l.411.961a.378.378,0,0,0,.343.206.745.745,0,0,0,.48-.206l.617-.412.823-.411a2.75,2.75,0,0,1,1.029-.206h.479a2.1,2.1,0,0,1,1.166.274,1.828,1.828,0,0,1,.754.686,2.282,2.282,0,0,1,.343,1.029,3.344,3.344,0,0,1-.068,1.167l-.823,3.7a3.744,3.744,0,0,1-.822,1.646,4.256,4.256,0,0,1-1.51,1.166l1.372,6.241c.137,0,.137.137.137.275a1.191,1.191,0,0,1-.823.892l-.618.274a.91.91,0,0,1-.411.1A.91.91,0,0,1-3946.859-1017.155Zm-1.92-14.678a1.12,1.12,0,0,0-.48.754l-.96,4.116h2.675a1.322,1.322,0,0,0,.823-.275,1.123,1.123,0,0,0,.479-.754l.755-3.087a.953.953,0,0,0-.137-.754.723.723,0,0,0-.686-.275h-1.647A1.318,1.318,0,0,0-3948.78-1031.833Zm90.056,14.747a.8.8,0,0,1-.686-.275.75.75,0,0,1-.137-.686l.343-1.44h5.212a1.444,1.444,0,0,0,.892-.343,1.366,1.366,0,0,0,.55-.823l.685-2.812a1.061,1.061,0,0,0-.136-.822.886.886,0,0,0-.755-.343h-1.851a2.258,2.258,0,0,1-1.167-.275,2,2,0,0,1-.822-.686,2.378,2.378,0,0,1-.48-1.029,3.749,3.749,0,0,1,0-1.234l.823-3.43a2.849,2.849,0,0,1,.549-1.235,3.446,3.446,0,0,1,.96-1.029,4.027,4.027,0,0,1,1.167-.686,4.451,4.451,0,0,1,1.3-.274h3.841a.8.8,0,0,1,.686.274.751.751,0,0,1,.137.686l-.343,1.44h-4.322a1.446,1.446,0,0,0-.892.343,1.363,1.363,0,0,0-.549.823l-.686,2.812a1.066,1.066,0,0,0,.137.823.885.885,0,0,0,.754.343h1.852a2.255,2.255,0,0,1,1.166.274,2.014,2.014,0,0,1,.823.686,3.562,3.562,0,0,1,.479,1.029,3.7,3.7,0,0,1,0,1.235l-.822,3.429a2.324,2.324,0,0,1-.48,1.235,3.424,3.424,0,0,1-.96,1.029,4.02,4.02,0,0,1-1.167.686,4.419,4.419,0,0,1-1.3.275Zm-11.66,0,3.978-17.354h8.162l-.343,1.44a.989.989,0,0,1-.479.686,1.438,1.438,0,0,1-.755.275h-4.458l-1.167,5.144h3.91a.794.794,0,0,1,.686.275.748.748,0,0,1,.136.685l-.136.48a.994.994,0,0,1-.48.686,1.436,1.436,0,0,1-.755.275h-3.909l-1.165,5.144h4.8a.881.881,0,0,1,.686.274.751.751,0,0,1,.137.686l-.137.48c-.137.137-.275.343-.48.549a1.435,1.435,0,0,1-.754.275Zm-8.025,0a.881.881,0,0,1-.686-.275.9.9,0,0,1-.137-.754l3.223-13.993h-4.115l.343-1.44a.994.994,0,0,1,.48-.686,1.445,1.445,0,0,1,.754-.274h8.78a.8.8,0,0,1,.686.274.751.751,0,0,1,.137.686l-.343,1.44h-3.979l-3.223,13.993a1.308,1.308,0,0,1-.48.754,1.2,1.2,0,0,1-.823.275Zm-22.085,0a.8.8,0,0,1-.686-.275.75.75,0,0,1-.136-.686l.343-1.44h5.212a1.446,1.446,0,0,0,.892-.343,1.362,1.362,0,0,0,.549-.823l.686-2.812a1.062,1.062,0,0,0-.137-.822.885.885,0,0,0-.754-.343h-1.853a2.254,2.254,0,0,1-1.165-.275,2.006,2.006,0,0,1-.823-.686,2.392,2.392,0,0,1-.48-1.029,3.749,3.749,0,0,1,0-1.234l.823-3.43a2.878,2.878,0,0,1,.549-1.235,3.45,3.45,0,0,1,.961-1.029,4.037,4.037,0,0,1,1.165-.686,4.457,4.457,0,0,1,1.3-.274h3.841a.794.794,0,0,1,.685.274.748.748,0,0,1,.137.686l-.343,1.44h-4.321a1.444,1.444,0,0,0-.892.343,1.366,1.366,0,0,0-.549.823l-.686,2.812a1.066,1.066,0,0,0,.136.823.888.888,0,0,0,.755.343h1.851a2.258,2.258,0,0,1,1.166.274,2.021,2.021,0,0,1,.823.686,3.569,3.569,0,0,1,.479,1.029,3.7,3.7,0,0,1,0,1.235l-.823,3.429a2.328,2.328,0,0,1-.479,1.235,3.424,3.424,0,0,1-.961,1.029,4.013,4.013,0,0,1-1.165.686,4.427,4.427,0,0,1-1.3.275Zm-14.129,0a.883.883,0,0,1-.686-.275.9.9,0,0,1-.137-.754l3.224-13.993h-4.116l.343-1.44a.994.994,0,0,1,.48-.686,1.445,1.445,0,0,1,.754-.274h8.78a.8.8,0,0,1,.686.274.751.751,0,0,1,.136.686l-.206,1.44h-4.115l-3.223,13.993a1.305,1.305,0,0,1-.48.754,1.2,1.2,0,0,1-.822.275Zm-27.3,0a.8.8,0,0,1-.686-.275.748.748,0,0,1-.137-.686l.343-1.44h5.212a1.444,1.444,0,0,0,.892-.343,1.361,1.361,0,0,0,.549-.823l.686-2.812a1.061,1.061,0,0,0-.136-.822.886.886,0,0,0-.755-.343h-1.851a2.256,2.256,0,0,1-1.167-.275,2,2,0,0,1-.822-.686,2.364,2.364,0,0,1-.48-1.029,3.683,3.683,0,0,1,0-1.234l.822-3.43a2.865,2.865,0,0,1,.55-1.235,3.446,3.446,0,0,1,.96-1.029,4.027,4.027,0,0,1,1.167-.686,4.451,4.451,0,0,1,1.3-.274h3.841a.794.794,0,0,1,.685.274.748.748,0,0,1,.137.686l-.342,1.44h-4.322a1.443,1.443,0,0,0-.892.343,1.363,1.363,0,0,0-.549.823l-.686,2.812a1.061,1.061,0,0,0,.137.823.884.884,0,0,0,.754.343h1.851a2.256,2.256,0,0,1,1.167.274,2.014,2.014,0,0,1,.823.686,3.562,3.562,0,0,1,.479,1.029,3.7,3.7,0,0,1,0,1.235l-.822,3.429a3.082,3.082,0,0,1-.48,1.235,3.422,3.422,0,0,1-.96,1.029,4.015,4.015,0,0,1-1.166.686,4.419,4.419,0,0,1-1.3.275Zm-30.659,0a.881.881,0,0,1-.686-.275.9.9,0,0,1-.137-.754l3.773-16.325h8.162l-.343,1.44a1.031,1.031,0,0,1-.48.618,1.436,1.436,0,0,1-.754.274h-4.458l-1.167,5.145h3.909a.8.8,0,0,1,.686.274.75.75,0,0,1,.137.686l-.137.48a.99.99,0,0,1-.48.686,1.091,1.091,0,0,1-.822.274h-3.91l-1.509,6.448a1.3,1.3,0,0,1-.48.754,1.2,1.2,0,0,1-.823.275Zm-18.862,0a.881.881,0,0,1-.686-.275.9.9,0,0,1-.137-.754l.069-.343c.068-.137.136-.343.206-.48a2.927,2.927,0,0,1,.343-.48l8.71-12.689h-5.83l.343-1.44a.991.991,0,0,1,.48-.686,1.441,1.441,0,0,1,.754-.274h6.927a.8.8,0,0,1,.686.274.751.751,0,0,1,.137.686l-.068.275a2.776,2.776,0,0,1-.207.549c-.136.206-.274.48-.411.686l-8.71,12.552h6.378l-.343,1.44a1.418,1.418,0,0,1-.411.686,1.441,1.441,0,0,1-.755.275Zm-19.2,0a.8.8,0,0,1-.686-.275.75.75,0,0,1-.136-.686l.343-1.44h5.212a1.444,1.444,0,0,0,.892-.343,1.361,1.361,0,0,0,.549-.823l.686-2.812a1.062,1.062,0,0,0-.137-.822.883.883,0,0,0-.754-.343h-1.851a2.256,2.256,0,0,1-1.167-.275,2.014,2.014,0,0,1-.823-.686,2.376,2.376,0,0,1-.479-1.029,3.683,3.683,0,0,1,0-1.234l.822-3.43a2.878,2.878,0,0,1,.549-1.235,3.45,3.45,0,0,1,.961-1.029,4.037,4.037,0,0,1,1.165-.686,4.458,4.458,0,0,1,1.3-.274h3.84a.8.8,0,0,1,.687.274.754.754,0,0,1,.136.686l-.343,1.44h-4.321a1.443,1.443,0,0,0-.892.343,1.363,1.363,0,0,0-.549.823l-.686,2.812a1.061,1.061,0,0,0,.137.823.884.884,0,0,0,.754.343h1.851a2.257,2.257,0,0,1,1.167.274,2.011,2.011,0,0,1,.822.686,3.569,3.569,0,0,1,.48,1.029,3.7,3.7,0,0,1,0,1.235l-.823,3.429a3.093,3.093,0,0,1-.48,1.235,3.425,3.425,0,0,1-.961,1.029,4.013,4.013,0,0,1-1.165.686,4.419,4.419,0,0,1-1.3.275Zm-32.991,0a2.255,2.255,0,0,1-1.165-.275,2.015,2.015,0,0,1-.823-.686,3.6,3.6,0,0,1-.48-1.029,3.755,3.755,0,0,1,0-1.235l2.539-10.974a2.849,2.849,0,0,1,.549-1.235,3.446,3.446,0,0,1,.96-1.029,4.027,4.027,0,0,1,1.167-.686,4.451,4.451,0,0,1,1.3-.274h4.733a.8.8,0,0,1,.686.274.751.751,0,0,1,.137.686l-.343,1.44h-5.145a1.448,1.448,0,0,0-.892.343,1.371,1.371,0,0,0-.549.823l-2.4,10.357a1.057,1.057,0,0,0,.137.822.881.881,0,0,0,.754.343h1.92a1.44,1.44,0,0,0,.892-.343,1.367,1.367,0,0,0,.549-.822l.892-3.979h-1.646a.794.794,0,0,1-.686-.274.748.748,0,0,1-.137-.686l.137-.48a.992.992,0,0,1,.479-.686,1.44,1.44,0,0,1,.755-.274H-4035l-1.508,6.652q-.308.618-.618,1.235a3.447,3.447,0,0,1-.96,1.029,4.018,4.018,0,0,1-1.166.686,4.421,4.421,0,0,1-1.3.275Zm-29.218,0,3.7-16.393a1.164,1.164,0,0,1,.411-.686,1.033,1.033,0,0,1,.754-.275h.823l.411.961a.379.379,0,0,0,.343.206.746.746,0,0,0,.48-.206l.617-.412.823-.411a2.5,2.5,0,0,1,1.029-.206h.275a2.1,2.1,0,0,1,1.165.274,1.83,1.83,0,0,1,.754.686,2.273,2.273,0,0,1,.343,1.029,3.344,3.344,0,0,1-.068,1.167l-.823,3.5a2.035,2.035,0,0,1-.274.685c-.137.207-.343.412-.48.618a3.8,3.8,0,0,1-.617.48,2.461,2.461,0,0,1-.618.274v.069a2.118,2.118,0,0,1,1.3.617,1.523,1.523,0,0,1,.275,1.578l-.823,3.5a1.664,1.664,0,0,1-.343,1.029,3.894,3.894,0,0,1-.892.96,6.48,6.48,0,0,1-1.166.686,5.339,5.339,0,0,1-1.441.275Zm3.155-2.4h2.948a1.315,1.315,0,0,0,.823-.275,1.128,1.128,0,0,0,.48-.754l.685-3.086a.955.955,0,0,0-.136-.755.723.723,0,0,0-.686-.274h-2.949Zm3.086-12.346a1.124,1.124,0,0,0-.48.754l-.96,4.116h2.469a1.317,1.317,0,0,0,.823-.275,1.121,1.121,0,0,0,.48-.754l.755-3.087a.953.953,0,0,0-.137-.754.723.723,0,0,0-.686-.275h-1.44A1.32,1.32,0,0,0-4066.615-1031.833Zm228.193,14.678a.88.88,0,0,1-.686-.274.9.9,0,0,1-.137-.755l.343-1.508a1.3,1.3,0,0,1,.48-.755,1.2,1.2,0,0,1,.823-.274h.617a.88.88,0,0,1,.686.274.9.9,0,0,1,.137.755l-.343,1.508a1.128,1.128,0,0,1-.48.755,1.2,1.2,0,0,1-.823.274Zm-7.408,0a.883.883,0,0,1-.686-.274.9.9,0,0,1-.136-.755l3.635-15.294a1.315,1.315,0,0,1,.48-.755,1.2,1.2,0,0,1,.823-.274h.617a.88.88,0,0,1,.686.274c.206.207.206.412.137.755l-3.566,15.294a1.561,1.561,0,0,1-.549.755,1.2,1.2,0,0,1-.823.274Zm-41.7,0a.88.88,0,0,1-.686-.274.9.9,0,0,1-.137-.755l3.566-15.294a1.3,1.3,0,0,1,.48-.755,1.2,1.2,0,0,1,.822-.274h.618a.882.882,0,0,1,.686.274c.206.207.206.412.137.755l-3.568,15.294a1.545,1.545,0,0,1-.549.755,1.2,1.2,0,0,1-.822.274Zm-73.8,0a.88.88,0,0,1-.686-.274.9.9,0,0,1-.137-.755l3.566-15.294a1.308,1.308,0,0,1,.48-.755,1.2,1.2,0,0,1,.823-.274h.617a.88.88,0,0,1,.686.274.9.9,0,0,1,.137.755l-3.567,15.294a2.043,2.043,0,0,1-.479.755,1.2,1.2,0,0,1-.823.274Zm-36.421,0a.879.879,0,0,1-.685-.274.9.9,0,0,1-.137-.755l3.566-15.294a1.3,1.3,0,0,1,.48-.755,1.2,1.2,0,0,1,.822-.274h.618a.882.882,0,0,1,.686.274.9.9,0,0,1,.136.755l-3.635,15.294a1.049,1.049,0,0,1-.411.755,1.2,1.2,0,0,1-.823.274Zm-19,0a.88.88,0,0,1-.686-.274.9.9,0,0,1-.137-.755l2.675-11.453c-.068.136-.137.274-.206.411a5.169,5.169,0,0,1-.686.96l-2.332,3.018h-.686a.623.623,0,0,1-.48-.206.631.631,0,0,1-.206-.343l-.754-2.469a1.625,1.625,0,0,1-.137-.549c0-.137-.068-.343-.068-.48v-.411l-2.675,11.454a1.3,1.3,0,0,1-.48.754,1.2,1.2,0,0,1-.823.275h-.617a.881.881,0,0,1-.686-.275.9.9,0,0,1-.137-.754l3.5-15.3a1.633,1.633,0,0,1,.411-.754,1.034,1.034,0,0,1,.755-.274h.754a.691.691,0,0,1,.754.617l1.646,5.144,3.979-5.144a1.413,1.413,0,0,1,1.1-.617h1.715l-3.773,16.323a.636.636,0,0,1-.274.823,1.2,1.2,0,0,1-.823.274Zm-15.5,0a.881.881,0,0,1-.686-.274.9.9,0,0,1-.137-.755l3.636-15.294a1.3,1.3,0,0,1,.48-.755,1.2,1.2,0,0,1,.823-.274h.617a.88.88,0,0,1,.686.274c.206.207.206.412.137.755l-3.567,15.294a2.154,2.154,0,0,1-.549.755,1.2,1.2,0,0,1-.823.274Zm-52.813,0a.88.88,0,0,1-.686-.274.9.9,0,0,1-.137-.755l2.675-11.453-.206.411a5.122,5.122,0,0,1-.686.96l-2.263,3.018h-.686a.623.623,0,0,1-.48-.206.623.623,0,0,1-.206-.343l-.754-2.469a1.6,1.6,0,0,1-.137-.549c0-.137-.069-.343-.069-.48v-.411l-2.675,11.454a1.3,1.3,0,0,1-.479.754,1.2,1.2,0,0,1-.823.275h-.617a.881.881,0,0,1-.686-.275.9.9,0,0,1-.137-.754l3.5-15.3a1.633,1.633,0,0,1,.411-.754,1.032,1.032,0,0,1,.754-.274h.754a.692.692,0,0,1,.755.617l1.646,5.144,3.978-5.144a1.416,1.416,0,0,1,1.1-.617h1.715l-3.773,16.323a.744.744,0,0,1-.343.823,1.2,1.2,0,0,1-.823.274Zm-29.905,0a.879.879,0,0,1-.685-.274.9.9,0,0,1-.137-.755l3.292-13.924h-4.115l.343-1.44a.994.994,0,0,1,.48-.686,1.445,1.445,0,0,1,.754-.274h8.779a.8.8,0,0,1,.686.274.751.751,0,0,1,.136.686l-.342,1.44h-4.116l-3.223,13.924a1.309,1.309,0,0,1-.48.755,1.2,1.2,0,0,1-.822.274Zm277.851-5.624a.883.883,0,0,1-.686-.274c-.206-.206-.206-.412-.137-.755l2.333-9.67a1.306,1.306,0,0,1,.479-.755,1.2,1.2,0,0,1,.823-.274h.618a.88.88,0,0,1,.685.274c.207.207.207.412.137.755l-2.263,9.67a1.933,1.933,0,0,1-.549.755,1.2,1.2,0,0,1-.823.274Zm-4.252-13.649a.88.88,0,0,1-.686-.274.632.632,0,0,1-.137-.686l.275-1.235a1.3,1.3,0,0,1,.479-.755,1.2,1.2,0,0,1,.823-.274h.617a.669.669,0,0,1,.618.274.9.9,0,0,1,.137.755l-.275,1.235a2.471,2.471,0,0,1-.48.686,1.03,1.03,0,0,1-.754.274Zm-41.839,0a.877.877,0,0,1-.686-.275.9.9,0,0,1-.137-.754l.275-1.235a1.3,1.3,0,0,1,.48-.754,1.2,1.2,0,0,1,.822-.275h.618a.669.669,0,0,1,.617.275.9.9,0,0,1,.137.754l-.275,1.3a1.158,1.158,0,0,1-.479.685,1.031,1.031,0,0,1-.755.275Zm-156.176-.206a.783.783,0,0,1-.549-.206.738.738,0,0,1-.137-.549l.069-.412a.942.942,0,0,1,.343-.549,1.1,1.1,0,0,1,.617-.206h3.841a.778.778,0,0,1,.549.206.738.738,0,0,1,.137.549l-.068.412a.847.847,0,0,1-.275.549,1.111,1.111,0,0,1-.617.206Z" transform="translate(8233.23 2079.34)"/>
</svg>
