<svg xmlns="http://www.w3.org/2000/svg" xmlns:xlink="http://www.w3.org/1999/xlink" viewBox="3086.435 615.473 40 40">
  <defs>
    <style>
      .cls-1 {
        fill: #f7e60f;
      }

      .cls-2 {
        fill: url(#linear-gradient);
      }
    </style>
    <linearGradient id="linear-gradient" x1="0.206" y1="0.165" x2="0.795" y2="0.865" gradientUnits="objectBoundingBox">
      <stop offset="0" stop-color="#234491"/>
      <stop offset="1" stop-color="#2b8b56"/>
    </linearGradient>
  </defs>
  <g id="tukenmis_icon" transform="translate(3094.737 624.355)">
    <circle id="Ellipse_5" data-name="Ellipse 5" class="cls-1" cx="20" cy="20" r="20" transform="translate(-8.302 -8.882)"/>
    <path id="tukenmis_icon-2" data-name="tukenmis_icon" class="cls-2" d="M15.942,20.5a2.277,2.277,0,1,1,2.277,2.277A2.278,2.278,0,0,1,15.942,20.5Zm-11.387,0a2.278,2.278,0,1,1,2.277,2.277A2.278,2.278,0,0,1,4.555,20.5Zm2.278-3.416A2.287,2.287,0,0,1,4.555,14.8a4.091,4.091,0,0,1,.228-1.139l1.594-2.733-4.1-8.654H0V0H3.76L4.783,2.277H21.636a1.076,1.076,0,0,1,1.139,1.139.63.63,0,0,1-.228.572l-4.1,7.4a2.082,2.082,0,0,1-1.938,1.138H8.083L7.06,14.46v.116a.245.245,0,0,0,.228.228H20.5v2.277ZM15.4,10.4l.911-.9L13.96,7.154l2.349-2.349L15.4,3.9,13.053,6.247,10.7,3.9,9.8,4.805,12.142,7.15,9.793,9.5l.906.906,2.349-2.349Z" transform="translate(0.014 0.015)"/>
  </g>
</svg>
