<svg id="Layer_2" data-name="Layer 2" xmlns="http://www.w3.org/2000/svg" viewBox="0 0 250 250">
  <defs>
    <style>
      .cls-1 {
        fill: #f7e60f;
      }
    </style>
  </defs>
  <title>yeniler_no_anim</title>
  <g id="yeniler_icon" data-name="yeniler icon">
    <g id="Group_5" data-name="Group 5">
      <path id="Subtraction_1" data-name="Subtraction 1" class="cls-1" d="M77.69,174.34h0A79.06,79.06,0,0,0,76.12,159a77.44,77.44,0,0,0-4.53-14.58,77.06,77.06,0,0,0-7.16-13.22A78.28,78.28,0,0,0,55,119.69a78.15,78.15,0,0,0-11.49-9.53A77.8,77.8,0,0,0,30.25,103a78.27,78.27,0,0,0-14.58-4.56A78.57,78.57,0,0,0,0,96.8v-.41a79,79,0,0,0,15.57-1.6,77.28,77.28,0,0,0,14.5-4.49,77.82,77.82,0,0,0,13.14-7.1,77.87,77.87,0,0,0,11.46-9.43,78.35,78.35,0,0,0,9.49-11.39,78.79,78.79,0,0,0,7.2-13.07A78.09,78.09,0,0,0,76,34.85a78,78,0,0,0,1.72-15.53h0A77.42,77.42,0,0,0,91.23,62.38a78.43,78.43,0,0,0,9.49,11.4,77.19,77.19,0,0,0,39.11,21,78.18,78.18,0,0,0,15.56,1.6v.42a77.86,77.86,0,0,0-77.7,77.54Z"/>
      <path id="Subtraction_5" data-name="Subtraction 5" class="cls-1" d="M126.32,230.68h0a31.21,31.21,0,0,0-31.26-31.15v-.17a31.36,31.36,0,0,0,6.26-.64,30.64,30.64,0,0,0,5.84-1.82,30.26,30.26,0,0,0,5.28-2.86,31.37,31.37,0,0,0,13.87-25.69h0a31.84,31.84,0,0,0,2.56,12.06,31.46,31.46,0,0,0,22.46,18.3,32.15,32.15,0,0,0,6.27.65v.16a32.64,32.64,0,0,0-6.31.65,31.45,31.45,0,0,0-22.52,18.52,30.8,30.8,0,0,0-1.82,5.88A31.36,31.36,0,0,0,126.32,230.68Z"/>
      <path id="Subtraction_9" data-name="Subtraction 9" class="cls-1" d="M191.8,186.92h0a59.76,59.76,0,0,0-1.18-11.47,58.16,58.16,0,0,0-3.37-10.94,57.41,57.41,0,0,0-5.37-9.9,58.38,58.38,0,0,0-48.28-25.77v-.31a59.3,59.3,0,0,0,11.66-1.19,58.42,58.42,0,0,0,45.25-44.9A59.2,59.2,0,0,0,191.8,70.8h0a59.19,59.19,0,0,0,1.28,11.64A58.36,58.36,0,0,0,250,128.52v.31A59.22,59.22,0,0,0,238.27,130a58.47,58.47,0,0,0-41.89,34.46,59.31,59.31,0,0,0-4.58,22.46Z"/>
    </g>
  </g>
</svg>
