<svg xmlns="http://www.w3.org/2000/svg" viewBox="0 0 20 20">
  <defs>
    <style>
      .cls-1 {
        fill: #fff;
        stroke: #000;
        stroke-miterlimit: 10;
      }

      .cls-2 {
        fill: #3b5998;
      }
    </style>
  </defs>
  <g id="FB-Icon" transform="translate(0 0)">
    <ellipse id="Ellipse_12" data-name="Ellipse 12" class="cls-1" cx="7.499" cy="7.498" rx="7.499" ry="7.498" transform="translate(2.933 2.502)"/>
    <g id="Group_3" data-name="Group 3" transform="translate(0 0)">
      <g id="svg_1_1_" transform="translate(0 0)">
        <path id="svg_2_1_" class="cls-2" d="M9.4-1023.979a10.021,10.021,0,0,0-3.731.969A10.025,10.025,0,0,0,.2-1015.992,10.017,10.017,0,0,0,1-1009.651a10.015,10.015,0,0,0,7.012,5.453,10.018,10.018,0,0,0,6.341-.793,10.057,10.057,0,0,0,4.66-4.66,9.925,9.925,0,0,0,.909-3.053,9.99,9.99,0,0,0-.909-5.64,10.058,10.058,0,0,0-4.66-4.66A9.987,9.987,0,0,0,9.4-1023.979Zm4.079,5.444-.007,1.091-1.061.012c-1.2.014-1.125,0-1.254.2s-.141.281-.141,1.139v.779h2.467v2.052H11.018v6.133H8.643v-6.133H6.521v-2.052H8.643v-.74a4.463,4.463,0,0,1,.129-1.421,2.954,2.954,0,0,1,1.976-2.048,5.731,5.731,0,0,1,1.649-.1l1.088,0Z" transform="translate(-0.003 1023.998)"/>
      </g>
    </g>
  </g>
</svg>
