<?xml version="1.0" encoding="utf-8"?>
<!-- Generator: Adobe Illustrator 22.0.1, SVG Export Plug-In . SVG Version: 6.00 Build 0)  -->
<svg version="1.1" id="Layer_1" xmlns="http://www.w3.org/2000/svg" xmlns:xlink="http://www.w3.org/1999/xlink" x="0px" y="0px"
	 viewBox="0 0 164.3 47" style="enable-background:new 0 0 164.3 47;" xml:space="preserve">
<style type="text/css">
	.st0{fill:#F7E60F;}
	.st1{clip-path:url(#SVGID_2_);}
	.st2{clip-path:url(#SVGID_4_);}
	.st3{fill:#DDDDDD;}
	.st4{fill:#FFFFFF;}
	.st5{fill:#4BBCDB;}
	.st6{fill:#2B8B56;}
	.st7{fill:#93C152;}
	.st8{fill:#D3A08A;}
	.st9{opacity:0.41;fill:#319960;enable-background:new    ;}
	.st10{opacity:0.45;fill:#B88C79;enable-background:new    ;}
	.st11{opacity:0.53;fill:#B88C79;enable-background:new    ;}
	.st12{opacity:0.46;fill:#2E955D;enable-background:new    ;}
	.st13{fill:#BC8E84;}
	.st14{fill:#A0786D;}
	.st15{fill:#8E6A5E;}
	.st16{fill:#66B162;}
	.st17{fill:#E2C0DC;}
	.st18{fill:#BA93B1;}
	.st19{fill:#9B7C95;}
	.st20{fill:#774F69;}
	.st21{fill:#236E45;}
	.st22{fill:#1B4C14;}
	.st23{fill:#2C8B57;}
</style>
<g id="Group_131" transform="translate(332 -270)">
	<rect id="Rectangle_85" x="-332" y="278.5" class="st0" width="164" height="30"/>
</g>
<g>
	<g>
		<defs>
			<path id="SVGID_1_" d="M35.5,38.5c0,0-0.6,6.2-6.7,7.7L26.2,47H0V0h40.5v38.5H35.5z"/>
		</defs>
		<clipPath id="SVGID_2_">
			<use xlink:href="#SVGID_1_"  style="overflow:visible;"/>
		</clipPath>
		<g class="st1">
			<g>
				<defs>
					<rect id="SVGID_3_" x="-4.5" width="45" height="48.3"/>
				</defs>
				<clipPath id="SVGID_4_">
					<use xlink:href="#SVGID_3_"  style="overflow:visible;"/>
				</clipPath>
				<g id="bf-descp-04" class="st2">
					<g id="Group_111">
						
							<ellipse id="Ellipse_64" transform="matrix(0.9841 -0.1778 0.1778 0.9841 -3.3873 6.1998)" class="st3" cx="32.9" cy="22" rx="5.1" ry="7.9"/>
						
							<ellipse id="Ellipse_65" transform="matrix(0.99 -0.141 0.141 0.99 -2.6346 5.0047)" class="st4" cx="34" cy="21.1" rx="3.5" ry="4.7"/>
						<circle id="Ellipse_66" class="st5" cx="33.7" cy="20.9" r="3.3"/>
						<circle id="Ellipse_67" cx="33.7" cy="20.9" r="2"/>
						<circle id="Ellipse_68" class="st4" cx="35" cy="19.5" r="0.7"/>
						<circle id="Ellipse_69" class="st4" cx="35.7" cy="20.7" r="0.4"/>
						<path id="Path_203" class="st6" d="M37.3,18.7c-0.2-0.2-0.3-0.5-0.5-0.7s-0.4-0.4-0.6-0.6c-0.2-0.2-0.4-0.4-0.6-0.5
							c-0.2-0.1-0.4-0.2-0.7-0.2c-0.1,0-0.2,0-0.3,0.1s-0.2,0.1-0.2,0.2c-0.1,0.1-0.1,0.2-0.2,0.3c-0.1,0.1-0.1,0.2-0.1,0.4
							c-0.1,0.5-0.2,1-0.3,1.6l-0.9-0.1c0.1-0.6,0.3-1.1,0.5-1.7c0.1-0.1,0.1-0.3,0.2-0.4c0.1-0.1,0.2-0.3,0.3-0.4s0.3-0.2,0.4-0.3
							c0.2-0.1,0.3-0.1,0.5-0.1s0.3,0.1,0.5,0.1c0.1,0.1,0.3,0.2,0.4,0.2c0.2,0.2,0.4,0.4,0.6,0.6c0.2,0.2,0.3,0.5,0.5,0.7
							C37,18.2,37.1,18.5,37.3,18.7L37.3,18.7z"/>
						<path id="Path_204" class="st7" d="M-3.5,50c0,0,4.1-6.4,3.7-9.7l-1.1-3l4.3,1l4.9-1l6.8,5.1l6.2,3.1l6.6,0.4l3.9-1.7l2.2-3.1
							l0.8-3.6V34l-0.9-3h-0.7c0,0,0.7,8.2-4.3,10.7S15.5,42,10.8,33.2c0,0-2.8-4.6-2.5-6.6c0,0,3.8,4,9.3,5c5.5,1,14.9,1,20.1-2
							l0.8-1.4l-0.3-1.3l-0.1-0.4c0.2-0.2,0.4-0.5,0.4-0.8c-0.1-0.5-0.9,0-0.9,0s-1.5,0.6-2,0.1s-2.1-1.7-2.3-6
							c-0.1-3.1,0.1-6.1,0.6-9.2l-0.4-2.1L30.3,9l-4.2,0.7l-1.9-1l-2.5-5.4l-2.5-1.9l-2.5,1.1L14,6.1l-0.7,1.5l-3,1.1l-3.7,3
							c0,0-1.9-1.4-2-1.4s-4-1.1-4-1.1L-3,9.4l-2.9,1.4l-4,6.1l-1.9,10.8l4.7,17.4L-3.5,50z"/>
						<path id="Path_205" class="st6" d="M-5.3,26.3c0,0-0.1-6,2.1-8.8s-0.9,7.1,1.4,8.6C-3,26.3-4.1,26.4-5.3,26.3z"/>
						<path id="Path_206" class="st6" d="M1.3,23.4c0,0-1.5-2.6-0.2-4.8s0.9,3.6,3.2,3.2C4.3,21.8,2,23.1,1.3,23.4z"/>
						<path id="Path_207" class="st6" d="M0.7,34.4c0,0,1.1-2,3.1-2s-2,2-0.9,3.3C2.9,35.7,1.2,34.8,0.7,34.4z"/>
						<path id="Path_208" class="st6" d="M1.8,8.9c0,0,0.1,5.4-1.8,7.9S0.7,10.4-1.2,9C-0.2,8.9,0.8,8.9,1.8,8.9z"/>
						<g id="Group_109">
							<g id="Group_108">
								<path id="Path_209" class="st6" d="M17.1,31.9h0.2l0.5,0.1c0.2,0,0.5,0.1,0.7,0.1c0.5,0.1,0.9,0.2,1.4,0.2
									c1,0.1,2,0.2,2.9,0.3c0.4,0,0.9,0,1.4,0s0.9,0,1.4,0s1,0,1.5-0.1c0.5,0,1-0.1,1.4-0.1s0.9-0.1,1.3-0.1
									c0.4-0.1,0.8-0.1,1.2-0.2c0.8-0.1,1.6-0.3,2.4-0.5l0,0v0.2c0,0.2,0,0.3-0.1,0.5c0,0.2-0.1,0.3-0.1,0.5l-0.1,0.3
									c0,0.1,0,0.2-0.1,0.3c-0.1,0.3-0.1,0.6-0.2,0.9l-0.1,0.4c-0.1,0.4-0.2,0.9-0.3,1.2c-0.1,0.2-0.1,0.4-0.2,0.7
									S32.1,37,32,37.2c-0.2,0.4-0.4,0.8-0.6,1.2s-0.4,0.8-0.7,1.1c-0.5,0.6-1,1.1-1.6,1.5c-0.2,0.2-0.5,0.4-0.8,0.5
									s-0.5,0.3-0.8,0.4c-0.3,0.1-0.6,0.2-1,0.3c-0.3,0.1-0.7,0.2-1,0.2c-0.7,0.1-1.5,0.1-2.2,0c-0.4-0.1-0.9-0.2-1.3-0.3
									c-1.2-0.3-2.4-0.8-3.4-1.5c-0.6-0.4-1.1-0.8-1.7-1.2c-0.4-0.3-0.7-0.6-1.1-0.9c-0.4-0.4-0.8-0.7-1.1-1.1L14.3,37l-0.1,0
									c-0.2-0.2-0.4-0.4-0.6-0.6c-0.3-0.4-0.6-0.8-0.9-1.2c-1.2-1.7-2.3-3.5-3.1-5.4l-0.1-0.2l0,0l-0.4-1.1l-0.3-0.8v-0.1v-0.1
									l-0.1-0.1l0,0l0.1,0.1c0.2,0.2,0.3,0.4,0.5,0.6c0.4,0.3,0.8,0.7,1.2,0.9c0.4,0.3,0.8,0.5,1.2,0.7s0.8,0.4,1.3,0.6
									s0.9,0.4,1.4,0.6s0.9,0.3,1.3,0.5c0.2,0.1,0.3,0.1,0.6,0.2C16.4,31.8,16.8,31.9,17.1,31.9L17.1,31.9z"/>
								<path id="Path_210" class="st8" d="M33.3,31.7c-0.7,0.2-1.5,0.4-2.4,0.5c-0.4,0.1-0.8,0.1-1.2,0.2c-0.4,0.1-0.8,0.1-1.3,0.1
									s-0.9,0.1-1.4,0.1s-1,0.1-1.5,0.1s-1,0-1.4,0s-0.9,0-1.4,0c-0.9,0-1.9-0.1-2.9-0.3c-0.5-0.1-1-0.2-1.4-0.2
									c-0.3,0-0.5-0.1-0.7-0.1L17.2,32H17c-0.3-0.1-0.6-0.1-0.9-0.2c-0.3-0.1-0.4-0.1-0.6-0.2c-0.4-0.1-0.9-0.3-1.3-0.5
									c-0.5-0.2-0.9-0.4-1.4-0.6c-0.4-0.2-0.9-0.4-1.3-0.6c-0.4-0.2-0.8-0.5-1.2-0.7c-0.4-0.3-0.8-0.6-1.2-0.9
									c-0.2-0.2-0.4-0.4-0.5-0.6l-0.1-0.1l0.1,0.2v0.1l0.3,0.8l0.5,1l0,0c0,0.1,0.1,0.2,0.1,0.3c0.8,1.9,1.8,3.7,3.1,5.4
									c0.3,0.4,0.6,0.8,0.9,1.2c0.2,0.2,0.3,0.4,0.6,0.6l0.1,0.2l0.4,0.4c0.3,0.4,0.7,0.7,1.1,1.1c0.4,0.4,0.7,0.6,1.1,0.9
									c0.5,0.4,1.1,0.8,1.7,1.2c1.1,0.7,2.2,1.2,3.4,1.5c0.4,0.1,0.8,0.2,1.3,0.3c0.7,0.1,1.5,0.1,2.2,0c0.3,0,0.7-0.1,1-0.2
									c0.3-0.1,0.7-0.2,1-0.3s0.5-0.2,0.8-0.4s0.5-0.3,0.8-0.5c0.6-0.4,1.1-1,1.6-1.5c0.3-0.3,0.5-0.7,0.7-1.1
									c0.2-0.4,0.4-0.8,0.6-1.2c0.1-0.2,0.1-0.4,0.2-0.6c0.1-0.2,0.2-0.5,0.2-0.7c0.1-0.4,0.2-0.8,0.3-1.2l0.1-0.4
									c0.1-0.3,0.1-0.6,0.2-0.9c0-0.1,0-0.2,0.1-0.3l0.1-0.3c0-0.2,0-0.3,0.1-0.5c0-0.2,0-0.3,0.1-0.5L33.3,31.7L33.3,31.7z"/>
								<path id="Path_211" class="st9" d="M33.2,32.9"/>
								<path id="Path_212" class="st10" d="M24.5,32.7c-3.1,0-6.3-0.6-9.2-1.5l-0.4-0.1L14.4,31l0,0c-0.1,0-0.2-0.1-0.3-0.1
									L14,30.8l-0.2-0.1l-0.3-0.1l-0.4-0.2c-0.2-0.1-0.3-0.1-0.5-0.2S12.1,30,12,29.9l-0.6-0.3l-0.1-0.1L11,29.4l-0.3-0.2
									l-0.5-0.3l-0.3-0.2c-0.3-0.2-0.5-0.3-0.8-0.5c0,0.2,0,0.3,0.1,0.5c0.2,1,0.6,2,1.1,2.9c0.2,0.3,0.3,0.5,0.5,0.8
									c0.5,0.7,1,1.3,1.6,1.9c0.4,0.4,0.8,0.7,1.2,1c0.3,0.2,0.5,0.4,0.8,0.6c0.6,0.4,1.1,0.8,1.7,1.1c0.3,0.2,0.6,0.3,0.9,0.5
									c0.6,0.3,1.2,0.5,1.8,0.7c0.9,0.3,1.8,0.5,2.7,0.6c0.7,0.1,1.4,0.1,2.1,0.1c0.9,0,1.9-0.2,2.8-0.4s1.7-0.5,2.5-0.9
									c1.4-0.6,2.7-1.5,3.9-2.5V35c0.1-0.2,0.1-0.5,0.2-0.7v-0.1c0-0.2,0.1-0.3,0.1-0.5s0.1-0.3,0.1-0.4l0,0c0-0.2,0-0.4,0.1-0.6
									s0-0.4,0.1-0.6v-0.2v-0.1c0,0,0,0,0-0.1C30.4,32.4,27.4,32.8,24.5,32.7z"/>
								<path id="Path_213" class="st10" d="M24.5,32.7c-3.1,0-6.3-0.6-9.2-1.5l-0.4-0.1L14.4,31l0,0c-0.1,0-0.2-0.1-0.3-0.1
									L14,30.8l-0.2-0.1l-0.3-0.1l-0.4-0.2c-0.2-0.1-0.3-0.1-0.5-0.2S12.1,30,12,29.9l-0.6-0.3l-0.1-0.1L11,29.4l-0.1-0.1
									c0.2,0.2,0.3,0.5,0.5,0.7s0.4,0.6,0.6,0.9c0.1,0.1,0.1,0.2,0.2,0.2c0.2,0.3,0.4,0.6,0.7,0.8c0.1,0.1,0.2,0.2,0.3,0.3
									c0.1,0.1,0.2,0.2,0.4,0.3c0.7,0.6,1.3,1.1,2,1.6c0.2,0.2,0.5,0.4,0.7,0.5l0.5,0.3c0.2,0.1,0.3,0.2,0.5,0.2
									c0.5,0.2,1,0.4,1.6,0.6c0.2,0.1,0.3,0.1,0.5,0.2l0.2,0.1h0.1c0.2,0.1,0.4,0.1,0.6,0.1c0.7,0.2,1.4,0.3,2.2,0.4
									c0.7,0.1,1.4,0.1,2.1,0c0.9-0.1,1.8-0.2,2.7-0.4c0.3-0.1,0.6-0.2,0.9-0.3c0.2-0.1,0.3-0.1,0.5-0.2c0.3-0.1,0.7-0.2,1-0.4
									s0.6-0.3,0.9-0.5c0.4-0.2,0.8-0.5,1.1-0.8c0.5-0.4,0.9-0.8,1.3-1.2c0.2-0.2,0.4-0.4,0.6-0.6v-0.3v-0.1c0,0,0,0,0-0.1
									C30.4,32.4,27.4,32.8,24.5,32.7z"/>
								<path id="Path_214" class="st10" d="M24.5,32.7c-3.1,0-6.3-0.6-9.2-1.5l-0.4-0.1L14.4,31l0,0c-0.1,0-0.2-0.1-0.3-0.1
									L14,30.8l-0.2-0.1c-0.1,0-0.2-0.1-0.3-0.1l-0.4-0.2c-0.2-0.1-0.3-0.1-0.5-0.2S12.1,30,12,29.9l0,0l0.3,0.2
									c0.3,0.2,0.6,0.5,0.9,0.7c0.3,0.2,0.6,0.4,0.8,0.6c0.3,0.2,0.5,0.3,0.8,0.5c0.1,0.1,0.3,0.1,0.4,0.2s0.3,0.1,0.4,0.2
									c0.7,0.3,1.4,0.6,2.1,0.9c0.7,0.3,1.4,0.5,2,0.7c0.7,0.2,1.2,0.4,1.9,0.6c0.7,0.2,1.5,0.4,2.2,0.4c0.2,0,0.4,0.1,0.6,0.1H26
									c0.4,0,0.8-0.1,1.2-0.1c0.4-0.1,0.6-0.1,1-0.2c0.3-0.1,0.7-0.2,1-0.3c0.1,0,0.3-0.1,0.4-0.1l0.6-0.3c1.1-0.4,2-0.9,2.9-1.7
									c0-0.1,0-0.2,0-0.3c0-0.1,0-0.1,0-0.2v-0.1c0,0,0,0,0-0.1C30.4,32.4,27.4,32.8,24.5,32.7z"/>
								<path id="Path_215" class="st11" d="M24.5,32.7c-3.1,0-6.3-0.6-9.2-1.5l-0.4-0.1L14.4,31l0,0c-0.1,0-0.2-0.1-0.3-0.1
									L14,30.8l-0.2-0.1l-0.3-0.1l-0.4-0.2c-0.2-0.1-0.3-0.1-0.5-0.2h-0.1c0.4,0.3,0.7,0.7,1.1,1c0.4,0.3,0.6,0.6,1,0.9
									c0.2,0.2,0.5,0.4,0.8,0.6c0.1,0.1,0.3,0.2,0.4,0.2c0.3,0.2,0.6,0.3,0.9,0.4c0.3,0.1,0.6,0.2,1,0.4s0.6,0.2,0.9,0.3h0.2
									c0.3,0.1,0.5,0.1,0.8,0.2c0.7,0.1,1.3,0.3,2,0.4c0.5,0.1,1.1,0.1,1.6,0.2c0.3,0,0.6,0,1,0.1s0.7,0,1,0h0.4
									c0.3,0,0.7-0.1,1-0.1c0.7-0.1,1.3-0.3,1.9-0.6c0.4-0.2,0.9-0.4,1.3-0.6l0.8-0.4c0.3-0.1,0.6-0.3,0.9-0.5
									c0.3-0.1,0.6-0.3,0.8-0.4l0,0C29.5,32.6,27,32.8,24.5,32.7L24.5,32.7z"/>
								<path id="Path_216" class="st12" d="M28.8,21.7"/>
								<path id="Path_217" class="st12" d="M28.8,21.7L28.8,21.7z"/>
							</g>
							<path id="Path_218" class="st13" d="M33.3,31.7c-0.7,0.2-1.5,0.4-2.4,0.5c-0.4,0.1-0.8,0.1-1.2,0.2c-0.4,0.1-0.8,0.1-1.3,0.1
								s-0.9,0.1-1.4,0.1s-1,0.1-1.5,0.1s-1,0-1.4,0s-0.9,0-1.4,0c-0.9,0-1.9-0.1-2.9-0.3c-0.5-0.1-1-0.2-1.4-0.2
								c-0.3,0-0.5-0.1-0.7-0.1L17.2,32H17c-0.3-0.1-0.6-0.1-0.9-0.2c-0.3-0.1-0.4-0.1-0.6-0.2c-0.4-0.1-0.9-0.3-1.3-0.5
								c-0.5-0.2-0.9-0.4-1.4-0.6c-0.4-0.2-0.9-0.4-1.3-0.6c-0.4-0.2-0.8-0.5-1.2-0.7c-0.4-0.3-0.8-0.6-1.2-0.9
								c-0.2-0.2-0.4-0.4-0.5-0.6l-0.1-0.1l0.1,0.2v0.1l0.3,0.8l0.5,1l0,0c0,0.1,0.1,0.2,0.1,0.3c0.8,1.9,1.8,3.7,3.1,5.4
								c0.3,0.4,0.6,0.8,0.9,1.2c0.2,0.2,0.3,0.4,0.6,0.6l0.1,0.2l0.4,0.4c0.3,0.4,0.7,0.7,1.1,1.1c0.4,0.4,0.7,0.6,1.1,0.9
								c0.5,0.4,1.1,0.8,1.7,1.2c1.1,0.7,2.2,1.2,3.4,1.5c0.4,0.1,0.8,0.2,1.3,0.3c0.7,0.1,1.5,0.1,2.2,0c0.3,0,0.7-0.1,1-0.2
								c0.3-0.1,0.7-0.2,1-0.3s0.7,0.3,1,0.2c0.3-0.2,0.5-0.3,0.8-0.5c0.6-0.5,1.1-1,1.5-1.5c0.3-0.3,0.5-0.7,0.7-1.1
								c0.2-0.4,0.4-0.8,0.6-1.2c0.1-0.2,0.2-0.4,0.2-0.6c0.1-0.2,0.2-0.5,0.2-0.7c0.1-0.4,0.2-0.8,0.3-1.2L33,35
								c0.1-0.3,0.1-0.6,0.2-1l0.1-0.3c0-0.1,0-0.2,0-0.3s0.1-0.3,0.1-0.5s0-0.3,0.1-0.5v-0.2l-0.1-0.8L33.3,31.7L33.3,31.7z"/>
							<path id="Path_219" class="st9" d="M33.2,32.9"/>
							<path id="Path_220" class="st14" d="M24.5,32.7c-3.1,0-6.3-0.6-9.2-1.5l-0.4-0.1L14.4,31l0,0c-0.1,0-0.2-0.1-0.3-0.1L14,30.8
								l-0.2-0.1c-0.1,0-0.1-0.3-0.2-0.4L13,30.1l-0.5-0.2c-0.1-0.1-0.3-0.1-0.4-0.2l-0.6-0.3l-0.1-0.1l-0.3-0.2
								c-0.1,0-0.2-0.1-0.3-0.1l-0.5-0.3c-0.1-0.1-0.2-0.1-0.3-0.2c-0.3-0.2-1.5-1.1-1.8-1.2c0,0.2,0.4,1.2,0.4,1.4
								c0.1,0.7,0.9,1.4,1.2,2.1c0.1,0.3,0.3,0.6,0.5,0.9s0.3,0.5,0.5,0.8c0.5,0.7,1,1.3,1.6,1.9c0.4,0.4,0.8,0.7,1.2,1
								c0.3,0.2,0.5,0.4,0.8,0.6c0.6,0.4,1.1,0.8,1.7,1.1c0.3,0.2,0.6,0.3,0.9,0.5c0.6,0.3,1.2,0.5,1.8,0.7c0.9,0.3,1.8,0.5,2.7,0.6
								c0.7,0.1,1.4,0.1,2.1,0.1c0.9,0,1.9-0.2,2.8-0.4s1.7-0.5,2.5-0.9c0.6-0.3,1.2-0.6,1.8-0.9c0.9-0.6,1.7-1.2,2.4-1.9
								c0,0,0,0,0-0.1c0.1-0.2,0.1-0.5,0.2-0.7V34c0-0.2,0.1-0.3,0.1-0.5s0.1-0.3,0.1-0.4l0,0c0-0.2-0.1-0.6-0.1-0.7
								c0-0.2,0-0.4,0.1-0.6c0-0.1,0-0.1,0-0.2v-0.1v-0.1c-2.7,0.7-5.9,1.5-9.1,1.5L24.5,32.7z"/>
							<path id="Path_221" class="st15" d="M24.5,32.7c-3.1,0-6.3-0.6-9.2-1.5l-0.4-0.1L14.4,31l0,0c-0.1,0-0.2-0.1-0.3-0.1L14,30.8
								l-0.2-0.1c-0.1,0-0.5-0.5-0.7-0.6l-0.4-0.2c-0.2-0.1-0.3-0.1-0.5-0.2l-0.4-0.2l-0.5-0.3L11,29.1L10.7,29l-0.1-0.1l0.8,1.1
								c0.2,0.2,0.4,0.6,0.6,0.9c0.1,0.1,0.1,0.2,0.2,0.2c0.2,0.3,0.4,0.6,0.7,0.8c0.1,0.1,0.2,0.2,0.3,0.3c0.1,0.1,0.2,0.2,0.4,0.3
								c0.7,0.6,1.3,1.1,2,1.6c0.2,0.2,0.5,0.4,0.7,0.5l0.5,0.3c0.2,0.1,0.3,0.2,0.5,0.2c0.5,0.2,1,0.4,1.6,0.6
								c0.2,0.1,0.3,0.1,0.5,0.2l0.2,0.1h0.1c0.2,0.1,0.4,0.1,0.6,0.1c0.7,0.2,1.4,0.3,2.2,0.4c0.7,0.1,1.4,0.1,2.1,0
								c0.9-0.1,1.8-0.2,2.7-0.4c0.3-0.1,0.6-0.2,0.9-0.3c0.2-0.1,0.3-0.1,0.5-0.2c0.3-0.1,0.7-0.2,1-0.4s0.6-0.3,0.9-0.5
								c0.4-0.2,0.8-0.5,1.1-0.8c0.5-0.4,0.9-0.8,1.3-1.2c0.2-0.2,0.6-0.7,0.7-1v-0.2l-0.1-0.1l0,0v-0.1
								C30.5,32.3,27.5,32.7,24.5,32.7z"/>
							<path id="Path_222" class="st12" d="M28.8,21.7"/>
							<path id="Path_223" class="st12" d="M28.8,21.7L28.8,21.7z"/>
						</g>
						<path id="Path_224" class="st6" d="M33.8,14.5c0,0,2.7,1.7,3.3,4.1c0,0-1.8-3-3.2-1.4l-0.8-0.1L33.8,14.5z"/>
						<path id="Path_225" class="st16" d="M38.5,25.9l-0.1-0.2l-0.2-0.2l-0.8,0.4L36.2,26l-1.3-0.7l-1.4-2.6l-0.2-6L33.2,13l1-3.7
							l-5.8,0.4L27,9.8l-3-0.6c1.1,1.4,2.4,2.3,4,2.1c6.7-0.8,1.6,0,2.3,9.6c0.6,7.1,3.8,7.3,5.4,6.9c0.4-0.1,0.8,0.2,0.9,0.6
							c0,0.1,0,0.3,0,0.4c-0.3,0.8-1,1.3-1.8,1.6h1.4l2.1-1.1l0.2-1.9l-0.2-0.9L38.5,25.9z"/>
						<path id="Path_226" class="st16" d="M21.6,3.9c0,0-1.9-3.3-3.4,3.8l-2.6-0.2L13.8,7l0.6-1.8L17.2,2l2.3-0.6L21,2.2L21.6,3.9z"
							/>
						<path id="Path_227" class="st6" d="M38.3,26.4L38.3,26.4c0.1-0.2,0.2-0.3,0.3-0.3c0.1-0.1,0.1-0.2,0.1-0.3c0-0.1,0-0.1,0-0.2
							s-0.1-0.1-0.2-0.1c-0.1,0-0.1,0-0.2,0c-0.1,0-0.1,0-0.2,0l0,0c-0.3,0.1-0.6,0.2-0.8,0.3c-0.3,0.1-0.6,0.1-0.8,0.1
							c-0.3,0-0.5-0.1-0.8-0.2c-0.2-0.1-0.4-0.3-0.6-0.5c-0.2-0.2-0.3-0.5-0.4-0.7c-0.1-0.3-0.2-0.5-0.3-0.8
							c-0.2-0.6-0.3-1.1-0.3-1.7c-0.1-1.2-0.2-2.4-0.1-3.5c0-1.2,0.1-2.4,0.2-3.6c0.1-1.2,0.3-2.4,0.5-3.5v-0.2V11
							c0-0.2,0.1-0.3,0.1-0.5s0-0.4,0-0.6c0-0.2-0.1-0.5-0.2-0.7c-0.1-0.1-0.2-0.2-0.3-0.3S34.1,8.7,34,8.7
							c-0.2-0.1-0.4-0.2-0.7-0.2c-0.2,0-0.4,0-0.6,0c-0.2,0-0.3,0-0.5,0.1c-0.3,0.1-0.6,0.1-0.9,0.2L30.4,9
							c-0.6,0.1-1.2,0.3-1.7,0.4C28.3,9,28,9,27.7,9.1h-0.4h-0.4c-0.1,0-0.2,0-0.4,0c-0.1,0-0.2,0-0.3-0.1c-0.2,0-0.4-0.1-0.6-0.2
							c-0.4-0.3-0.7-0.7-0.9-1.2c-0.3-0.5-0.5-1-0.7-1.6s-0.5-1.1-0.7-1.7c-0.3-0.6-0.6-1.1-1-1.7c-0.2-0.3-0.4-0.5-0.7-0.7
							c-0.3-0.2-0.5-0.5-0.8-0.7c-0.1-0.1-0.3-0.2-0.5-0.3S20,0.8,19.8,0.7s-0.4-0.1-0.6-0.1s-0.4,0-0.6,0c-0.4,0-0.7,0.2-1.1,0.3
							c-0.2,0.1-0.3,0.2-0.4,0.3s-0.3,0.2-0.4,0.3c-0.5,0.4-0.9,0.9-1.3,1.5c-0.4,0.5-0.7,1-1,1.6s-0.6,1.1-0.8,1.6l-0.2,0.3
							c-1.8,0.2-3.9,1-6,3.2c0,0,0.7-5.5-3.8-0.2c0,0,1.5-6.6-3.2-1.3c0,0,1.8-5.4-2.2-1.1l-2,2c-1.7,0-3.4,0.2-5.1,0.4
							c0,0-0.7,0.7,0.8,1.5s0.2,5.2,0,6.1c-0.2,0.8-1.9,5.2-1.2,5.4s4.5-4.8,4.7-9c0-0.3,0-0.6,0.1-0.9c0.2-1.4,1.2-2.5,2.6-2.8
							c1.5-0.3,3.7-0.2,6,2.1c0,0-4.1,4,0.3,6s-4.1,2.8-4.6,5.9s-3.9,1.3-7.2,2.3s-3.5,4.8,0.2,7.6c1.9,1.4,3.8,3,5.9,4
							c0.4,0.5,0.7,1,0.9,1.6c0.7,1.9-1.4,7.2-2.7,9.4l0.7,0.5c1-1.6,3.7-7.5,2.8-10.1c-0.1-0.3-0.2-0.5-0.3-0.8C2,39,4,39,5.8,38.3
							c0,0,0.1,4.2,2.1,1.5c0,0,0.7,4.2,2.7,1.1c0,0,0.3,4.5,2.4,1.2c0,0,0.5,4.3,2.5,1c0,0,0.2,3.9,2.2,1.3c0,0,7,4.4,13.5,0.8
							c6.2-3.5,4.2-11.4,3.2-14c0.5-0.2,0.9-0.3,1.4-0.5C35.8,30.8,40.1,29.8,38.3,26.4z M-5.4,33.9C-9,31.2-9.6,29.3-9,28.1
							c0.8-1.4,3.7-1.3,5.8-1.3c0.7,0.6,1.2,1.2,1.6,2c0.6-0.3,0.9-1.1,0.5-1.7c0,0,0,0,0-0.1c1.7,0.3,3.5,0.6,3.8-1.6
							c0.4-3,2.1-3.5,2.1-3.5c-0.9,2.5-1.2,5.3-0.8,7.9H3.8l-0.3,0.1C3.4,30,3.3,30,3.2,30l-0.3,0.1l-0.2,0.1c0-0.9-0.6-1.8-1.5-2
							c0.2,0.9-0.2,1.9-0.9,2.5h0H0h-0.6c-0.2,0-0.4,0-0.6,0h-0.4h-0.1h-0.1h-0.1H-2h-0.1c-0.4-0.1-0.8-0.3-1.1-0.4
							c-0.2-0.1-0.4-0.2-0.5-0.4c-0.2-0.1-0.3-0.2-0.5-0.4c0.1,0.2,0.2,0.4,0.3,0.6s0.3,0.3,0.4,0.5c0.3,0.3,0.7,0.6,1.1,0.8
							c0.3,0.2,0.7,0.3,1,0.4v0.1c-0.3,0.1-1,0.2-1.5,0.4C-4,32.3-4.3,33.5-5.4,33.9z M1.2,37.3C-0.3,37-1.7,36.4-3,35.6l-0.5-0.3
							c0.1-0.7,0.6-1.9,2.4-2.6c0.7,1.1,1.7,2.1,2.8,2.9C1.8,36.2,1.6,36.8,1.2,37.3z M2.6,37.4c0.1-0.4,0.2-0.8,0.1-1.2
							c0.5,0.3,0.9,0.5,1.4,0.8C4.1,37.2,3.5,37.4,2.6,37.4z M-1.1,31.6c0.4,0.1,0.7,0.1,1.1,0.1h0.3c0.1,0,0.2,0,0.3,0L1,31.6
							l0.3-0.1c0.4-0.1,0.8-0.3,1.2-0.4L2.8,31c0.1-0.1,0.2-0.1,0.3-0.1c0.2-0.1,0.4-0.2,0.6-0.3L4,30.3c0.5,2.5,1.7,4.8,3.5,6.5
							C7.5,36.8,2.7,37.3-1.1,31.6z M37.9,26.7c0.1,0,0.1-0.1,0.2-0.1c0.2,0.4,0.8,2.2-1.4,2.9c-2.4,0.8-16.4,6.6-28.3-3.4
							C8.3,26,8.2,25.9,8,25.9l0,0c-0.4-0.1-0.9,0.2-1,0.6c-0.3,0.8-0.3,1.7-0.1,2.5c0,0,0.4-2,1.1-2l0.2,0.2l0,0
							c0.1,0.4,0.2,0.9,0.4,1.3c0.3,0.9,0.6,1.7,0.9,2.5c0.7,1.6,1.6,3.2,2.6,4.7c0.3,0.4,0.5,0.7,0.8,1.1c0.3,0.4,0.6,0.7,0.9,1.1
							c0.6,0.7,1.2,1.3,1.9,1.9c0.7,0.6,1.4,1.2,2.2,1.6c0.8,0.5,1.6,0.9,2.5,1.3c0.9,0.3,1.8,0.5,2.7,0.7c0.2,0,0.5,0.1,0.7,0.1
							s0.5,0,0.7,0c0.5,0,0.9,0,1.4,0s0.9-0.1,1.4-0.3c0.5-0.1,0.9-0.3,1.3-0.5s0.8-0.4,1.2-0.7c0.4-0.3,0.7-0.6,1.1-0.9
							c0.3-0.3,0.6-0.7,0.9-1.1c0.3-0.4,0.5-0.8,0.7-1.2c0.4-0.8,0.7-1.7,0.8-2.6c0.2-0.9,0.3-1.8,0.3-2.7c0-0.6,0-1.2,0-1.8
							l0.5-0.2c0.3,1.9,1.7,11.2-5.1,13.3c-7.7,2.2-17.3-4.9-20-9.4c-2.8-4.5-3-5.4-3.4-8.6s1.6-6.1,2.3-7.6S9,17,8.4,15.5
							c0,0,0,2.2-1.1,2.5C7.3,18,6,7.5,18.2,7.7c-1.1-0.7-2.4-1-3.7-1.1c0.3-0.5,0.6-1,0.8-1.5c0.3-0.5,0.6-1,0.9-1.5
							c0.3-0.4,0.7-0.9,1.1-1.2s0.8-0.5,1.3-0.6c0.1,0,0.2,0,0.3,0c0.1,0,0.2,0,0.3,0.1c0.1,0,0.2,0.1,0.3,0.1
							c0.1,0.1,0.2,0.1,0.3,0.2c0.2,0.1,0.4,0.3,0.6,0.5s0.4,0.4,0.6,0.6c0.3,0.5,0.6,0.9,0.9,1.4c0.2,0.5,0.5,1.1,0.7,1.6
							c0.2,0.6,0.5,1.2,0.7,1.7c0.2,0.3,0.3,0.6,0.5,0.9c0.2,0.3,0.5,0.6,0.8,0.8s0.7,0.4,1,0.5c0.2,0,0.4,0.1,0.6,0.1s0.4,0,0.6,0
							h0.5l0.5-0.1c0.3,0,0.6-0.1,0.9-0.2c0.6-0.1,1.2-0.3,1.8-0.4c0.6-0.2,1.2-0.3,1.7-0.4l0.4-0.1c0.1,0,0.2,0,0.3,0s0.1,0,0.2,0
							c0,0,0,0,0.1,0c0,0.1,0.1,0.1,0.1,0.2c0,0.1,0,0.2,0,0.3s0,0.3,0,0.4v0.2v0.2c-0.1,0.6-0.2,1.2-0.2,1.8
							C33,12.8,33,13.4,32.9,14c-0.1,1.2-0.1,2.4-0.1,3.7c0,1.2,0.1,2.5,0.3,3.7c0.1,0.6,0.3,1.2,0.5,1.8c0.1,0.3,0.2,0.6,0.4,0.9
							s0.3,0.5,0.6,0.8c0.2,0.2,0.5,0.5,0.8,0.6s0.6,0.2,1,0.2c0.3,0,0.6-0.1,0.9-0.1c0.3-0.1,0.6-0.2,0.8-0.4c0.1,0,0.2,0,0.2,0
							h0.1v0.1c0,0.2-0.1,0.4-0.2,0.5C38.2,26.4,38.1,26.5,37.9,26.7c-0.2,0.1-0.3,0.2-0.5,0.3C37.6,26.9,37.8,26.8,37.9,26.7z
							 M33.4,31.6v0.5c0,0.4-0.1,0.9-0.1,1.3c-0.1,0.9-0.3,1.7-0.6,2.6c-0.2,0.8-0.6,1.6-1,2.4c-0.2,0.4-0.4,0.7-0.7,1.1
							c-0.2,0.3-0.5,0.7-0.8,0.9c-0.6,0.6-1.3,1-2.1,1.4c-0.8,0.3-1.6,0.5-2.4,0.6c-0.2,0-0.4,0-0.6,0s-0.4,0-0.6,0s-0.4,0-0.6,0
							s-0.4,0-0.6-0.1c-0.8-0.1-1.7-0.3-2.5-0.6s-1.6-0.7-2.3-1.1C17.7,40,17,39.5,16.4,39c-1.3-1.1-2.5-2.4-3.6-3.8
							c-1.1-1.4-2-2.9-2.8-4.4c-0.4-0.8-0.8-1.6-1.2-2.4c-0.1-0.3-0.3-0.6-0.4-1C10.5,29.2,19.5,35.8,33.4,31.6z"/>
						<path id="Path_228" class="st17" d="M14.4,61.7c1.4,1.6,3.3,2.8,5.4,3.4c0.5,0.1,1,0.2,1.5,0.3c0.5,0.1,1,0.1,1.6,0.1
							c1,0,2.1-0.1,3.1-0.3c4-0.8,7.5-3.6,9.7-7.1c0.6-0.9,1.1-1.8,1.5-2.7c0.4-1,0.8-1.9,1-2.9c0.5-2,0.7-4.1,0.4-6.1
							c-0.2-2-1.1-4-2.4-5.5c-0.7-0.8-1.5-1.4-2.5-1.9s-2-0.9-3.1-1.1l-0.5-0.1h0.5v0.1l0,0c-0.2,0-0.4-0.1-0.6-0.1h0.6v0.1l0,0
							v-0.1c1.1,0,2.3,0.1,3.3,0.4c1.1,0.4,2.1,0.9,3,1.7c0.5,0.4,0.9,0.8,1.2,1.3c0.4,0.5,0.7,1,1,1.5c0.6,1,1,2.2,1.2,3.3
							c0.5,2.3,0.4,4.7-0.1,7c-0.3,1.1-0.6,2.3-1.1,3.3c-0.4,1.1-1,2.1-1.6,3.1c-1.3,2-2.9,3.7-4.8,5.1c-1.9,1.4-4.2,2.3-6.5,2.6
							c-1.7,0.2-3.5,0.1-5.2-0.3c-0.6-0.1-1.1-0.3-1.7-0.6C17.3,65.3,15.5,63.7,14.4,61.7L14.4,61.7z"/>
						<path id="Path_229" class="st18" d="M39.6,47.7c-0.1-1.9-0.6-3.8-1.6-5.4c-0.5-0.9-1.2-1.6-1.9-2.3c-0.8-0.6-1.6-1.1-2.5-1.5
							c-0.9-0.3-1.8-0.6-2.7-0.7h-0.2c-0.2,0-0.3,0-0.4,0H30c-1.1-0.2-3.2-1-0.6-5.2c-3.5,0.6-7.1,0.5-10.6-0.2l-0.1,0.4
							c-0.1,0.4-0.2,0.9-0.2,1.3c0,0.9,0.2,1.8,0.7,2.6s1.1,1.4,1.9,1.9c0.7,0.5,1.5,0.9,2.2,1.2c1.5,0.6,3.2,1,4.8,1.3l1.2,0.2
							l0.5,0.1c0.2,0,0.3,0,0.5,0.1c0.6,0.1,1.2,0.3,1.7,0.6c1,0.5,1.8,1.3,2.2,2.3c0.5,1.1,0.7,2.3,0.6,3.4c-0.1,2.6-1,5.1-2.5,7.2
							c-0.7,1-1.5,2-2.5,2.7c-0.9,0.7-1.9,1.2-3,1.5c-1,0.2-2.1,0.2-3.1,0c-0.2,0-0.5-0.1-0.7-0.2c-0.2-0.1-0.4-0.2-0.6-0.3
							c-0.4-0.2-0.7-0.4-1-0.7c-0.8-0.7-1.6-1.5-2.2-2.3c-0.4-0.5-0.8-1.1-1.2-1.7c-0.4-0.6-0.8-1.3-1.3-2c-0.2-0.3-0.5,2-0.8,1.6
							c-0.4-0.5-0.8-0.9-1.2-1.3c-0.5-0.4-1.1-0.7-1.7-0.9c-0.3-0.2-0.6-0.3-1-0.4c-2.9-0.7-6-0.6-7.1,3.6s0.4,8.2,3.3,8.9
							c2,0.5,4.1-0.7,5.6-3c0.2,0.4,0.4,0.7,0.7,1.1c0.6,0.9,1.4,1.6,2.2,2.3c0.9,0.7,1.9,1.3,3,1.6c0.5,0.2,1.1,0.3,1.6,0.4
							s1.1,0.2,1.6,0.2c2,0.2,4.1-0.2,6-0.9c1.8-0.7,3.5-1.8,4.9-3.1c1.3-1.3,2.5-2.7,3.4-4.3s1.6-3.2,2-5
							C39.6,51.3,39.7,49.5,39.6,47.7z"/>
						<path id="Path_230" class="st19" d="M25.1,38.7c-2.3-1.5,4.8-1,4.8-1c-3-0.6-1.2-4-0.4-5.1c-3.5,0.6-7.1,0.6-10.6-0.1
							l-0.1,2.7c-0.4,2.7,4.7,4.5,9,5.9c3.2,1,6,1.9,6,1.9C30.9,39.3,27.4,40.1,25.1,38.7z"/>
						<path id="Path_231" class="st20" d="M24.8,36.7c-0.1-0.1-0.2-0.2-0.2-0.3l-0.1-0.2c0-0.1-0.1-0.1-0.1-0.2
							c-0.1-0.1-0.1-0.2-0.1-0.3l-0.1-0.2c0-0.1,0-0.1,0-0.2c-0.1-0.5-0.1-1,0.1-1.4c0.1-0.2,0.2-0.4,0.3-0.7
							c0.1-0.1,0.1-0.2,0.2-0.3v-0.1h-1.1l0,0c-0.1,0.3-0.1,0.6-0.2,0.9c-0.1,0.6,0,1.2,0.2,1.7c0,0.1,0.1,0.1,0.1,0.2l0.1,0.2
							c0.1,0.1,0.1,0.2,0.2,0.4c0.1,0.1,0.2,0.2,0.3,0.3c0.1,0.1,0.2,0.2,0.3,0.3c0.4,0.3,0.9,0.6,1.4,0.8
							C25.5,37.4,25.1,37.1,24.8,36.7z"/>
						<path id="Path_232" class="st20" d="M35.2,46.6c-0.1-1.2-0.5-2.4-1.2-3.4c-0.4-0.5-0.8-1-1.3-1.3s-1.1-0.6-1.7-0.8
							s-1.2-0.3-1.7-0.4c-0.6-0.1-1.1-0.2-1.7-0.3c-1.1-0.2-2.2-0.5-3.2-0.9c-1-0.3-2-0.8-2.9-1.4c-0.9-0.6-1.5-1.3-2-2.2
							c-0.4-0.9-0.4-1.9-0.1-2.8l0.2-0.4c-0.6-0.1-1.1-0.2-1.6-0.3l-0.1,0.3c-0.2,0.6-0.3,1.3-0.2,2c0,0.7,0.2,1.3,0.5,1.9
							c0.6,1.1,1.5,2.1,2.6,2.8c1,0.6,2.1,1.2,3.3,1.5c1.1,0.4,2.2,0.6,3.4,0.8c0.6,0.1,1.1,0.2,1.7,0.3c0.5,0.1,1.1,0.2,1.6,0.3
							c1,0.3,1.9,0.9,2.6,1.7c0.6,0.9,1,1.9,1.1,2.9c0.1,1.1,0,2.2-0.2,3.3c-0.5,2.2-1.5,4.2-2.9,6c-0.7,0.9-1.5,1.6-2.5,2.2
							c-1.4,0.9-3.1,1.3-4.8,1L23.5,59c-0.1,0-0.3-0.1-0.4-0.1l-0.2-0.1l-0.2-0.1l-0.4-0.2c-1-0.6-1.8-1.3-2.6-2.2
							c-0.4-0.4-0.7-0.9-1-1.4s-0.7-0.9-1-1.4l-1-1.4c-0.3-0.5-0.7-0.9-1-1.4c0.3,0.5,0.7,0.9,1,1.4l0.9,1.4c0.3,0.5,0.6,0.9,1,1.4
							c0.3,0.5,0.7,0.9,1,1.4c0.7,0.9,1.6,1.7,2.6,2.3c0.3,0.1,0.5,0.3,0.8,0.4c0.1,0.1,0.3,0.1,0.4,0.1l0.4,0.1
							c0.6,0.1,1.2,0.1,1.7,0.1c1.2-0.1,2.3-0.4,3.3-1s1.9-1.4,2.7-2.2c1.5-1.8,2.6-3.9,3.2-6.2C35.2,49,35.3,47.8,35.2,46.6z"/>
						<g id="Group_110">
							<circle id="Ellipse_70" class="st16" cx="18.4" cy="21" r="9.4"/>
							<path id="Path_233" class="st6" d="M12.5,13.7c-0.5,0.4-0.9,0.8-1.3,1.3c-3.2,3.9-2.7,9.6,1.2,12.8c0.5,0.4,1.1,0.8,1.7,1.1
								c1.1,0.5,2.2,0.9,3.4,1s2.3,0,3.5-0.4c4-1.3,6.7-5.1,6.4-9.3c0-0.6-0.1-1.2-0.3-1.7c-1.3-4.9-6.3-7.8-11.1-6.5
								c-0.1,0-0.1,0-0.2,0.1c-0.6,0.2-1.1,0.4-1.7,0.7C13.5,13,13,13.3,12.5,13.7z M12.5,13.7c1.9-1.6,4.4-2.3,6.9-2.1
								c0.6,0,1.2,0.2,1.8,0.3c5.1,1.4,8.1,6.8,6.7,11.9c-0.4,1.3-1,2.5-1.8,3.5c-0.4,0.5-0.9,1-1.4,1.4s-1.1,0.8-1.6,1.1
								c-0.6,0.3-1.2,0.5-1.8,0.7c-5.2,1.5-10.5-1.5-12-6.6c0-0.1,0-0.1-0.1-0.2C9.1,23.1,9,22.5,9,21.9
								C8.8,18.7,10.1,15.7,12.5,13.7L12.5,13.7z"/>
						</g>
						<circle id="Ellipse_71" class="st3" cx="18.4" cy="21.7" r="8.2"/>
						<circle id="Ellipse_72" class="st4" cx="18" cy="22.5" r="6.1"/>
						<circle id="Ellipse_73" class="st5" cx="18" cy="22.5" r="4.5"/>
						<circle id="Ellipse_74" cx="18" cy="22.5" r="2.7"/>
						<circle id="Ellipse_75" class="st4" cx="19.6" cy="20.5" r="1.2"/>
						<circle id="Ellipse_76" class="st4" cx="20.7" cy="22.5" r="0.7"/>
						<path id="Path_234" class="st6" d="M26.3,20.8c0,0-1.7-5.5-11.7-6.4c0,0,1.9-1.5,5.4-0.8s6.1,4.3,6.4,6.3L26.3,20.8z"/>
						<path id="Path_235" class="st21" d="M18.4,30.2c-4.7,0-8.5-3.8-8.5-8.5s3.8-8.5,8.5-8.5s8.5,3.8,8.5,8.5l0,0
							C26.9,26.4,23.1,30.2,18.4,30.2z M18.4,13.8c-4.3,0-7.9,3.5-7.9,7.9s3.5,7.9,7.9,7.9s7.9-3.5,7.9-7.9l0,0
							C26.3,17.3,22.7,13.8,18.4,13.8z"/>
						<path id="Path_236" class="st22" d="M13.1,11.9c-0.1,0-0.1,0-0.2-0.1v-0.1c0.1-0.1,0.3-0.2,0.4-0.3c0.3-0.2,0.6-0.4,0.9-0.6
							c0.6-0.4,1.3-0.7,2-0.9c1.4-0.5,2.9-0.7,4.5-0.5H21l0.4,0.1h0.2l0.3,0.1c0.4,0.1,0.7,0.2,1.1,0.3s0.7,0.3,1,0.4
							c0.7,0.3,1.3,0.8,1.9,1.2l0.1,0.1l0.1,0.1l0.2,0.2l0.2,0.2c0.1,0.1,0.1,0.1,0.2,0.2c0.1,0.1,0.2,0.3,0.4,0.4s0.1,0.1,0.2,0.2
							l0.2,0.2c0.1,0.1,0.2,0.3,0.3,0.5l0,0c0,0.1,0,0.1,0,0.2h-0.1l0,0l-0.2-0.1l-0.1-0.1L27,13.5l-0.2-0.1l-0.2-0.1l-0.2-0.1
							l-0.2-0.1c-0.1-0.1-0.3-0.2-0.4-0.3l-0.4-0.2L25,12.4l-0.2-0.1l-0.2-0.1l-0.2-0.1c-1.2-0.5-2.5-0.8-3.7-1
							c-1.4-0.1-2.7-0.1-4,0.1c-0.7,0.1-1.3,0.2-2,0.4C14.2,11.7,13.6,11.8,13.1,11.9z"/>
						<path id="Path_237" class="st16" d="M34.6,27.3c-0.1-0.7-0.5-1.2-1.1-1.5c-0.4-0.2-0.8,0-1,0.4l0,0c-0.1,0.4-0.2,0.8-0.1,1.2
							c0.1,0.7,0.5,1.2,1.1,1.5c0.1,0,0.2,0.1,0.3,0.1C34.4,28.9,34.7,28.2,34.6,27.3z"/>
						<path id="Path_238" class="st23" d="M26.8,13.9c-0.4,0.2-0.3,1,0.2,1.8c0.5,0.7,1.1,1.1,1.5,0.9s0.3-1-0.2-1.8
							C27.9,14.1,27.2,13.7,26.8,13.9z"/>
						<path id="Path_239" class="st23" d="M28.7,17.4c-0.3,0.1-0.5,0.7-0.3,1.4c0.2,0.7,0.6,1.2,0.9,1.1s0.5-0.7,0.3-1.4
							C29.4,17.8,29,17.3,28.7,17.4z"/>
						<path id="Path_240" class="st23" d="M29.2,20.7c-0.3,0-0.6,0.6-0.5,1.2S29,23,29.4,23s0.6-0.6,0.5-1.2S29.5,20.7,29.2,20.7z"
							/>
						<path id="Path_241" class="st23" d="M31.9,14c0.4,0,0.6,0.6,0.6,1.4c0,0.7-0.4,1.3-0.8,1.3c-0.4,0-0.6-0.6-0.6-1.4
							C31.2,14.5,31.5,13.9,31.9,14z"/>
						<path id="Path_242" class="st23" d="M31.8,17.4c0.3,0,0.6,0.5,0.6,1.1s-0.2,1.1-0.5,1.1s-0.6-0.5-0.6-1.1S31.5,17.4,31.8,17.4
							L31.8,17.4z"/>
						<path id="Path_243" class="st23" d="M32.1,20.6c0.3,0,0.6,0.3,0.6,0.8c0.1,0.5-0.1,1-0.3,1c-0.3,0-0.6-0.3-0.6-0.8
							C31.7,21.1,31.8,20.6,32.1,20.6z"/>
						<path id="Path_244" class="st16" d="M29.7,28.4c-0.1-0.8-0.5-1.6-1.3-2c-0.1,0-0.3-0.1-0.4-0.1c-0.4,0.1-0.7,0.3-0.8,0.7
							c-0.2,0.5-0.2,1-0.1,1.5c0.1,0.8,0.6,1.6,1.3,2c0.1,0,0.3,0.1,0.4,0.1C29.5,30.5,29.9,29.5,29.7,28.4z"/>
						<path id="Path_245" class="st22" d="M36.5,15.9L36.5,15.9c0-0.2-0.1-0.3-0.1-0.5c0-0.1,0-0.2-0.1-0.2L36.2,15
							c0-0.1-0.1-0.3-0.1-0.4L36,14.4v-0.2c0-0.1,0-0.1-0.1-0.2v-0.1v-0.1c-0.1-0.2-0.2-0.5-0.3-0.7s-0.2-0.4-0.4-0.6
							c-0.1-0.2-0.3-0.4-0.4-0.5c-0.1-0.1-0.2-0.1-0.3-0.2c-0.1,0.4-0.2,1-0.2,1.7c0.4,0.2,0.7,0.5,1,0.8l0.1,0.1l0.1,0.1l0.1,0.1
							l0.1,0.1c0.1,0.1,0.1,0.2,0.2,0.2l0.2,0.3l0.1,0.1l0.1,0.1l0.1,0.1l0.1,0.1v0.1L36.5,15.9L36.5,15.9L36.5,15.9
							C36.4,16.2,36.5,16,36.5,15.9z"/>
						<path id="Path_246" class="st21" d="M33.5,26c-0.2,0-0.3,0.2-0.4,0.5c-0.1,0.3,0,0.6,0,1c0.1,0.5,0.4,0.9,0.8,1.1
							c0.1,0,0.1,0,0.2,0c0.4-0.1,0.5-0.7,0.3-1.5C34.3,26.6,34,26.2,33.5,26C33.6,26,33.6,26,33.5,26L33.5,26z"/>
						<path id="Path_247" class="st21" d="M29.6,28c-0.1-0.6-0.5-1.2-1.1-1.5c-0.1,0-0.2,0-0.3,0c-0.2,0.1-0.4,0.3-0.5,0.7
							c-0.1,0.4-0.1,0.9,0.1,1.3c0.1,0.6,0.5,1.2,1.1,1.5c0.1,0,0.2,0,0.3,0C29.7,29.9,29.9,29,29.6,28z"/>
					</g>
				</g>
			</g>
		</g>
	</g>
</g>
</svg>
