<svg id="TW-Icon" xmlns="http://www.w3.org/2000/svg" viewBox="0 0 20 20">
  <defs>
    <style>
      .cls-1 {
        fill: #55acee;
      }

      .cls-2 {
        fill: #fff;
      }
    </style>
  </defs>
  <circle id="Ellipse_11" data-name="Ellipse 11" class="cls-1" cx="10" cy="10" r="10"/>
  <path id="Path_4" data-name="Path 4" class="cls-2" d="M18.509,9.186a5.167,5.167,0,0,1-1.474.4,2.53,2.53,0,0,0,1.129-1.4,5.2,5.2,0,0,1-1.63.612A2.583,2.583,0,0,0,14.661,8,2.544,2.544,0,0,0,12.1,10.528a2.6,2.6,0,0,0,.065.577A7.337,7.337,0,0,1,6.872,8.466a2.48,2.48,0,0,0-.349,1.269,2.521,2.521,0,0,0,1.142,2.1A2.6,2.6,0,0,1,6.5,11.521c0,.011,0,.021,0,.032A2.538,2.538,0,0,0,8.562,14.03a2.663,2.663,0,0,1-.676.088,2.608,2.608,0,0,1-.482-.044,2.566,2.566,0,0,0,2.4,1.754,5.2,5.2,0,0,1-3.187,1.081A5.075,5.075,0,0,1,6,16.872a7.351,7.351,0,0,0,3.934,1.134,7.19,7.19,0,0,0,7.3-7.184c0-.108,0-.219-.009-.326A5.234,5.234,0,0,0,18.509,9.186Z" transform="translate(-2.25 -3.001)"/>
</svg>
